<svg width="308" height="70" viewBox="0 0 308 70" fill="none" xmlns="http://www.w3.org/2000/svg">
<path d="M118.149 51.7055V34.4036H125.47C126.328 34.3449 127.19 34.4702 127.996 34.7711C128.803 35.072 129.536 35.5417 130.146 36.1486C131.109 37.2463 131.604 38.6777 131.525 40.1359C131.569 41.3259 131.249 42.501 130.609 43.5049C129.989 44.4084 129.11 45.1021 128.087 45.4942L132.004 51.6707H127.878L124.44 46.1302H121.665V51.6707L118.149 51.7055ZM121.639 42.8145H125.216C125.944 42.8565 126.66 42.6158 127.214 42.1426C127.449 41.9184 127.634 41.6471 127.758 41.3464C127.881 41.0457 127.94 40.7225 127.93 40.3977C127.952 40.0556 127.898 39.7128 127.771 39.3943C127.644 39.0757 127.448 38.7896 127.197 38.5566C126.617 38.1005 125.89 37.8738 125.154 37.9196H121.665V42.8932L121.639 42.8145ZM137.859 51.941C136.756 51.9769 135.681 51.5934 134.849 50.8679C134.443 50.4921 134.125 50.0315 133.917 49.5188C133.709 49.0061 133.616 48.4539 133.645 47.9014V47.8491C133.605 47.2549 133.705 46.6595 133.937 46.1109C134.169 45.5623 134.526 45.0758 134.98 44.6906C136.014 43.9391 137.273 43.5635 138.549 43.6261C139.572 43.625 140.586 43.8114 141.542 44.1758V43.9577C141.564 43.6269 141.517 43.2951 141.403 42.9839C141.289 42.6727 141.11 42.3891 140.879 42.1516C140.327 41.7036 139.625 41.4821 138.916 41.5321C137.751 41.5569 136.602 41.8026 135.529 42.2562L134.656 39.3856C135.363 39.0444 136.103 38.7754 136.864 38.5828C137.703 38.3972 138.561 38.3094 139.42 38.3211C140.177 38.2628 140.937 38.3648 141.651 38.6204C142.365 38.876 143.018 39.2794 143.565 39.8043C144.529 40.9917 145.004 42.5021 144.892 44.0274V51.7151H141.524V50.2667C141.08 50.8053 140.519 51.236 139.884 51.5262C139.25 51.8164 138.557 51.9586 137.859 51.942L137.859 51.941ZM138.915 49.3235C139.626 49.3528 140.323 49.1234 140.878 48.6779C141.123 48.4762 141.318 48.2213 141.45 47.9325C141.581 47.6437 141.645 47.3287 141.637 47.0115V46.3484C140.948 46.0093 140.188 45.8388 139.421 45.851C138.804 45.8198 138.193 45.9848 137.676 46.3222C137.466 46.4775 137.298 46.6823 137.187 46.9183C137.076 47.1543 137.025 47.4142 137.039 47.6747C137.029 47.8981 137.071 48.1207 137.162 48.3251C137.253 48.5294 137.39 48.71 137.562 48.8526C137.957 49.1532 138.445 49.3047 138.941 49.2801L138.915 49.3235ZM155.24 51.941C154.492 51.9438 153.755 51.767 153.09 51.4255C152.425 51.084 151.852 50.5878 151.418 49.9786V51.7235H147.928V33.6707H151.418V40.3628C151.819 39.7085 152.38 39.1678 153.049 38.792C153.718 38.4163 154.472 38.2181 155.24 38.2164C155.96 38.2127 156.672 38.3676 157.325 38.6701C157.984 38.9842 158.577 39.4227 159.07 39.9615C159.629 40.5938 160.053 41.3329 160.318 42.134C160.642 43.0741 160.801 44.0632 160.789 45.0576C160.803 46.0534 160.649 47.0443 160.335 47.9893C160.073 48.7888 159.648 49.5255 159.087 50.1532C158.597 50.6971 158.004 51.1388 157.342 51.4532C156.678 51.749 155.958 51.9007 155.231 51.8981L155.24 51.941ZM154.367 48.757C154.774 48.7612 155.177 48.6722 155.545 48.4968C155.912 48.3213 156.235 48.0642 156.488 47.745C157.089 47.0086 157.399 46.077 157.36 45.1269C157.399 44.1771 157.089 43.2457 156.487 42.5095C156.235 42.1899 155.913 41.9317 155.547 41.7542C155.181 41.5766 154.779 41.4844 154.372 41.4844C153.964 41.4844 153.562 41.5766 153.196 41.7542C152.83 41.9317 152.508 42.1899 152.256 42.5095C151.655 43.2461 151.344 44.1771 151.383 45.1269C151.346 46.0765 151.656 47.0069 152.255 47.7444C152.508 48.0619 152.829 48.318 153.195 48.4933C153.561 48.6686 153.961 48.7586 154.367 48.7564L154.367 48.757ZM170.718 51.941C169.971 51.9438 169.233 51.767 168.568 51.4255C167.903 51.084 167.33 50.5878 166.897 49.9786V51.7235H163.406V33.6707H166.896V40.3628C167.296 39.7074 167.857 39.1657 168.527 38.7898C169.196 38.4139 169.95 38.2164 170.718 38.2164C171.438 38.2146 172.149 38.3695 172.803 38.6701C173.463 38.9834 174.056 39.422 174.548 39.9615C175.11 40.5933 175.537 41.3323 175.805 42.134C176.129 43.0741 176.288 44.0632 176.276 45.0576C176.287 46.0538 176.13 47.0448 175.814 47.9893C175.54 48.8102 175.094 49.5629 174.505 50.1968C174.01 50.7318 173.418 51.1672 172.76 51.4794C172.099 51.776 171.382 51.9278 170.657 51.9244L170.718 51.941ZM169.846 48.757C170.24 48.7489 170.627 48.6541 170.98 48.4791C171.333 48.3042 171.643 48.0535 171.888 47.745C172.489 47.0084 172.8 46.0769 172.76 45.1269C172.799 44.1771 172.489 43.2457 171.887 42.5095C171.635 42.1893 171.313 41.9303 170.946 41.752C170.579 41.5737 170.177 41.4807 169.769 41.4798C169.361 41.479 168.959 41.5704 168.591 41.7471C168.223 41.9239 167.901 42.1815 167.647 42.5007C167.049 43.2389 166.739 44.1688 166.774 45.1181C166.741 46.0671 167.051 46.9962 167.647 47.7356C167.9 48.0538 168.223 48.3103 168.59 48.4856C168.958 48.6609 169.36 48.7505 169.767 48.7476L169.846 48.757ZM178.868 37.0043V33.6707H182.541V37.0037L178.868 37.0043ZM178.972 51.7061V38.4609H182.462V51.7055L178.972 51.7061ZM189.861 51.9242C188.908 51.9883 187.968 51.6749 187.244 51.0517C186.888 50.6306 186.62 50.1429 186.455 49.617C186.291 49.0912 186.232 48.5377 186.284 47.9891V41.6813H184.818V38.4609H186.284V35.0843H189.774V38.4609H192.662V41.6805H189.774V47.3343C189.745 47.6791 189.841 48.0229 190.044 48.3027C190.156 48.4185 190.292 48.5072 190.444 48.5616C190.595 48.6161 190.757 48.635 190.917 48.6169C191.531 48.6254 192.135 48.4622 192.662 48.1457V51.1558C191.836 51.6717 190.878 51.9383 189.905 51.9236L189.861 51.9242ZM220.67 51.7061V37.9112H215.801V34.421H229.071V37.9112H224.239V51.7055L220.67 51.7061ZM235.031 52.0027C236.235 52.0175 237.419 51.6972 238.451 51.0777C239.448 50.4641 240.264 49.5969 240.816 48.5648C241.401 47.4956 241.702 46.2936 241.688 45.0747C241.708 43.855 241.407 42.6517 240.816 41.5845C240.267 40.5565 239.446 39.6993 238.443 39.1067C237.421 38.4939 236.249 38.1768 235.057 38.1905C234.157 38.1907 233.267 38.3747 232.44 38.7312C231.648 39.086 230.937 39.5964 230.346 40.2321C229.75 40.8716 229.28 41.6175 228.959 42.4308C228.619 43.2796 228.447 44.1864 228.453 45.1007V45.153C228.439 46.3719 228.74 47.5739 229.326 48.6431C229.883 49.682 230.715 50.5485 231.73 51.1483C232.745 51.7482 233.905 52.0586 235.084 52.0459L235.031 52.0027ZM235.083 48.7568C234.64 48.7675 234.201 48.6763 233.798 48.4902C233.396 48.3042 233.042 48.0282 232.763 47.6837C232.157 46.9499 231.846 46.0168 231.89 45.0663C231.865 44.1344 232.175 43.2244 232.763 42.5011C233.042 42.1615 233.396 41.8911 233.797 41.7109C234.198 41.5308 234.635 41.4457 235.074 41.4624C235.504 41.4614 235.929 41.5556 236.318 41.7381C236.707 41.9206 237.051 42.187 237.326 42.5181C237.944 43.2473 238.271 44.1799 238.242 45.1357V45.187C238.271 46.1194 237.961 47.0308 237.369 47.7522C237.09 48.0917 236.736 48.3621 236.335 48.5422C235.934 48.7223 235.496 48.8073 235.057 48.7905L235.083 48.7568ZM244.201 51.7059V38.4609H247.691V41.122C248.465 39.0977 249.771 38.1292 251.609 38.2166V42.1432H251.417C250.9 42.1123 250.382 42.2018 249.906 42.4046C249.429 42.6074 249.006 42.9179 248.669 43.3119C247.949 44.327 247.604 45.5606 247.692 46.802V51.7055L244.201 51.7059ZM257.926 51.924C256.973 51.9881 256.032 51.6747 255.308 51.0515C254.953 50.6304 254.685 50.1427 254.52 49.6168C254.355 49.091 254.297 48.5375 254.349 47.9889V41.6811H252.883V38.4609H254.349V35.0843H257.839V38.4609H260.727V41.6805H257.838V47.3343C257.809 47.6791 257.905 48.0229 258.109 48.3027C258.221 48.418 258.357 48.5062 258.509 48.5607C258.66 48.6151 258.822 48.6344 258.981 48.6169C259.596 48.6258 260.2 48.4626 260.726 48.1457V51.1558C259.9 51.6717 258.943 51.9383 257.969 51.9236L257.926 51.924ZM268.954 52.0025C267.763 52.0171 266.59 51.6999 265.569 51.0863C264.566 50.4858 263.743 49.627 263.186 48.5996C262.6 47.5304 262.3 46.3285 262.313 45.1095V45.0572C262.312 44.1433 262.483 43.2373 262.819 42.3873C263.139 41.5714 263.613 40.8248 264.215 40.1886C264.816 39.5595 265.537 39.0579 266.336 38.714C267.162 38.3563 268.053 38.1723 268.953 38.1733C270.147 38.1598 271.322 38.4769 272.347 39.0894C273.351 39.6818 274.172 40.5389 274.721 41.5669C275.312 42.6341 275.613 43.8374 275.594 45.057C275.607 46.276 275.307 47.4778 274.721 48.5472C274.165 49.5843 273.339 50.4524 272.331 51.0601C271.302 51.6806 270.12 52.001 268.919 51.985L268.954 52.0025ZM268.998 48.7566C269.444 48.7796 269.89 48.6976 270.299 48.5173C270.708 48.337 271.069 48.0634 271.354 47.7183C271.942 46.995 272.251 46.085 272.226 45.1532V45.1009C272.267 44.1508 271.956 43.219 271.353 42.4837C271.072 42.1427 270.717 41.8698 270.315 41.6855C269.913 41.5011 269.475 41.4101 269.033 41.4191C268.593 41.4016 268.156 41.4863 267.754 41.6664C267.353 41.8466 266.999 42.1173 266.72 42.4574C266.129 43.1788 265.819 44.0902 265.848 45.0226C265.808 45.9726 266.118 46.9042 266.72 47.64C267.001 47.9831 267.355 48.2579 267.757 48.4438C268.159 48.6297 268.599 48.7218 269.041 48.7132L268.998 48.7566ZM278.194 37.0039V33.6707H281.824V37.0037L278.194 37.0039ZM278.334 51.7057V38.4609H281.824V51.7055L278.334 51.7057ZM289.389 51.9412C288.447 51.9572 287.509 51.8005 286.623 51.4788C285.688 51.1444 284.824 50.6384 284.075 49.9868L285.567 47.5175C286.643 48.4614 288.004 49.0174 289.432 49.0967C289.821 49.1266 290.209 49.0319 290.54 48.8261C290.655 48.7441 290.749 48.6354 290.813 48.5093C290.877 48.3831 290.909 48.2434 290.907 48.102V47.9887C290.92 47.9048 290.92 47.8194 290.907 47.7356C290.88 47.6538 290.836 47.5792 290.776 47.5175C290.721 47.4473 290.66 47.383 290.592 47.3255C290.51 47.2566 290.419 47.198 290.322 47.151L290.017 47.0109L289.65 46.8625L289.266 46.7315L288.839 46.5913L288.394 46.4512C287.993 46.329 287.643 46.1981 287.347 46.0759C287.008 45.9334 286.683 45.7581 286.378 45.5525C286.051 45.3591 285.756 45.1147 285.506 44.8284C285.261 44.5266 285.072 44.184 284.947 43.8163C284.792 43.3855 284.715 42.9305 284.72 42.4726C284.691 41.8962 284.791 41.3205 285.013 40.7876C285.234 40.2547 285.572 39.7781 286.002 39.3926C286.891 38.6312 288.035 38.2334 289.205 38.2784C290.015 38.2823 290.82 38.4175 291.587 38.6789C292.373 38.9388 293.115 39.3185 293.786 39.8045L292.459 42.422C291.486 41.7201 290.34 41.2949 289.144 41.1916C288.808 41.1701 288.474 41.2589 288.193 41.4448C288.087 41.5182 288.001 41.6161 287.942 41.73C287.883 41.844 287.852 41.9707 287.853 42.0992V42.1514C287.858 42.266 287.89 42.3779 287.944 42.4789C287.998 42.58 288.074 42.6678 288.166 42.736C288.381 42.9114 288.619 43.0556 288.873 43.1645C289.135 43.2778 289.502 43.4176 289.973 43.592L290.348 43.7322C290.758 43.8724 291.107 44.0113 291.404 44.1423C291.746 44.2934 292.075 44.4713 292.39 44.6746C292.716 44.8727 293.011 45.1199 293.262 45.4075C293.777 46.0484 294.06 46.845 294.065 47.6673C294.106 48.2621 294.01 48.8583 293.785 49.4103C293.559 49.9622 293.21 50.4552 292.765 50.8512C291.796 51.6062 290.589 51.9898 289.362 51.9326L289.389 51.9412ZM302.398 52.0023C301.539 52.0285 300.685 51.8708 299.892 51.5397C299.098 51.2086 298.385 50.7119 297.8 50.0827C296.569 48.7429 295.917 46.9712 295.985 45.153V45.1007C295.976 43.9085 296.239 42.7299 296.753 41.6542C297.238 40.6414 297.985 39.7767 298.917 39.1501C299.849 38.5292 300.947 38.2038 302.067 38.2166C302.973 38.2077 303.87 38.4109 304.684 38.8099C305.435 39.1779 306.08 39.7302 306.56 40.4153C307.049 41.1087 307.412 41.8824 307.633 42.7013C307.879 43.5699 308.002 44.4685 307.999 45.3712C308.001 45.7004 307.987 46.0295 307.956 46.3573H299.405C299.524 47.1031 299.893 47.7863 300.452 48.2943C301.006 48.7425 301.702 48.9777 302.415 48.9573C302.953 48.9645 303.486 48.8544 303.977 48.6345C304.498 48.3819 304.973 48.0426 305.381 47.631L307.371 49.5334C306.803 50.3268 306.048 50.9674 305.172 51.3982C304.297 51.829 303.329 52.0367 302.354 52.0027L302.398 52.0023ZM299.405 44.0456H304.64C304.57 43.2877 304.265 42.5706 303.767 41.9952C303.55 41.7485 303.281 41.5526 302.979 41.4214C302.678 41.2902 302.351 41.227 302.022 41.2361C301.695 41.2299 301.37 41.2936 301.069 41.423C300.768 41.5524 300.498 41.7445 300.277 41.9864C299.774 42.5666 299.455 43.2834 299.361 44.0456H299.405Z" fill="white"/>
<path d="M214.03 50.6054L210.278 46.5037C210.888 45.6391 211.436 44.7323 211.918 43.7902C212.424 42.8218 212.913 41.7835 213.384 40.6839L211.386 39.6893C210.996 40.6549 210.586 41.571 210.156 42.4377C209.751 43.2656 209.3 44.0696 208.803 44.8459L203.9 39.455C205.317 38.9798 206.604 38.1823 207.661 37.1253C208.315 36.3318 208.742 35.3754 208.896 34.3581C209.05 33.3408 208.924 32.3008 208.533 31.3493C208.291 30.7264 207.932 30.1551 207.477 29.6654C207.01 29.1859 206.453 28.8034 205.837 28.5398C205.177 28.262 204.468 28.1224 203.752 28.1297C202.955 28.1166 202.163 28.2618 201.423 28.5571C200.771 28.8297 200.18 29.2283 199.683 29.73C199.186 30.2317 198.792 30.8267 198.526 31.4807C198.244 32.1668 198.101 32.9021 198.106 33.6438C198.096 34.5264 198.275 35.401 198.63 36.209C199.063 37.1298 199.611 37.9918 200.261 38.7741C198.78 39.3543 197.463 40.2855 196.422 41.4877C195.513 42.6214 195.034 44.0399 195.069 45.4927C195.057 46.4076 195.229 47.3157 195.576 48.1626C195.899 48.9421 196.38 49.6461 196.989 50.2304C197.608 50.8106 198.338 51.2589 199.136 51.5478C199.995 51.8672 200.906 52.0269 201.823 52.019C203.163 52.0378 204.485 51.7103 205.662 51.068C206.874 50.3973 207.953 49.5102 208.846 48.4505L212.222 52.1936L214.03 50.6054ZM206.701 33.4954C206.713 33.9798 206.626 34.4617 206.446 34.9116C206.266 35.3615 205.996 35.7702 205.654 36.1128C204.764 36.9341 203.707 37.5532 202.556 37.9277C202.201 37.5323 201.866 37.1188 201.553 36.6887C201.303 36.3498 201.081 35.9909 200.89 35.6156C200.738 35.3097 200.621 34.9878 200.54 34.6558C200.468 34.3293 200.433 33.9956 200.436 33.6612C200.403 32.773 200.716 31.9067 201.309 31.2448C201.61 30.9256 201.976 30.6747 202.383 30.5091C202.789 30.3435 203.227 30.2669 203.665 30.2846C204.07 30.2668 204.474 30.3355 204.85 30.4859C205.226 30.6363 205.566 30.8651 205.847 31.1571C206.139 31.4686 206.366 31.835 206.516 32.235C206.666 32.635 206.734 33.0608 206.718 33.4876L206.701 33.4954ZM207.311 46.7663C206.605 47.6332 205.759 48.3763 204.808 48.965C203.949 49.4975 202.958 49.7786 201.947 49.7764C201.326 49.7868 200.709 49.6741 200.132 49.4448C199.602 49.2426 199.12 48.9328 198.716 48.5348C198.312 48.1369 197.995 47.6594 197.785 47.1327C197.488 46.3802 197.393 45.5633 197.509 44.7629C197.626 43.9625 197.949 43.2064 198.448 42.5694C199.265 41.579 200.34 40.8333 201.554 40.4144L207.311 46.7663Z" fill="#F0F0F0"/>
<path d="M120.505 61.2936H122.311V60.7876H118.149V61.2936H119.955V66.1971H120.505V61.2936ZM128.794 63.6408H131.411V63.1345H128.794V61.2936H131.604V60.7876H128.262V66.1971H131.752V65.6911H128.855V63.6408H128.794ZM141.881 65.0193C141.787 65.1628 141.675 65.2946 141.55 65.412C141.434 65.5128 141.304 65.5979 141.166 65.6649C141.036 65.7254 140.898 65.7666 140.756 65.787C140.614 65.7999 140.471 65.7999 140.328 65.787C140.021 65.7944 139.717 65.735 139.435 65.613C139.153 65.491 138.901 65.3092 138.697 65.0803C138.505 64.8637 138.357 64.6121 138.26 64.3394C138.157 64.0602 138.104 63.7648 138.103 63.4669C138.104 63.1692 138.157 62.8739 138.26 62.5945C138.357 62.3217 138.505 62.0702 138.697 61.8535C138.892 61.6365 139.13 61.4614 139.395 61.3387C139.689 61.2098 140.007 61.1444 140.328 61.1467C140.473 61.1498 140.616 61.1704 140.756 61.2077C140.895 61.2486 141.029 61.3042 141.156 61.3735C141.277 61.4338 141.388 61.5101 141.488 61.6004C141.576 61.6764 141.652 61.7645 141.715 61.8621L142.195 61.5045C141.971 61.2075 141.669 60.9781 141.323 60.8415C141.001 60.7149 140.657 60.6497 140.311 60.6494C139.928 60.6456 139.549 60.7167 139.194 60.8589C138.866 60.9954 138.569 61.1973 138.322 61.4522C138.073 61.7029 137.874 61.9991 137.737 62.3247C137.446 63.0529 137.446 63.8652 137.737 64.5933C137.874 64.9189 138.073 65.2151 138.322 65.4658C138.569 65.7208 138.866 65.9226 139.194 66.0592C139.549 66.2041 139.928 66.2782 140.311 66.2772C140.526 66.2786 140.74 66.2522 140.948 66.1987C141.141 66.1504 141.329 66.0801 141.506 65.9893C141.675 65.9042 141.831 65.7955 141.969 65.6665C142.1 65.556 142.215 65.4266 142.309 65.2826L141.864 64.9598L141.881 65.0193ZM148.329 66.1971H148.879V63.6408H151.82V66.1971H152.37V60.7876H151.82V63.1345H148.87V60.7876H148.33V66.1971H148.329ZM159.672 60.7876H158.991V66.1971H159.541V61.5728L162.769 66.1971H163.45V60.7876H162.9V65.3683L159.672 60.7876ZM175.29 63.4924C175.296 63.1033 175.222 62.7172 175.072 62.3582C174.935 62.0326 174.736 61.7364 174.487 61.4857C174.24 61.2307 173.943 61.0288 173.615 60.8923C172.897 60.6129 172.1 60.6129 171.381 60.8923C171.053 61.0289 170.756 61.2307 170.509 61.4857C170.26 61.7364 170.062 62.0326 169.924 62.3582C169.633 63.0863 169.633 63.8986 169.924 64.6268C170.062 64.9524 170.26 65.2486 170.509 65.4993C170.756 65.7542 171.053 65.9561 171.381 66.0926C172.097 66.3836 172.899 66.3836 173.615 66.0926C173.943 65.9561 174.24 65.7542 174.487 65.4993C174.736 65.2486 174.935 64.9524 175.072 64.6268C175.222 64.2677 175.296 63.8816 175.29 63.4926V63.4924ZM174.697 63.4924C174.696 63.7902 174.643 64.0856 174.54 64.3649C174.447 64.6391 174.298 64.8913 174.103 65.1058C173.897 65.3329 173.645 65.5144 173.363 65.6386C173.082 65.7628 172.779 65.8269 172.471 65.8269C172.164 65.8269 171.86 65.7628 171.579 65.6386C171.298 65.5144 171.046 65.3329 170.839 65.1058C170.648 64.8891 170.499 64.6376 170.403 64.3649C170.299 64.0856 170.246 63.7902 170.246 63.4924C170.247 63.1946 170.3 62.8993 170.403 62.6199C170.5 62.3472 170.648 62.0956 170.839 61.879C171.035 61.662 171.272 61.4868 171.537 61.3641C171.832 61.2374 172.15 61.172 172.471 61.172C172.792 61.172 173.11 61.2374 173.405 61.3641C173.67 61.4869 173.907 61.662 174.103 61.879C174.297 62.0934 174.446 62.3456 174.539 62.6199C174.642 62.8993 174.695 63.1946 174.696 63.4924H174.697ZM182.034 60.7876H181.486V66.1971H184.548V65.6911H182.034V60.7876ZM195.663 63.4924C195.669 63.1033 195.595 62.7172 195.445 62.3582C195.161 61.7011 194.636 61.1771 193.979 60.8923C193.261 60.6129 192.464 60.6129 191.746 60.8923C191.409 61.0249 191.103 61.226 190.848 61.4828C190.592 61.7396 190.393 62.0466 190.263 62.3844C189.971 63.1126 189.971 63.9249 190.263 64.653C190.393 64.9908 190.592 65.2978 190.848 65.5546C191.103 65.8114 191.409 66.0125 191.746 66.1451C192.462 66.4361 193.263 66.4361 193.979 66.1451C194.636 65.8603 195.161 65.3363 195.445 64.6792C195.595 64.3202 195.67 63.9341 195.663 63.545V63.4924ZM195.07 63.4924C195.07 63.7902 195.017 64.0856 194.913 64.3649C194.816 64.6376 194.668 64.8891 194.477 65.1058C194.27 65.3329 194.018 65.5144 193.737 65.6385C193.456 65.7627 193.152 65.8268 192.845 65.8268C192.537 65.8268 192.234 65.7627 191.953 65.6385C191.672 65.5144 191.419 65.3329 191.213 65.1058C191.018 64.8913 190.869 64.6391 190.776 64.3649C190.673 64.0856 190.62 63.7902 190.619 63.4924C190.62 63.1946 190.674 62.8993 190.776 62.6199C190.87 62.3456 191.018 62.0934 191.213 61.879C191.408 61.662 191.646 61.4869 191.911 61.3641C192.206 61.2374 192.523 61.172 192.844 61.172C193.165 61.172 193.483 61.2374 193.778 61.3641C194.043 61.4869 194.28 61.662 194.476 61.879C194.668 62.0956 194.816 62.3472 194.912 62.6199C195.015 62.8993 195.068 63.1946 195.069 63.4924H195.07ZM206.256 61.381C206.01 61.1339 205.712 60.9459 205.383 60.8313C205.025 60.7051 204.646 60.646 204.266 60.6569C203.881 60.6528 203.499 60.7239 203.141 60.8661C202.814 61.0045 202.517 61.2061 202.268 61.4594C202.013 61.707 201.811 62.0038 201.675 62.3319C201.396 63.0623 201.396 63.8701 201.675 64.6005C201.811 64.9286 202.013 65.2255 202.268 65.473C202.517 65.7263 202.814 65.928 203.141 66.0664C203.498 66.2113 203.88 66.2854 204.266 66.2844C204.617 66.2792 204.966 66.2294 205.304 66.1361C205.656 66.0514 205.994 65.9166 206.308 65.7356V63.1171H204.467V63.6231H205.758V65.438C205.542 65.5622 205.31 65.6561 205.069 65.7171C204.807 65.7873 204.537 65.8225 204.266 65.8219C203.945 65.8292 203.626 65.7636 203.333 65.6298C203.067 65.5093 202.829 65.3338 202.635 65.115C202.44 64.8988 202.289 64.6473 202.19 64.3741C202.093 64.0933 202.043 63.7986 202.041 63.5016C202.044 63.2047 202.094 62.91 202.19 62.6291C202.289 62.3559 202.44 62.1044 202.635 61.8882C202.829 61.6693 203.067 61.4939 203.333 61.3733C203.627 61.2437 203.945 61.1782 204.266 61.1813C204.566 61.1779 204.863 61.2373 205.139 61.3557C205.386 61.4596 205.609 61.6142 205.793 61.8095L206.203 61.409L206.256 61.381ZM214.623 63.8676L216.647 60.7876H215.958L214.344 63.344L212.738 60.7876H212.024L214.046 63.8676V66.1971H214.596V63.8676H214.623ZM228.8 61.3113C228.613 61.0857 228.373 60.9091 228.102 60.7964C227.837 60.6983 227.556 60.6507 227.274 60.6563C227.055 60.6546 226.838 60.684 226.628 60.7436C226.427 60.8023 226.237 60.8968 226.069 61.0227C225.902 61.1547 225.766 61.3214 225.669 61.5113C225.568 61.7206 225.517 61.9507 225.521 62.1831C225.515 62.399 225.556 62.6135 225.643 62.8113C225.717 62.9688 225.824 63.1087 225.957 63.2214C226.09 63.3349 226.24 63.4263 226.401 63.4924C226.549 63.5667 226.701 63.6335 226.855 63.6926L227.37 63.8584C227.525 63.9141 227.674 63.9843 227.815 64.0679C227.936 64.1522 228.039 64.2588 228.12 64.3819C228.197 64.5169 228.239 64.6692 228.242 64.8246C228.245 64.9801 228.209 65.1338 228.138 65.2718C228.067 65.3918 227.975 65.4982 227.867 65.586C227.752 65.666 227.626 65.7278 227.492 65.7692C227.36 65.8142 227.221 65.8378 227.082 65.8391C226.823 65.8458 226.567 65.7825 226.341 65.6559C226.14 65.5435 225.972 65.3812 225.852 65.1847L225.355 65.5423C225.548 65.8108 225.81 66.0218 226.114 66.1527C226.412 66.278 226.732 66.3433 227.056 66.3447C227.274 66.347 227.49 66.3085 227.693 66.2314C227.903 66.1687 228.099 66.0649 228.269 65.926C228.439 65.7948 228.579 65.6281 228.679 65.4374C228.785 65.2326 228.839 65.0049 228.836 64.7744C228.85 64.5039 228.78 64.2359 228.636 64.0066C228.499 63.8199 228.324 63.665 228.121 63.5528C227.909 63.4338 227.683 63.3401 227.449 63.2737C227.224 63.2113 227.003 63.1355 226.786 63.0468C226.597 62.9664 226.423 62.8542 226.271 62.7152C226.201 62.6377 226.147 62.5467 226.112 62.4477C226.078 62.3487 226.064 62.2438 226.071 62.1393C226.065 61.988 226.098 61.8376 226.167 61.703C226.233 61.5844 226.322 61.4805 226.429 61.3976C226.541 61.3173 226.668 61.2584 226.802 61.2238C226.938 61.1851 227.079 61.1646 227.221 61.1627C227.427 61.1529 227.631 61.1968 227.815 61.2902C227.999 61.3835 228.155 61.523 228.268 61.6949L228.749 61.3197L228.8 61.3113ZM240.37 63.4926C240.372 63.1039 240.298 62.7186 240.152 62.3584C240.015 62.0303 239.814 61.7334 239.559 61.4859C239.31 61.2326 239.013 61.0309 238.686 60.8925C237.968 60.6131 237.171 60.6131 236.453 60.8925C236.124 61.029 235.828 61.2309 235.58 61.4859C235.328 61.7362 235.127 62.0324 234.987 62.3584C234.707 63.0888 234.707 63.8966 234.987 64.627C235.127 64.953 235.328 65.2491 235.58 65.4995C235.828 65.7545 236.125 65.9563 236.454 66.0926C237.17 66.3836 237.971 66.3836 238.688 66.0926C239.015 65.9542 239.311 65.7526 239.56 65.4993C239.815 65.2517 240.017 64.9549 240.153 64.6268C240.299 64.2665 240.373 63.8812 240.371 63.4926H240.37ZM239.768 63.4926C239.771 63.7899 239.72 64.0853 239.62 64.3651C239.52 64.6361 239.372 64.8871 239.183 65.106C238.861 65.4451 238.441 65.6764 237.982 65.7686C237.523 65.8607 237.047 65.8091 236.618 65.6208C236.352 65.5002 236.114 65.3248 235.92 65.106C235.725 64.8916 235.577 64.6393 235.484 64.3651C235.38 64.0858 235.327 63.7904 235.327 63.4926C235.328 63.1948 235.381 62.8995 235.484 62.6201C235.577 62.3458 235.725 62.0936 235.92 61.8792C236.114 61.6603 236.352 61.4849 236.618 61.3643C236.912 61.2378 237.228 61.1725 237.547 61.1725C237.867 61.1725 238.183 61.2378 238.477 61.3643C238.746 61.4848 238.986 61.6601 239.183 61.8792C239.372 62.0981 239.52 62.349 239.62 62.6201C239.72 62.9 239.77 63.1953 239.768 63.4926ZM247.107 60.7876H246.557V66.1971H249.629V65.6911H247.107V60.7876ZM259.322 60.7876H258.773V64.1206C258.777 64.3441 258.751 64.5672 258.694 64.7836C258.651 64.9496 258.583 65.1084 258.494 65.2548C258.416 65.3725 258.319 65.4759 258.206 65.5601C258.109 65.6288 258.003 65.6846 257.892 65.7259C257.794 65.767 257.691 65.7963 257.586 65.8133H257.089C256.984 65.7952 256.882 65.766 256.784 65.7259C256.675 65.6844 256.572 65.6287 256.478 65.5601C256.365 65.4759 256.268 65.3725 256.19 65.2548C256.101 65.1084 256.033 64.9496 255.99 64.7836C255.933 64.5672 255.907 64.3441 255.911 64.1206V60.7876H255.362V64.1816C255.363 64.4222 255.39 64.662 255.44 64.8971C255.498 65.1466 255.602 65.3833 255.746 65.5952C255.906 65.8136 256.111 65.9952 256.348 66.1274C256.66 66.2657 256.997 66.3371 257.338 66.3371C257.679 66.3371 258.016 66.2657 258.328 66.1274C258.569 65.9978 258.778 65.816 258.939 65.5952C259.084 65.3848 259.185 65.1474 259.236 64.8971C259.289 64.6622 259.318 64.4225 259.323 64.1816L259.322 60.7876ZM267.515 61.2936H269.33V60.7876H265.159V61.2936H266.965V66.1971H267.514L267.515 61.2936ZM275.813 60.7876H275.262V66.1971H275.812L275.813 60.7876ZM287.635 63.4924C287.64 63.1043 287.569 62.719 287.426 62.3582C287.289 62.0301 287.087 61.7332 286.832 61.4857C286.583 61.2324 286.287 61.0307 285.96 60.8923C285.605 60.751 285.225 60.6799 284.843 60.6829C284.458 60.6798 284.076 60.751 283.717 60.8923C283.39 61.0307 283.094 61.2324 282.845 61.4857C282.593 61.736 282.392 62.0322 282.252 62.3582C281.972 63.0886 281.972 63.8964 282.252 64.6268C282.392 64.9528 282.593 65.2489 282.845 65.4993C283.094 65.7526 283.39 65.9542 283.717 66.0926C284.075 66.2367 284.457 66.3108 284.843 66.3107C285.226 66.3109 285.605 66.2368 285.959 66.0926C286.286 65.9542 286.583 65.7526 286.832 65.4993C287.087 65.2517 287.289 64.9549 287.425 64.6268C287.568 64.2659 287.639 63.8807 287.635 63.4926L287.635 63.4924ZM287.042 63.4924C287.04 63.7893 286.99 64.0841 286.893 64.3649C286.794 64.6381 286.643 64.8896 286.448 65.1058C286.256 65.3264 286.018 65.5022 285.75 65.6206C285.457 65.7471 285.141 65.8124 284.821 65.8124C284.501 65.8124 284.185 65.7471 283.892 65.6206C283.625 65.5001 283.388 65.3246 283.194 65.1058C282.999 64.8896 282.848 64.6381 282.749 64.3649C282.652 64.0841 282.602 63.7893 282.6 63.4924C282.603 63.1954 282.653 62.9008 282.749 62.6199C282.848 62.3467 282.999 62.0951 283.194 61.879C283.388 61.6601 283.625 61.4847 283.892 61.3641C284.185 61.2376 284.501 61.1723 284.821 61.1723C285.141 61.1723 285.457 61.2376 285.75 61.3641C286.018 61.4826 286.256 61.6583 286.448 61.879C286.643 62.0952 286.794 62.3467 286.893 62.6199C286.989 62.9009 287.039 63.1955 287.041 63.4924H287.042ZM294.519 60.7876H293.83V66.1971H294.38V61.5728L297.599 66.1971H298.288V60.7876H297.739V65.3683L294.519 60.7876ZM307.903 61.3111C307.717 61.0834 307.477 60.9063 307.205 60.7962C306.733 60.6302 306.221 60.6119 305.739 60.744C305.535 60.8031 305.343 60.8976 305.172 61.0231C305.004 61.153 304.87 61.3203 304.779 61.5117C304.674 61.7196 304.623 61.9507 304.631 62.1835C304.622 62.3987 304.661 62.6131 304.744 62.8117C304.818 62.9693 304.925 63.1091 305.058 63.2218C305.191 63.3351 305.341 63.4265 305.503 63.4924C305.671 63.5668 305.842 63.631 306.018 63.6844L306.524 63.8502C306.678 63.9059 306.827 63.976 306.969 64.0597C307.094 64.1413 307.201 64.2484 307.283 64.3739C307.356 64.5105 307.395 64.6628 307.396 64.8178C307.398 64.9727 307.362 65.1257 307.292 65.2638C307.223 65.3856 307.131 65.4925 307.021 65.578C306.909 65.6579 306.786 65.7197 306.655 65.7612C306.465 65.8225 306.265 65.844 306.067 65.8245C305.869 65.805 305.677 65.7449 305.503 65.6478C305.3 65.5357 305.129 65.3736 305.006 65.1767L304.517 65.5343C304.71 65.803 304.972 66.0141 305.276 66.1451C305.575 66.2704 305.895 66.3357 306.218 66.3371C306.436 66.3378 306.652 66.2994 306.855 66.2238C307.062 66.158 307.254 66.0545 307.422 65.9184C307.595 65.7875 307.738 65.6208 307.841 65.4298C307.947 65.225 308.001 64.9973 307.998 64.7668C308.013 64.4949 307.94 64.2255 307.789 63.999C307.654 63.8102 307.478 63.6549 307.274 63.5452C307.065 63.4262 306.842 63.3324 306.611 63.2661C306.382 63.2036 306.158 63.1279 305.939 63.0392C305.751 62.961 305.579 62.8486 305.433 62.7076C305.361 62.6308 305.305 62.5402 305.269 62.4412C305.233 62.3422 305.217 62.2369 305.223 62.1317C305.221 61.9808 305.254 61.8316 305.319 61.6955C305.384 61.5738 305.477 61.4691 305.59 61.3902C305.699 61.3081 305.824 61.2487 305.956 61.2157C306.093 61.1788 306.233 61.1586 306.375 61.1557C306.581 61.1441 306.786 61.1873 306.97 61.2807C307.154 61.3742 307.31 61.5147 307.422 61.6879L307.903 61.3111Z" fill="white"/>
<path fill-rule="evenodd" clip-rule="evenodd" d="M76.0859 48.2935C72.7227 50.6306 69.588 53.2802 66.7234 56.2071L62.2127 52.4204C62.0294 40.7812 65.3449 42.8227 67.2645 38.2509C65.3449 38.7743 63.6262 41.3569 62.3 42.6135C53.3489 36.0784 53.8453 36.6281 53.9762 31.2708C50.9313 33.1553 54.8487 33.8883 50.9487 37.3784C49.2128 38.7959 47.3884 40.1015 45.4867 41.2872C42.2845 39.1059 39.0649 36.6281 37.7127 33.5218L36.7354 31.5151C36.7354 34.8917 37.5382 34.2373 32.8965 37.7971C30.881 39.2629 29.0139 40.5629 27.2513 41.8804L23.5605 39.1842C24.433 44.5763 27.4782 39.6728 26.1779 51.4867C25.8988 54.0256 20.9429 58.4153 18.7355 59.793L12.3576 57.0796C15.263 45.5453 26.1259 30.6068 40.0249 28.4787C56.0102 26.0271 72.9448 37.3784 76.0859 48.2935ZM99.2422 69.478C103.701 68.6055 105.847 65.1154 98.0295 63.851C86.5995 61.9487 86.7915 57.6387 92.201 54.0963C97.4361 55.3267 107.391 52.1071 108.543 49.1754C111.579 30.9748 94.3561 25.1378 86.5995 29.7621C84.235 19.0128 77.4119 4.9131 69.1493 1.30081C69.1493 16.4128 81.2771 30.3817 83.6941 31.6292C80.396 35.5119 79.3315 41.061 80.37 43.696C54.6395 5.39209 12.3139 24.9277 7.73326 47.9359C7.39353 49.7325 7.29667 51.5666 7.4453 53.389C6.50054 52.9724 5.45801 52.8284 4.43568 52.9735C3.41335 53.1186 2.45203 53.5469 1.66053 54.2101C-0.669161 56.2955 -0.529388 60.2478 1.96591 63.0224C4.4612 65.797 8.37886 66.3465 10.6909 64.2613C10.9257 64.0502 11.1391 63.8163 11.3279 63.5633C9.23508 63.5873 7.15854 63.1928 5.22035 62.4028C3.47538 61.5304 10.5776 60.3873 12.1219 58.6073C12.3609 58.8503 12.6417 59.0483 12.9507 59.1919C26.3534 65.3511 42.4591 68.5096 58.3214 64.3398C63.4692 62.9874 67.3606 57.1329 73.6951 52.1247C76.016 50.3012 79.6805 47.387 84.0257 49.141C84.8982 49.4986 87.3761 51.9068 87.7862 52.405C89.2868 54.2111 89.0425 55.1446 88.4929 57.4313C82.333 59.5166 75.2482 61.4885 70.746 64.9524C71.2266 65.6505 72.6306 66.6974 73.3635 67.5698C73.6385 67.8442 73.8352 68.1869 73.9334 68.5627C74.0316 68.9385 74.0276 69.3337 73.922 69.7075L99.2248 69.5072L99.2422 69.478ZM11.3453 63.5625C12.257 63.5368 13.1514 63.3072 13.9628 62.8906C15.1931 64.5309 15.8387 65.2552 15.7951 66.6337C14.1762 65.8219 12.6785 64.7882 11.3453 63.5625ZM26.4485 69.6002C26.7801 68.9371 26.7016 68.0995 25.9162 67.035C40.7488 68.972 47.3712 69.1989 61.8025 66.904C63.4246 67.8464 63.1374 68.9283 63.1026 69.8008H30.5408C29.1888 69.8031 27.8375 69.7363 26.4923 69.6006L26.4485 69.6002ZM35.3918 64.0511C35.1387 60.945 29.3541 56.6783 26.9197 54.7065L20.0712 60.2556C24.9653 62.2534 30.1231 63.5319 35.3838 64.0511H35.3918ZM65.5806 57.4985C64.364 56.0546 63.0112 54.7312 61.541 53.5464C60.0752 54.1746 61.4799 53.4331 59.9879 54.4888C59.6389 54.7331 59.1154 55.2217 58.592 55.5882C53.6622 59.3312 52.3534 59.4708 52.2923 63.7898C60.4765 62.6381 61.541 61.2246 65.5806 57.4989V57.4985ZM36.7879 64.1384C41.0109 65.3337 51.0011 65.264 51.2717 63.6934C51.5248 62.2717 50.1723 58.7026 45.1641 55.771C42.5466 57.0274 37.2242 61.1545 36.8055 64.1472L36.7879 64.1384ZM60.9563 43.5208C58.6092 41.61 56.0092 38.9489 53.1038 37.6487C50.7829 39.0446 48.3579 40.9642 46.1934 42.4563C46.045 44.5589 45.6088 52.054 46.08 53.6332C46.5512 55.2123 50.7306 58.3098 52.0655 58.8682L56.4281 55.2822C57.798 54.2177 59.7872 52.4727 60.7907 51.5914L60.9827 43.5468L60.9563 43.5208ZM44.0733 54.6977C44.2217 51.774 44.9895 44.5329 43.8465 42.2556C43.4888 41.5315 38.306 36.9072 37.4247 36.3835C33.6292 38.3292 31.1169 41.7582 27.7311 43.2763L27.4868 53.7465C30.8023 55.8753 34.2051 59.5313 36.2643 60.6218C39.2918 58.9291 40.8013 56.5297 44.0739 54.7237L44.0733 54.6977ZM82.778 50.3961C83.0557 50.4031 83.3251 50.4923 83.5521 50.6523C83.7792 50.8124 83.9536 51.0362 84.0535 51.2954C84.1534 51.5546 84.1742 51.8376 84.1132 52.1087C84.0522 52.3797 83.9123 52.6266 83.7111 52.8181C83.5098 53.0096 83.2563 53.1371 82.9826 53.1845C82.7089 53.232 82.4273 53.1972 82.1733 53.0846C81.9194 52.972 81.7045 52.7866 81.5559 52.5519C81.4073 52.3172 81.3316 52.0437 81.3384 51.766C81.3429 51.5816 81.3838 51.3998 81.4586 51.2311C81.5334 51.0624 81.6407 50.9101 81.7744 50.7829C81.9081 50.6557 82.0655 50.5561 82.2377 50.4898C82.4099 50.4235 82.5935 50.3917 82.778 50.3963V50.3961ZM99.3557 34.5949C99.7892 34.5845 100.216 34.7036 100.582 34.9369C100.947 35.1701 101.235 35.5071 101.408 35.9046C101.581 36.3022 101.632 36.7423 101.554 37.1688C101.475 37.5954 101.272 37.9889 100.969 38.2992C100.666 38.6095 100.278 38.8225 99.8531 38.911C99.4286 38.9995 98.9874 38.9595 98.5858 38.796C98.1841 38.6326 97.8403 38.3531 97.5983 37.9934C97.3562 37.6336 97.2268 37.2099 97.2267 36.7762C97.2232 36.4932 97.2755 36.2123 97.3807 35.9495C97.4858 35.6866 97.6417 35.4471 97.8394 35.2446C98.0371 35.042 98.2728 34.8804 98.5329 34.7689C98.7931 34.6574 99.0727 34.5983 99.3557 34.5949ZM87.6895 26.7948C87.3404 25.6606 87.035 22.9559 85.9445 20.4778C86.548 16.63 83.3276 7.39017 88.5105 0C94.3649 11.6392 88.4492 25.7477 87.6895 26.7948Z" fill="white"/>
</svg>
