<svg xmlns="http://www.w3.org/2000/svg" width="60" height="60" viewBox="0 0 60 60">
  <g id="Group_14035" data-name="Group 14035" transform="translate(-9433 1856)">
    <circle id="Ellipse_474" data-name="Ellipse 474" cx="30" cy="30" r="30" transform="translate(9433 -1856)" fill="#fff"/>
    <g id="user-3296" transform="translate(9433 -1856)">
      <path id="Path_5337" data-name="Path 5337" d="M30,0A30,30,0,1,0,60,30,30,30,0,0,0,30,0Zm0,14.671a10.76,10.76,0,1,1-10.76,10.76A10.773,10.773,0,0,1,30,14.671ZM30,55.9A24.8,24.8,0,0,1,11.362,47.48a21.5,21.5,0,0,1,9.367-8.894,4.912,4.912,0,0,1,4.29.027,11.541,11.541,0,0,0,9.964,0,4.909,4.909,0,0,1,4.29-.027,21.5,21.5,0,0,1,9.366,8.894A24.8,24.8,0,0,1,30,55.9Z" fill="#b9c4e1"/>
    </g>
  </g>
</svg>
