<svg width="64" height="64" viewBox="0 0 64 64" fill="none" xmlns="http://www.w3.org/2000/svg">
<path d="M27.1448 20.2484L32.0003 17.6957L36.8559 20.2484C37.1077 20.3808 37.3915 20.4401 37.6753 20.4196C37.9591 20.3991 38.2315 20.2996 38.4617 20.1324C38.6919 19.9652 38.8707 19.7369 38.9779 19.4733C39.0851 19.2098 39.1165 18.9215 39.0684 18.6411L38.1408 13.2342L42.0692 9.40511C42.273 9.20652 42.4171 8.95488 42.4852 8.67866C42.5534 8.40244 42.543 8.11266 42.4551 7.84207C42.3671 7.57148 42.2053 7.33089 41.9878 7.14749C41.7703 6.96409 41.5058 6.84521 41.2242 6.80428L35.7955 6.01544L33.3677 1.09649C33.2418 0.841338 33.047 0.626506 32.8053 0.476288C32.5637 0.32607 32.2848 0.24646 32.0003 0.24646C31.7158 0.24646 31.4369 0.32607 31.1953 0.476288C30.9536 0.626506 30.7588 0.841338 30.6329 1.09649L28.2052 6.01544L22.7764 6.80428C22.4949 6.84521 22.2304 6.96409 22.0129 7.14749C21.7953 7.33089 21.6335 7.57148 21.5456 7.84207C21.4577 8.11266 21.4472 8.40244 21.5154 8.67866C21.5836 8.95488 21.7277 9.20652 21.9314 9.40511L25.8596 13.2342L24.932 18.6411C24.8839 18.9215 24.9153 19.2098 25.0225 19.4733C25.1297 19.7369 25.3085 19.9652 25.5387 20.1324C25.7689 20.2996 26.0413 20.3991 26.3251 20.4196C26.6088 20.4401 26.8927 20.3808 27.1445 20.2484H27.1448Z" fill="#55B8FF"/>
<path d="M63.3901 22.8876L59.0013 19.5965L59.2243 14.1152C59.2359 13.8308 59.1677 13.5489 59.0274 13.3013C58.8871 13.0537 58.6803 12.8503 58.4304 12.7141C58.1805 12.5779 57.8975 12.5144 57.6134 12.5307C57.3292 12.547 57.0553 12.6425 56.8227 12.8064L52.3369 15.9634L47.1928 14.0574C46.926 13.9585 46.6369 13.9363 46.3581 13.9932C46.0794 14.0501 45.8221 14.1839 45.6154 14.3794C45.4087 14.5749 45.2608 14.8243 45.1885 15.0994C45.1161 15.3745 45.1221 15.6644 45.2059 15.9363L46.8221 21.1787L43.42 25.4821C43.2435 25.7053 43.133 25.9734 43.101 26.2561C43.069 26.5388 43.1167 26.8249 43.2387 27.0819C43.3608 27.3389 43.5523 27.5566 43.7916 27.7105C44.031 27.8643 44.3086 27.9481 44.5931 27.9524L50.0781 28.0351L53.1196 32.6007C53.2588 32.8097 53.4475 32.981 53.6688 33.0995C53.8901 33.218 54.1372 33.2801 54.3883 33.2801C54.4541 33.2801 54.5198 33.2758 54.585 33.2674C54.8672 33.2308 55.1335 33.1159 55.3537 32.9358C55.574 32.7557 55.7395 32.5176 55.8315 32.2484L57.6053 27.0572L62.8871 25.5755C63.1611 25.4986 63.408 25.3467 63.6001 25.1368C63.7922 24.9269 63.9217 24.6674 63.974 24.3878C64.0264 24.1081 63.9994 23.8194 63.8962 23.5543C63.793 23.2892 63.6177 23.0583 63.3901 22.8876Z" fill="#55B8FF"/>
<path d="M19.4067 27.9526C19.6912 27.9483 19.9688 27.8644 20.2081 27.7106C20.4475 27.5568 20.639 27.339 20.7611 27.082C20.8831 26.825 20.9308 26.5389 20.8988 26.2562C20.8668 25.9735 20.7563 25.7054 20.5798 25.4822L17.1777 21.1788L18.7938 15.9365C18.8777 15.6646 18.8837 15.3746 18.8114 15.0995C18.7391 14.8243 18.5912 14.5749 18.3845 14.3794C18.1777 14.1839 17.9205 14.0501 17.6417 13.9932C17.3629 13.9363 17.0738 13.9585 16.807 14.0574L11.6629 15.9634L7.17737 12.8064C6.9447 12.6425 6.67081 12.547 6.38669 12.5307C6.10257 12.5144 5.81955 12.5779 5.56966 12.7141C5.31977 12.8503 5.11298 13.0537 4.97268 13.3013C4.83238 13.5489 4.76417 13.8308 4.77577 14.1152L4.99878 19.5965L0.609959 22.8876C0.382348 23.0583 0.207034 23.2893 0.103839 23.5544C0.000644461 23.8195 -0.0263147 24.1083 0.02601 24.3879C0.0783347 24.6676 0.207856 24.927 0.399929 25.1369C0.592003 25.3468 0.838966 25.4988 1.1129 25.5756L6.39475 27.0574L8.16825 32.2485C8.26025 32.5177 8.42574 32.7558 8.64601 32.9359C8.86628 33.116 9.13254 33.2309 9.41468 33.2675C9.69683 33.3042 9.9836 33.2612 10.2426 33.1434C10.5016 33.0255 10.7224 32.8376 10.8801 32.6008L13.9217 28.0353L19.4067 27.9526Z" fill="#55B8FF"/>
<path d="M50.8061 43.9311C51.4823 43.931 52.1393 43.7064 52.6739 43.2924C53.2085 42.8784 53.5904 42.2985 53.7597 41.6438C53.5904 40.9892 53.2085 40.4093 52.6739 39.9953C52.1393 39.5813 51.4823 39.3567 50.8061 39.3566H39.6241V32.3678C39.6241 30.4667 39.6241 26.6763 34.6364 26.1923C34.4954 26.1791 34.3532 26.1954 34.219 26.2403C34.0847 26.2852 33.9613 26.3577 33.8566 26.4531C33.752 26.5484 33.6684 26.6646 33.6112 26.7941C33.5541 26.9237 33.5247 27.0637 33.5248 27.2053V34.1133C33.5247 34.3014 33.4725 34.4857 33.3739 34.6459L30.4751 39.3566H30.6022L26.4089 42.0951V61.6836C27.0266 62.0416 27.7281 62.2297 28.442 62.2289H48.773C49.4492 62.2289 50.1062 62.0042 50.6408 61.5902C51.1754 61.1762 51.5573 60.5964 51.7266 59.9417C51.5573 59.2871 51.1754 58.7072 50.6408 58.2932C50.1062 57.8792 49.4492 57.6545 48.773 57.6545H45.7234V56.1297H49.7896C50.4657 56.1296 51.1227 55.9049 51.6573 55.4909C52.1919 55.0769 52.5739 54.4971 52.7431 53.8424C52.5739 53.1878 52.1919 52.6079 51.6573 52.1939C51.1227 51.7799 50.4657 51.5552 49.7896 51.5552H45.7234V50.0304H50.8061C51.4823 50.0303 52.1393 49.8057 52.6739 49.3917C53.2085 48.9777 53.5904 48.3978 53.7597 47.7431C53.5904 47.0885 53.2085 46.5086 52.6739 46.0946C52.1393 45.6806 51.4823 45.4559 50.8061 45.4559H45.7234V43.9311H50.8061Z" fill="#55B8FF"/>
<path d="M23.36 39.3563H13.1945C12.7901 39.3563 12.4022 39.517 12.1163 39.8029C11.8303 40.0889 11.6697 40.4767 11.6697 40.8811V62.2286C11.6697 62.633 11.8303 63.0209 12.1163 63.3069C12.4022 63.5928 12.7901 63.7535 13.1945 63.7535H23.36C23.7644 63.7535 24.1522 63.5928 24.4382 63.3069C24.7242 63.0209 24.8848 62.633 24.8848 62.2286V40.8811C24.8848 40.4767 24.7242 40.0889 24.4382 39.8029C24.1522 39.517 23.7644 39.3563 23.36 39.3563ZM18.2772 61.3392C17.9757 61.3392 17.6809 61.2497 17.4301 61.0822C17.1793 60.9146 16.9839 60.6765 16.8685 60.3979C16.7531 60.1192 16.7229 59.8126 16.7817 59.5169C16.8406 59.2211 16.9858 58.9494 17.199 58.7361C17.4123 58.5229 17.684 58.3777 17.9798 58.3188C18.2756 58.26 18.5821 58.2902 18.8608 58.4056C19.1394 58.521 19.3775 58.7164 19.5451 58.9672C19.7126 59.2179 19.8021 59.5128 19.8021 59.8143C19.8021 60.2187 19.6414 60.6066 19.3555 60.8926C19.0695 61.1785 18.6817 61.3392 18.2772 61.3392Z" fill="#55B8FF"/>
</svg>
