<svg width="512" height="512" viewBox="0 0 512 512" fill="none" xmlns="http://www.w3.org/2000/svg">
<path d="M413.149 39.4295H394.051V20.1051C394.051 9.06403 385.101 0.114014 374.06 0.114014C363.019 0.114014 354.069 9.06403 354.069 20.1051V39.4295H157.93V20.1051C157.93 9.06403 148.98 0.114014 137.939 0.114014C126.897 0.114014 117.947 9.06403 117.947 20.1051V39.4295H98.851C44.3442 39.4295 0 83.7738 0 138.279V413.035C0 467.542 44.3442 511.886 98.851 511.886H413.15C467.656 511.886 512 467.542 512 413.035V138.279C512 83.7738 467.656 39.4295 413.149 39.4295ZM98.851 79.4117H117.947V118.394C117.947 129.435 126.897 138.385 137.939 138.385C148.98 138.385 157.93 129.435 157.93 118.394V79.4117H354.07V118.394C354.07 129.435 363.02 138.385 374.061 138.385C385.102 138.385 394.052 129.435 394.052 118.394V79.4117H413.15C445.61 79.4117 472.018 105.82 472.018 138.279V157.377H39.9822V138.279C39.9822 105.82 66.3904 79.4117 98.851 79.4117ZM413.149 471.904H98.851C66.3904 471.904 39.9822 445.496 39.9822 413.035V197.359H472.018V413.035C472.018 445.496 445.61 471.904 413.149 471.904ZM177.588 275.991C177.588 287.032 168.638 295.982 157.597 295.982H118.281C107.24 295.982 98.2902 287.032 98.2902 275.991C98.2902 264.95 107.24 256 118.281 256H157.597C168.637 256 177.588 264.95 177.588 275.991ZM413.711 275.991C413.711 287.032 404.761 295.982 393.72 295.982H354.404C343.363 295.982 334.413 287.032 334.413 275.991C334.413 264.95 343.363 256 354.404 256H393.72C404.76 256 413.711 264.95 413.711 275.991ZM295.535 275.991C295.535 287.032 286.585 295.982 275.544 295.982H236.229C225.188 295.982 216.238 287.032 216.238 275.991C216.238 264.95 225.188 256 236.229 256H275.544C286.584 256 295.535 264.95 295.535 275.991ZM177.588 393.939C177.588 404.98 168.638 413.93 157.597 413.93H118.281C107.24 413.93 98.2902 404.98 98.2902 393.939C98.2902 382.898 107.24 373.948 118.281 373.948H157.597C168.637 373.948 177.588 382.898 177.588 393.939ZM413.711 393.939C413.711 404.98 404.761 413.93 393.72 413.93H354.404C343.363 413.93 334.413 404.98 334.413 393.939C334.413 382.898 343.363 373.948 354.404 373.948H393.72C404.76 373.948 413.711 382.898 413.711 393.939ZM295.535 393.939C295.535 404.98 286.585 413.93 275.544 413.93H236.229C225.188 413.93 216.238 404.98 216.238 393.939C216.238 382.898 225.188 373.948 236.229 373.948H275.544C286.584 373.948 295.535 382.898 295.535 393.939Z" fill="#C22457"/>
</svg>
