<svg id="Group_11615" data-name="Group 11615" xmlns="http://www.w3.org/2000/svg" width="46" height="37" viewBox="0 0 46 37">
  <path id="Rectangle_5530" data-name="Rectangle 5530" d="M0,0H41.375A4.625,4.625,0,0,1,46,4.625V37a0,0,0,0,1,0,0H37A37,37,0,0,1,0,0V0A0,0,0,0,1,0,0Z" fill="#fbe5ec"/>
  <g id="Group_8587" data-name="Group 8587" transform="translate(17.042 6)">
    <path id="Path_1857" data-name="Path 1857" d="M10.992,9.9l8.579-8.579A.773.773,0,0,0,18.477.227L9.9,8.806,1.32.227A.773.773,0,0,0,.226,1.321L8.8,9.9.226,18.478A.773.773,0,0,0,1.32,19.572L9.9,10.993l8.579,8.579a.773.773,0,1,0,1.094-1.094Z" transform="translate(0 -0.001)" fill="#d7004b"/>
  </g>
</svg>
