<svg width="130" height="114" viewBox="0 0 130 114" fill="none" xmlns="http://www.w3.org/2000/svg">
<ellipse cx="2.55856" cy="36.3129" rx="2.0923" ry="2.0923" transform="rotate(-14.8371 2.55856 36.3129)" fill="#44B3E3"/>
<ellipse cx="7.38059" cy="54.5161" rx="2.0923" ry="2.0923" transform="rotate(-14.8371 7.38059 54.5161)" fill="#44B3E3"/>
<ellipse cx="12.2029" cy="72.7184" rx="2.0923" ry="2.0923" transform="rotate(-14.8371 12.2029 72.7184)" fill="#44B3E3"/>
<ellipse cx="17.0249" cy="90.9218" rx="2.0923" ry="2.0923" transform="rotate(-14.8371 17.0249 90.9218)" fill="#44B3E3"/>
<ellipse cx="21.8464" cy="109.125" rx="2.0923" ry="2.0923" transform="rotate(-14.8371 21.8464 109.125)" fill="#44B3E3"/>
<ellipse cx="16.7168" cy="32.5621" rx="2.0923" ry="2.0923" transform="rotate(-14.8371 16.7168 32.5621)" fill="#44B3E3"/>
<ellipse cx="21.5388" cy="50.7651" rx="2.0923" ry="2.0923" transform="rotate(-14.8371 21.5388 50.7651)" fill="#44B3E3"/>
<ellipse cx="26.3603" cy="68.9684" rx="2.0923" ry="2.0923" transform="rotate(-14.8371 26.3603 68.9684)" fill="#44B3E3"/>
<ellipse cx="31.1828" cy="87.1707" rx="2.0923" ry="2.0923" transform="rotate(-14.8371 31.1828 87.1707)" fill="#44B3E3"/>
<ellipse cx="36.0046" cy="105.373" rx="2.0923" ry="2.0923" transform="rotate(-14.8371 36.0046 105.373)" fill="#44B3E3"/>
<ellipse cx="30.8742" cy="28.8122" rx="2.0923" ry="2.0923" transform="rotate(-14.8371 30.8742 28.8122)" fill="#44B3E3"/>
<ellipse cx="35.696" cy="47.0152" rx="2.0923" ry="2.0923" transform="rotate(-14.8371 35.696 47.0152)" fill="#44B3E3"/>
<ellipse cx="40.5183" cy="65.218" rx="2.0923" ry="2.0923" transform="rotate(-14.8371 40.5183 65.218)" fill="#44B3E3"/>
<ellipse cx="45.3401" cy="83.421" rx="2.0923" ry="2.0923" transform="rotate(-14.8371 45.3401 83.421)" fill="#44B3E3"/>
<ellipse cx="50.1626" cy="101.623" rx="2.0923" ry="2.0923" transform="rotate(-14.8371 50.1626 101.623)" fill="#44B3E3"/>
<ellipse cx="45.0324" cy="25.0613" rx="2.0923" ry="2.0923" transform="rotate(-14.8371 45.0324 25.0613)" fill="#44B3E3"/>
<ellipse cx="49.8542" cy="43.2639" rx="2.0923" ry="2.0923" transform="rotate(-14.8371 49.8542 43.2639)" fill="#44B3E3"/>
<ellipse cx="54.6758" cy="61.4676" rx="2.0923" ry="2.0923" transform="rotate(-14.8371 54.6758 61.4676)" fill="#44B3E3"/>
<ellipse cx="59.4983" cy="79.6697" rx="2.0923" ry="2.0923" transform="rotate(-14.8371 59.4983 79.6697)" fill="#44B3E3"/>
<ellipse cx="64.3203" cy="97.8729" rx="2.0923" ry="2.0923" transform="rotate(-14.8371 64.3203 97.8729)" fill="#44B3E3"/>
<ellipse cx="69.1418" cy="116.076" rx="2.0923" ry="2.0923" transform="rotate(-14.8371 69.1418 116.076)" fill="#44B3E3"/>
<ellipse cx="59.1897" cy="21.3113" rx="2.0923" ry="2.0923" transform="rotate(-14.8371 59.1897 21.3113)" fill="#44B3E3"/>
<ellipse cx="64.0117" cy="39.5145" rx="2.0923" ry="2.0923" transform="rotate(-14.8371 64.0117 39.5145)" fill="#44B3E3"/>
<ellipse cx="68.834" cy="57.7166" rx="2.0923" ry="2.0923" transform="rotate(-14.8371 68.834 57.7166)" fill="#44B3E3"/>
<ellipse cx="73.6557" cy="75.92" rx="2.0923" ry="2.0923" transform="rotate(-14.8371 73.6557 75.92)" fill="#44B3E3"/>
<ellipse cx="78.4775" cy="94.1226" rx="2.0923" ry="2.0923" transform="rotate(-14.8371 78.4775 94.1226)" fill="#44B3E3"/>
<ellipse cx="83.3003" cy="112.325" rx="2.0923" ry="2.0923" transform="rotate(-14.8371 83.3003 112.325)" fill="#44B3E3"/>
<ellipse cx="73.3476" cy="17.5604" rx="2.0923" ry="2.0923" transform="rotate(-14.8371 73.3476 17.5604)" fill="#44B3E3"/>
<ellipse cx="78.1699" cy="35.7632" rx="2.0923" ry="2.0923" transform="rotate(-14.8371 78.1699 35.7632)" fill="#44B3E3"/>
<ellipse cx="82.9917" cy="53.966" rx="2.0923" ry="2.0923" transform="rotate(-14.8371 82.9917 53.966)" fill="#44B3E3"/>
<ellipse cx="87.8137" cy="72.1694" rx="2.0923" ry="2.0923" transform="rotate(-14.8371 87.8137 72.1694)" fill="#44B3E3"/>
<ellipse cx="92.6357" cy="90.3718" rx="2.0923" ry="2.0923" transform="rotate(-14.8371 92.6357 90.3718)" fill="#44B3E3"/>
<ellipse cx="97.4577" cy="108.575" rx="2.0923" ry="2.0923" transform="rotate(-14.8371 97.4577 108.575)" fill="#44B3E3"/>
<ellipse cx="87.5051" cy="13.8106" rx="2.0923" ry="2.0923" transform="rotate(-14.8371 87.5051 13.8106)" fill="#44B3E3"/>
<ellipse cx="92.3271" cy="32.0131" rx="2.0923" ry="2.0923" transform="rotate(-14.8371 92.3271 32.0131)" fill="#44B3E3"/>
<ellipse cx="97.1496" cy="50.2159" rx="2.0923" ry="2.0923" transform="rotate(-14.8371 97.1496 50.2159)" fill="#44B3E3"/>
<ellipse cx="101.971" cy="68.4191" rx="2.0923" ry="2.0923" transform="rotate(-14.8371 101.971 68.4191)" fill="#44B3E3"/>
<ellipse cx="106.793" cy="86.622" rx="2.0923" ry="2.0923" transform="rotate(-14.8371 106.793 86.622)" fill="#44B3E3"/>
<ellipse cx="111.615" cy="104.824" rx="2.0923" ry="2.0923" transform="rotate(-14.8371 111.615 104.824)" fill="#44B3E3"/>
<ellipse cx="101.663" cy="10.0596" rx="2.0923" ry="2.0923" transform="rotate(-14.8371 101.663 10.0596)" fill="#44B3E3"/>
<ellipse cx="106.485" cy="28.2624" rx="2.0923" ry="2.0923" transform="rotate(-14.8371 106.485 28.2624)" fill="#44B3E3"/>
<ellipse cx="111.307" cy="46.4655" rx="2.0923" ry="2.0923" transform="rotate(-14.8371 111.307 46.4655)" fill="#44B3E3"/>
<ellipse cx="116.129" cy="64.6679" rx="2.0923" ry="2.0923" transform="rotate(-14.8371 116.129 64.6679)" fill="#44B3E3"/>
<ellipse cx="120.951" cy="82.871" rx="2.0923" ry="2.0923" transform="rotate(-14.8371 120.951 82.871)" fill="#44B3E3"/>
<ellipse cx="125.773" cy="101.074" rx="2.0923" ry="2.0923" transform="rotate(-14.8371 125.773 101.074)" fill="#44B3E3"/>
<ellipse cx="115.821" cy="6.30939" rx="2.0923" ry="2.0923" transform="rotate(-14.8371 115.821 6.30939)" fill="#44B3E3"/>
<ellipse cx="120.643" cy="24.5126" rx="2.0923" ry="2.0923" transform="rotate(-14.8371 120.643 24.5126)" fill="#44B3E3"/>
<ellipse cx="125.465" cy="42.7152" rx="2.0923" ry="2.0923" transform="rotate(-14.8371 125.465 42.7152)" fill="#44B3E3"/>
<ellipse cx="130.287" cy="60.9182" rx="2.0923" ry="2.0923" transform="rotate(-14.8371 130.287 60.9182)" fill="#44B3E3"/>
<ellipse cx="129.979" cy="2.55854" rx="2.0923" ry="2.0923" transform="rotate(-14.8371 129.979 2.55854)" fill="#44B3E3"/>
</svg>
