<svg width="27" height="31" viewBox="0 0 27 31" fill="none" xmlns="http://www.w3.org/2000/svg">
<path fill-rule="evenodd" clip-rule="evenodd" d="M10.0107 16.2922C9.64177 16.2922 9.34363 15.9364 9.34363 15.5C9.34363 15.061 9.64177 14.7078 10.0107 14.7078H18.8262C19.1951 14.7078 19.4933 15.0636 19.4933 15.5C19.4933 15.939 19.1951 16.2922 18.8262 16.2922H10.0107ZM11.8172 29.4106C12.2569 29.4106 12.6131 29.7664 12.6131 30.2053C12.6131 30.6443 12.2569 31 11.8172 31H1.85205C1.34166 31 0.879281 30.7931 0.543234 30.4576C0.207187 30.1221 0 29.6604 0 29.1508V1.8492C0 1.3396 0.207187 0.87793 0.543234 0.542399C0.879281 0.206868 1.34166 0 1.85205 0H24.5971C25.1075 0 25.5699 0.209391 25.906 0.542399C26.242 0.87793 26.4492 1.3396 26.4492 1.8492V14.4985C26.4492 14.9374 26.0929 15.2931 25.6533 15.2931C25.2136 15.2931 24.8574 14.9374 24.8574 14.4985V1.8492C24.8574 1.77856 24.8271 1.71297 24.7791 1.66756C24.731 1.61963 24.6679 1.58936 24.5971 1.58936H1.85205C1.7813 1.58936 1.71561 1.61963 1.6676 1.66504C1.62212 1.71549 1.5918 1.77856 1.5918 1.8492V29.1483C1.5918 29.2189 1.62212 29.2845 1.6676 29.3299C1.71561 29.3779 1.7813 29.4081 1.85205 29.4081H11.8172V29.4106ZM24.9382 18.7544C24.8094 18.6308 24.6603 18.5728 24.4885 18.5753C24.3167 18.5778 24.1701 18.6434 24.0488 18.7721L23.0609 19.7988L25.8327 22.4705L26.8307 21.4336C26.9495 21.3125 27 21.1561 26.9975 20.9845C26.9949 20.8155 26.9343 20.6616 26.813 20.5456L24.9382 18.7544ZM19.7611 28.7623C19.3947 28.8783 19.0309 28.9994 18.667 29.118C18.3007 29.2391 17.9368 29.3627 17.573 29.4838C16.7114 29.7664 16.2288 29.9228 16.1277 29.9505C16.0292 29.9808 16.0873 29.5772 16.3046 28.7371L16.9893 26.1007L22.1816 20.707L24.9509 23.3686L19.7611 28.7623ZM10.0107 21.9356C9.64177 21.9356 9.3411 21.5749 9.3411 21.1309C9.3411 20.6869 9.64177 20.3261 10.0107 20.3261H14.354C14.7229 20.3261 15.0236 20.6869 15.0236 21.1309C15.0236 21.5749 14.7229 21.9356 14.354 21.9356H10.0107ZM10.0107 10.6613C9.64177 10.6613 9.34363 10.3056 9.34363 9.86914C9.34363 9.43018 9.64177 9.07699 10.0107 9.07699H18.8262C19.1951 9.07699 19.4933 9.4327 19.4933 9.86914C19.4933 10.3081 19.1951 10.6613 18.8262 10.6613H10.0107ZM6.18529 20.0461C6.70578 20.0461 7.12521 20.4674 7.12521 20.9845C7.12521 21.5042 6.70326 21.923 6.18529 21.923C5.66479 21.923 5.24537 21.5017 5.24537 20.9845C5.24537 20.4674 5.66732 20.0461 6.18529 20.0461ZM6.18529 14.4909C6.70578 14.4909 7.12521 14.9122 7.12521 15.4294C7.12521 15.9491 6.70326 16.3678 6.18529 16.3678C5.66479 16.3678 5.24537 15.9465 5.24537 15.4294C5.24537 14.9122 5.66732 14.4909 6.18529 14.4909ZM6.18529 8.93571C6.70578 8.93571 7.12521 9.35702 7.12521 9.87419C7.12521 10.3939 6.70326 10.8127 6.18529 10.8127C5.66479 10.8127 5.24537 10.3914 5.24537 9.87419C5.24537 9.35449 5.66732 8.93571 6.18529 8.93571Z" fill="white"/>
</svg>
