<svg xmlns="http://www.w3.org/2000/svg" width="31.182" height="30.773" viewBox="0 0 31.182 30.773">
  <g id="Customer_Satisfaction_Survey" data-name="Customer Satisfaction Survey" transform="translate(-13063 -9009)">
    <path id="memo" d="M11.736,0H6.36A3.144,3.144,0,0,0,3,2.858v8a3.144,3.144,0,0,0,3.36,2.858h5.376a3.144,3.144,0,0,0,3.36-2.858v-8A3.144,3.144,0,0,0,11.736,0Zm2.016,10.862a1.886,1.886,0,0,1-2.016,1.715H6.36a1.886,1.886,0,0,1-2.016-1.715v-8A1.886,1.886,0,0,1,6.36,1.143h5.376a1.886,1.886,0,0,1,2.016,1.715ZM12.409,6.289a.627.627,0,0,1-.672.572H6.36a.627.627,0,0,1-.672-.572.627.627,0,0,1,.672-.572h5.376A.627.627,0,0,1,12.409,6.289ZM9.72,9.147a.627.627,0,0,1-.672.572H6.36a.627.627,0,0,1-.672-.572.627.627,0,0,1,.672-.572H9.048A.627.627,0,0,1,9.72,9.147Z" transform="translate(13079.085 9026.053)" fill="#3949ab"/>
    <g id="user_1_" data-name="user (1)" transform="translate(13060 9009)">
      <path id="Path_254350" data-name="Path 254350" d="M12,12A6,6,0,1,0,6,6a6,6,0,0,0,6,6ZM12,2A4,4,0,1,1,8,6a4,4,0,0,1,4-4Z" transform="translate(0)" fill="#3949ab"/>
      <path id="Path_254351" data-name="Path 254351" d="M12,14a9.01,9.01,0,0,0-9,9,1,1,0,1,0,2,0,7,7,0,0,1,14,0,1,1,0,0,0,2,0A9.01,9.01,0,0,0,12,14Z" transform="translate(0 -0.001)" fill="#3949ab"/>
    </g>
  </g>
</svg>
