<svg width="32" height="24" viewBox="0 0 32 24" fill="none" xmlns="http://www.w3.org/2000/svg">
<path d="M28.0352 11.3638H27.94C28.8178 10.4581 29.2766 9.07639 29.2766 7.74395C29.2766 7.26849 29.1801 6.7977 28.9925 6.35843C28.8048 5.91917 28.5298 5.52005 28.1832 5.18385C27.8365 4.84766 27.4249 4.58097 26.972 4.39903C26.519 4.21708 26.0336 4.12343 25.5433 4.12343C25.053 4.12343 24.5676 4.21708 24.1146 4.39903C23.6617 4.58097 23.2501 4.84766 22.9034 5.18385C22.5568 5.52005 22.2818 5.91917 22.0942 6.35843C21.9065 6.7977 21.81 7.26849 21.81 7.74395C21.81 8.78355 22.1229 9.8964 22.6468 10.7208C22.7922 10.9506 22.9605 11.1659 23.1492 11.3638H23.0519C22.1757 11.3617 21.3218 11.6308 20.6143 12.1319C20.2904 12.0788 19.9626 12.052 19.6342 12.0516H18.537C19.1938 11.4668 19.7433 10.6504 20.1268 9.65318C21.0091 9.32165 21.5177 8.12637 21.6047 7.27781C21.6893 6.45256 21.4006 5.8577 20.8334 5.68702L20.8202 5.68319C21.3683 3.00235 20.8023 2.12978 19.5765 1.59494C18.6186 0.608847 17.2586 0 16 0C14.5409 0 12.9852 0.801877 12.0366 2.04294C11.2356 3.09098 10.937 4.36384 11.1687 5.68657C10.5996 5.85751 10.3102 6.45199 10.3945 7.27654C10.4812 8.12471 10.9892 9.31986 11.8715 9.6519C12.2559 10.6494 12.8061 11.466 13.4634 12.051H12.366C12.037 12.0513 11.7086 12.0782 11.3843 12.1315C10.6768 11.6302 9.82273 11.361 8.9465 11.3631H8.85077C9.03955 11.1653 9.20782 10.9499 9.35315 10.7202C9.87714 9.89576 10.19 8.78298 10.19 7.74331C10.192 7.26645 10.097 6.7939 9.91022 6.35277C9.72348 5.91163 9.44874 5.51061 9.10177 5.17271C8.75481 4.83482 8.34244 4.5667 7.88835 4.38375C7.43426 4.2008 6.94739 4.10663 6.45567 4.10663C5.96395 4.10663 5.47708 4.2008 5.02299 4.38375C4.5689 4.5667 4.15653 4.83482 3.80957 5.17271C3.4626 5.51061 3.18787 5.91163 3.00112 6.35277C2.81438 6.7939 2.71932 7.26645 2.72138 7.74331C2.72138 9.07575 3.18058 10.4575 4.0588 11.3631H3.96484C1.77883 11.3631 0 12.9816 0 14.9709V19.1975C0 19.333 0.0554966 19.4629 0.154281 19.5587C0.253066 19.6545 0.387046 19.7083 0.526749 19.7083H6.82206V23.4892C6.82206 23.6247 6.87755 23.7546 6.97634 23.8504C7.07512 23.9462 7.2091 24 7.34881 24H24.6493C24.7891 24 24.923 23.9462 25.0218 23.8504C25.1206 23.7546 25.1761 23.6247 25.1761 23.4892V19.7091H31.4733C31.613 19.7091 31.7469 19.6553 31.8457 19.5595C31.9445 19.4637 32 19.3337 32 19.1983V14.9716C32 12.9823 30.2214 11.3638 28.0352 11.3638ZM23.5436 10.1847C23.1178 9.51468 22.8635 8.60227 22.8635 7.74395C22.8635 7.05469 23.1458 6.39366 23.6484 5.90628C24.1509 5.4189 24.8326 5.14509 25.5433 5.14509C26.254 5.14509 26.9357 5.4189 27.4382 5.90628C27.9408 6.39366 28.2231 7.05469 28.2231 7.74395C28.2231 9.14343 27.4956 11.3638 25.5433 11.3638C24.7137 11.3638 24.041 10.967 23.5436 10.1847ZM16.4815 13.0731C16.5125 13.0714 16.5434 13.0774 16.5713 13.0906C16.5992 13.1038 16.6232 13.1238 16.6408 13.1485C16.6866 13.3244 16.6926 13.5078 16.6584 13.6861C16.6071 13.7963 16.5225 13.8888 16.4159 13.9516C16.3238 14.0021 16.2495 14.0785 16.2028 14.1706C16.156 14.2627 16.139 14.3664 16.1539 14.468L17.1962 21.575L16 22.7598L14.8036 21.5748L15.8459 14.4679C15.8608 14.3662 15.8437 14.2626 15.797 14.1705C15.7502 14.0783 15.6759 14.002 15.5838 13.9514C15.4773 13.8888 15.3928 13.7963 15.3416 13.6861C15.307 13.5084 15.3128 13.3255 15.3585 13.1501C15.3759 13.1248 15.3999 13.1044 15.428 13.0909C15.4562 13.0775 15.4874 13.0714 15.5187 13.0734L16.4815 13.0731ZM12.7737 9.06419C12.7415 8.97113 12.6824 8.88902 12.6034 8.82768C12.5244 8.76634 12.4289 8.72836 12.3282 8.71829C12.132 8.69869 11.822 8.39321 11.6093 7.84739C11.3629 7.2146 11.425 6.75606 11.4946 6.65869C11.5103 6.65494 11.5266 6.65396 11.5426 6.65581C11.6325 6.71633 11.7396 6.7482 11.849 6.74699C11.9585 6.74578 12.0648 6.71156 12.1532 6.64907C12.2417 6.58658 12.3079 6.49893 12.3426 6.3983C12.3773 6.29766 12.3788 6.18904 12.347 6.08751C11.8445 4.48414 12.361 3.33388 12.8827 2.65128C13.628 1.67655 14.8807 1.02166 16 1.02166C16.9892 1.02166 18.1169 1.54788 18.873 2.36259C18.9248 2.41834 18.9886 2.46234 19.0599 2.49145C19.7474 2.77241 20.3965 3.03804 19.6441 6.11874C19.6196 6.2192 19.627 6.32451 19.6654 6.4208C19.7038 6.51709 19.7714 6.59984 19.8593 6.65813C19.9471 6.71642 20.0512 6.74752 20.1576 6.74734C20.2641 6.74715 20.368 6.71569 20.4556 6.65709C20.4719 6.65453 20.4886 6.65518 20.5046 6.659C20.5746 6.7576 20.6359 7.2176 20.3884 7.85116C20.1786 8.38823 19.8745 8.6916 19.6787 8.71778C19.5762 8.7263 19.4786 8.76371 19.3978 8.8254C19.317 8.88709 19.2566 8.97037 19.224 9.06496C18.5992 10.8792 17.3337 12.0515 16 12.0515C14.6663 12.0515 13.4006 10.879 12.7737 9.06419ZM3.77488 7.74395C3.77313 7.40145 3.84118 7.062 3.97512 6.74509C4.10906 6.42818 4.30624 6.14006 4.55535 5.89728C4.80446 5.6545 5.10058 5.46184 5.4267 5.33038C5.75281 5.19892 6.1025 5.13125 6.45567 5.13125C6.80884 5.13125 7.15853 5.19892 7.48465 5.33038C7.81076 5.46184 8.10688 5.6545 8.35599 5.89728C8.6051 6.14006 8.80229 6.42818 8.93622 6.74509C9.07016 7.062 9.13821 7.40145 9.13646 7.74395C9.13646 8.60227 8.88217 9.51468 8.45636 10.1847C7.95905 10.967 7.28625 11.3638 6.45663 11.3638C4.50291 11.3638 3.77488 9.14343 3.77488 7.74395ZM1.0535 18.6874V14.9716C1.0535 13.5456 2.35951 12.3856 3.96484 12.3856H8.9465C9.29178 12.3854 9.63469 12.4409 9.96122 12.5498C8.10528 13.3633 6.82206 15.0877 6.82206 17.0787V18.6875L1.0535 18.6874ZM7.87556 17.0786C7.87556 14.87 9.88991 13.0733 12.3661 13.0733H14.2998C14.2357 13.44 14.2686 13.8666 14.3807 14.1054C14.4719 14.2991 14.6004 14.474 14.7595 14.6207L13.724 21.6806C13.7126 21.7582 13.7197 21.8372 13.7448 21.9117C13.7699 21.9861 13.8124 22.0539 13.8688 22.1099L14.7467 22.9794H11.853V18.0253C11.853 17.8898 11.7975 17.7598 11.6988 17.664C11.6 17.5682 11.466 17.5144 11.3263 17.5144C11.1866 17.5144 11.0526 17.5682 10.9538 17.664C10.855 17.7598 10.7995 17.8898 10.7995 18.0253V22.9791H7.87556V17.0786ZM24.1226 22.9791H21.2005V18.0253C21.2005 17.8898 21.145 17.7598 21.0462 17.664C20.9474 17.5682 20.8134 17.5144 20.6737 17.5144C20.534 17.5144 20.4 17.5682 20.3012 17.664C20.2025 17.7598 20.147 17.8898 20.147 18.0253V22.9791H17.253L18.1309 22.1096C18.1874 22.0536 18.2298 21.9858 18.2549 21.9113C18.28 21.8369 18.2872 21.7579 18.2758 21.6803L17.2404 14.6206C17.3996 14.4737 17.5283 14.2984 17.6196 14.1045C17.7308 13.8675 17.7636 13.441 17.6992 13.0733H19.6338C22.1088 13.0733 24.1223 14.87 24.1223 17.0786L24.1226 22.9791ZM30.9465 18.6874H25.1761V17.0786C25.1761 15.0873 23.8931 13.3629 22.0375 12.5495C22.3638 12.4408 22.7065 12.3853 23.0515 12.3854H28.035C29.6404 12.3854 30.9464 13.5456 30.9464 14.9715L30.9465 18.6874Z" fill="white"/>
</svg>
