<svg width="64" height="64" viewBox="0 0 64 64" fill="none" xmlns="http://www.w3.org/2000/svg">
<path d="M58 12V24C57.9984 24.53 57.7872 25.0378 57.4125 25.4125C57.0378 25.7873 56.5299 25.9985 56 26H53.94C53.646 25.9985 53.3553 26.0623 53.089 26.1868C52.8227 26.3114 52.5873 26.4935 52.4 26.72L49.54 30.1602C49.3516 30.3855 49.116 30.5668 48.8499 30.6912C48.5838 30.8156 48.2937 30.8801 48 30.8801C47.7062 30.8801 47.4161 30.8156 47.15 30.6912C46.8839 30.5668 46.6483 30.3855 46.46 30.1602L44.1401 27.3799C44.7094 27.0184 45.1782 26.5191 45.5033 25.9283C45.8284 25.3376 45.9992 24.6743 46 24V10H56C56.5299 10.0015 57.0378 10.2127 57.4125 10.5875C57.7872 10.9622 57.9984 11.47 58 12Z" fill="#55B8FF"/>
<path d="M19.8599 27.3799L17.54 30.1602C17.3516 30.3855 17.1161 30.5668 16.85 30.6912C16.5839 30.8156 16.2937 30.8801 16 30.8801C15.7063 30.8801 15.4161 30.8156 15.15 30.6912C14.8839 30.5668 14.6484 30.3855 14.46 30.1602L11.6001 26.72C11.4127 26.4934 11.1774 26.3113 10.911 26.1868C10.6447 26.0623 10.354 25.9985 10.06 26H8C7.47003 25.9985 6.96221 25.7873 6.58747 25.4125C6.21272 25.0378 6.00152 24.53 6 24V12C6.00152 11.47 6.21272 10.9622 6.58747 10.5875C6.96221 10.2127 7.47003 10.0015 8 10H18V24C18.0007 24.6743 18.1716 25.3376 18.4967 25.9284C18.8218 26.5191 19.2906 27.0184 19.8599 27.3799Z" fill="#55B8FF"/>
<path d="M42 6H22C21.4696 6 20.9609 6.21071 20.5858 6.58579C20.2107 6.96086 20 7.46957 20 8V24C20 24.5304 20.2107 25.0391 20.5858 25.4142C20.9609 25.7893 21.4696 26 22 26H25.8916C26.2308 26 26.5644 26.0863 26.8611 26.2507C27.1577 26.4151 27.4077 26.6523 27.5874 26.94L30.3042 31.2864C30.484 31.5741 30.734 31.8113 31.0307 31.9757C31.3273 32.1402 31.661 32.2264 32.0002 32.2264C32.3394 32.2264 32.673 32.1402 32.9697 31.9757C33.2664 31.8113 33.5164 31.5741 33.6962 31.2864L36.4126 26.94C36.5923 26.6523 36.8423 26.4151 37.1389 26.2507C37.4356 26.0863 37.7692 26 38.1084 26H42C42.5304 26 43.0391 25.7893 43.4142 25.4142C43.7893 25.0391 44 24.5304 44 24V8C44 7.46957 43.7893 6.96086 43.4142 6.58579C43.0391 6.21071 42.5304 6 42 6ZM37.4082 15.4097L35.7817 17.0369C35.6768 17.1419 35.6009 17.2723 35.5613 17.4154C35.5217 17.5585 35.5198 17.7095 35.5557 17.8535L36.3243 20.9292C36.3652 21.0926 36.3572 21.2644 36.3013 21.4233C36.2454 21.5821 36.1441 21.7211 36.0099 21.8228C35.8757 21.9246 35.7145 21.9847 35.5464 21.9956C35.3784 22.0065 35.2108 21.9678 35.0645 21.8843L32.4263 20.3763C32.2966 20.302 32.1496 20.2629 32.0001 20.2629C31.8505 20.2629 31.7036 20.302 31.5738 20.3763L28.9356 21.8843C28.7894 21.9678 28.6218 22.0064 28.4537 21.9955C28.2857 21.9846 28.1246 21.9245 27.9904 21.8227C27.8562 21.721 27.7548 21.5821 27.6989 21.4232C27.643 21.2644 27.635 21.0926 27.6759 20.9292L28.4444 17.8535C28.4804 17.7095 28.4785 17.5585 28.4389 17.4154C28.3993 17.2723 28.3233 17.1419 28.2184 17.0369L26.592 15.4097C26.4717 15.2895 26.3898 15.1363 26.3566 14.9696C26.3234 14.8028 26.3404 14.63 26.4054 14.4729C26.4704 14.3158 26.5806 14.1815 26.7219 14.087C26.8632 13.9925 27.0294 13.942 27.1994 13.9419H29.3706C29.5388 13.9419 29.7034 13.8926 29.8438 13.8C29.9842 13.7073 30.0944 13.5755 30.1606 13.4209L31.21 10.9712C31.2762 10.8166 31.3864 10.6848 31.5268 10.5922C31.6673 10.4995 31.8318 10.4502 32 10.4502C32.1682 10.4502 32.3327 10.4995 32.4732 10.5922C32.6136 10.6848 32.7238 10.8166 32.79 10.9712L33.8393 13.4209C33.9055 13.5755 34.0157 13.7073 34.1561 13.8C34.2966 13.8926 34.4611 13.9419 34.6293 13.9419H36.8007C36.9707 13.942 37.1369 13.9925 37.2782 14.087C37.4196 14.1815 37.5297 14.3158 37.5947 14.4729C37.6597 14.63 37.6767 14.8028 37.6435 14.9695C37.6103 15.1363 37.5284 15.2895 37.4082 15.4097Z" fill="#55B8FF"/>
<path d="M38.8963 53.1823L35.5264 52.0598C35.4242 52.0245 35.3335 51.9621 35.2639 51.8792C35.1944 51.7964 35.1486 51.6963 35.1315 51.5895C35.1144 51.4827 35.1265 51.3732 35.1667 51.2728C35.2068 51.1724 35.2735 51.0847 35.3595 51.0192C36.1941 50.2868 36.8582 49.3805 37.305 48.3639C37.7519 47.3474 37.9706 46.2453 37.9458 45.1352C38.0889 43.4037 37.5457 41.6852 36.4334 40.3505C35.3211 39.0158 33.7289 38.1716 31.9999 38C30.271 38.1716 28.6787 39.0157 27.5664 40.3505C26.4541 41.6852 25.9109 43.4036 26.0539 45.1351C26.0292 46.2453 26.2479 47.3473 26.6947 48.3639C27.1415 49.3804 27.8056 50.2867 28.6402 51.0191C28.7263 51.0847 28.7929 51.1723 28.8331 51.2728C28.8732 51.3732 28.8854 51.4826 28.8683 51.5894C28.8511 51.6962 28.8054 51.7963 28.7358 51.8792C28.6663 51.962 28.5756 52.0244 28.4734 52.0598L25.1035 53.1822C24.2834 53.4554 23.5328 53.9041 22.9039 54.497C22.275 55.0899 21.7829 55.8128 21.4619 56.6153L20.7603 58.3692C20.6882 58.5496 20.6613 58.745 20.6821 58.9382C20.703 59.1314 20.7708 59.3166 20.8798 59.4775C20.9887 59.6384 21.1354 59.7702 21.3071 59.8613C21.4788 59.9524 21.6701 60 21.8645 60H42.1353C42.3297 60 42.521 59.9524 42.6927 59.8613C42.8644 59.7702 43.0111 59.6384 43.12 59.4775C43.229 59.3166 43.2968 59.1314 43.3177 58.9382C43.3385 58.745 43.3116 58.5496 43.2395 58.3692L42.5379 56.6153C42.2169 55.8128 41.7248 55.0899 41.0959 54.497C40.4669 53.9041 39.7163 53.4555 38.8963 53.1823Z" fill="#55B8FF"/>
<path d="M23.5199 51.6602C22.4059 52.2112 21.4341 53.012 20.6801 54H6.43992C6.28085 53.9989 6.12447 53.9589 5.98435 53.8836C5.84423 53.8083 5.72463 53.6999 5.63593 53.5679C5.54723 53.4358 5.49212 53.2841 5.47539 53.1259C5.45866 52.9677 5.48081 52.8078 5.53992 52.6602L6.11992 51.24C6.37981 50.5804 6.78143 49.9859 7.29636 49.4987C7.8113 49.0114 8.427 48.6431 9.09992 48.42L11.8397 47.5C11.9233 47.473 11.9979 47.4235 12.0553 47.357C12.1128 47.2905 12.1508 47.2094 12.1653 47.1227C12.1797 47.0361 12.1701 46.9471 12.1374 46.8655C12.1047 46.7839 12.0502 46.7129 11.9799 46.6602C11.2966 46.0597 10.7528 45.3172 10.3866 44.4845C10.0204 43.6519 9.84059 42.7493 9.8598 41.8398C9.7443 40.4208 10.1913 39.0131 11.1043 37.9206C12.0173 36.8281 13.3231 36.1383 14.7402 36C16.1536 36.1431 17.4545 36.835 18.3632 37.927C19.272 39.019 19.7161 40.4239 19.6 41.8398C19.6192 42.7493 19.4394 43.6519 19.0732 44.4845C18.707 45.3172 18.1632 46.0597 17.4799 46.6602C17.4096 46.7129 17.3552 46.7839 17.3225 46.8655C17.2899 46.947 17.2803 47.036 17.2947 47.1227C17.3092 47.2093 17.3472 47.2904 17.4045 47.3569C17.4619 47.4234 17.5365 47.4729 17.6201 47.5L20.3798 48.42C21.0512 48.646 21.6655 49.0153 22.18 49.5022C22.6946 49.9891 23.0971 50.5821 23.3598 51.24L23.5199 51.6602Z" fill="#55B8FF"/>
<path d="M57.56 54H43.3203C42.566 53.0121 41.5941 52.2114 40.48 51.6602L40.6401 51.24C40.9029 50.5821 41.3055 49.9892 41.82 49.5023C42.3346 49.0154 42.9488 48.6461 43.6201 48.42L46.3799 47.5C46.4635 47.473 46.5381 47.4235 46.5955 47.357C46.6529 47.2904 46.691 47.2094 46.7054 47.1227C46.7199 47.036 46.7102 46.947 46.6776 46.8655C46.6449 46.7839 46.5904 46.7129 46.52 46.6602C45.8368 46.0597 45.293 45.3172 44.9268 44.4845C44.5605 43.6519 44.3808 42.7493 44.4 41.8398C44.284 40.4239 44.728 39.019 45.6367 37.927C46.5455 36.835 47.8463 36.1431 49.2597 36C50.6768 36.1383 51.9827 36.8281 52.8957 37.9206C53.8087 39.0131 54.2556 40.4208 54.1401 41.8398C54.1593 42.7493 53.9795 43.6519 53.6133 44.4845C53.2471 45.3172 52.7033 46.0597 52.02 46.6602C51.9497 46.7129 51.8952 46.7839 51.8625 46.8655C51.8298 46.947 51.8201 47.036 51.8346 47.1227C51.8491 47.2094 51.8871 47.2904 51.9445 47.357C52.0019 47.4235 52.0765 47.473 52.1601 47.5L54.8999 48.42C55.5728 48.6431 56.1885 49.0114 56.7034 49.4987C57.2184 49.9859 57.62 50.5804 57.8799 51.24L58.4599 52.6602C58.519 52.8078 58.5411 52.9677 58.5244 53.1259C58.5077 53.2841 58.4526 53.4358 58.3639 53.5678C58.2752 53.6999 58.1556 53.8082 58.0155 53.8836C57.8754 53.9589 57.719 53.9989 57.56 54Z" fill="#55B8FF"/>
</svg>
