<svg xmlns="http://www.w3.org/2000/svg" xmlns:xlink="http://www.w3.org/1999/xlink" width="793" height="1122" viewBox="0 0 793 1122">
  <defs>
    <linearGradient id="linear-gradient" x1="1.422" y1="0.028" x2="-0.401" y2="0.899" gradientUnits="objectBoundingBox">
      <stop offset="0" stop-color="#fbbc05"/>
      <stop offset="1" stop-color="#fff500"/>
    </linearGradient>
    <linearGradient id="linear-gradient-2" x1="0.639" y1="0.459" x2="-0.223" y2="1.216" gradientUnits="objectBoundingBox">
      <stop offset="0" stop-color="#00adee"/>
      <stop offset="0.812" stop-color="#1efbf8"/>
      <stop offset="1" stop-color="#73f2eb"/>
    </linearGradient>
    <linearGradient id="linear-gradient-3" x1="0.685" y1="1.056" x2="-0.593" y2="2.163" xlink:href="#linear-gradient-2"/>
    <clipPath id="clip-Web_1920_123">
      <rect width="793" height="1122"/>
    </clipPath>
  </defs>
  <g id="Web_1920_123" data-name="Web 1920 – 123" clip-path="url(#clip-Web_1920_123)">
    <rect width="793" height="1122" fill="#fff"/>
    <g id="Group_25921" data-name="Group 25921">
      <g id="Component_13_25" data-name="Component 13 – 25" transform="translate(0 10)">
        <g id="Group_25732" data-name="Group 25732" transform="translate(0 -78)">
          <g id="Group_24616" data-name="Group 24616" transform="translate(0 78)">
            <g id="Group_24615" data-name="Group 24615">
              <rect id="Rectangle_11066" data-name="Rectangle 11066" width="793" height="50" fill="#00adee"/>
            </g>
          </g>
        </g>
      </g>
      <g id="Layer_2" data-name="Layer 2" transform="translate(17 14)">
        <g id="Layer_10" data-name="Layer 10" transform="translate(0)">
          <path id="Path_2561" data-name="Path 2561" d="M135.41,49.361V39.028h4.372a3.611,3.611,0,0,1,2.793,1.042,3.335,3.335,0,0,1,.823,2.381h0a3.5,3.5,0,0,1-.547,2.011,3.226,3.226,0,0,1-1.506,1.188l2.34,3.689H141.22l-2.053-3.309H137.51V49.34Zm2.084-5.31h2.136a1.688,1.688,0,0,0,1.193-.4,1.381,1.381,0,0,0,.427-1.042h0a1.376,1.376,0,0,0-.438-1.1,1.793,1.793,0,0,0-1.219-.38H137.51V44.1Zm9.687,5.451a2.606,2.606,0,0,1-1.8-.641,2.251,2.251,0,0,1-.719-1.772v-.031a2.272,2.272,0,0,1,.8-1.886,3.346,3.346,0,0,1,2.131-.636,5,5,0,0,1,1.787.328v-.13a1.407,1.407,0,0,0-.4-1.079,1.673,1.673,0,0,0-1.172-.37,5.5,5.5,0,0,0-2.022.432L145.269,42a6.963,6.963,0,0,1,1.318-.479,6.649,6.649,0,0,1,1.527-.156,3.22,3.22,0,0,1,2.475.886,3.585,3.585,0,0,1,.792,2.522v4.591H149.37V48.5A2.751,2.751,0,0,1,147.182,49.5Zm.631-1.563a1.756,1.756,0,0,0,1.172-.386,1.245,1.245,0,0,0,.453-1v-.4a2.892,2.892,0,0,0-1.324-.3,1.746,1.746,0,0,0-1.042.281.943.943,0,0,0-.38.808h0a.865.865,0,0,0,.313.7,1.256,1.256,0,0,0,.823.255Zm9.75,1.563a2.788,2.788,0,0,1-2.282-1.172v1.042h-2.084V38.59h2.084v4a2.684,2.684,0,0,1,2.282-1.282,2.929,2.929,0,0,1,1.245.271,3.387,3.387,0,0,1,1.042.771,3.725,3.725,0,0,1,.745,1.3,5.153,5.153,0,0,1,.281,1.746h0a5.321,5.321,0,0,1-.271,1.751,3.648,3.648,0,0,1-.745,1.292,3.324,3.324,0,0,1-1.042.776,3.074,3.074,0,0,1-1.261.266Zm-.521-1.9a1.6,1.6,0,0,0,1.266-.6,2.319,2.319,0,0,0,.521-1.563h0a2.319,2.319,0,0,0-.521-1.563,1.61,1.61,0,0,0-2.527,0,2.324,2.324,0,0,0-.521,1.563h0A2.334,2.334,0,0,0,155.78,47a1.6,1.6,0,0,0,1.261.6Zm9.765,1.9a2.788,2.788,0,0,1-2.282-1.172v1.042h-2.084V38.59h2.084v4a2.673,2.673,0,0,1,2.282-1.282,2.965,2.965,0,0,1,1.245.271,3.366,3.366,0,0,1,1.042.771,3.731,3.731,0,0,1,.75,1.3,5.154,5.154,0,0,1,.281,1.746h0a5.321,5.321,0,0,1-.276,1.751,3.618,3.618,0,0,1-.782,1.318,3.408,3.408,0,0,1-1.042.766,3.033,3.033,0,0,1-1.256.266Zm-.521-1.9A1.6,1.6,0,0,0,167.5,47a2.319,2.319,0,0,0,.521-1.563h0a2.319,2.319,0,0,0-.521-1.563,1.616,1.616,0,0,0-2.533-.005,2.345,2.345,0,0,0-.521,1.563h0a2.361,2.361,0,0,0,.521,1.563,1.605,1.605,0,0,0,1.266.6Zm5.388-7.019V38.59h2.194v1.991Zm.063,8.78v-7.91h2.084v7.91Zm6.5.13a2.173,2.173,0,0,1-1.563-.521,2.475,2.475,0,0,1-.573-1.829V43.374h-.875V41.451h.875V39.434h2.084v2.017h1.725v1.923h-1.725V46.75a.86.86,0,0,0,.162.578.625.625,0,0,0,.521.188,1.97,1.97,0,0,0,1.042-.281v1.8a3.022,3.022,0,0,1-1.647.459Zm18.4-.13V41.123h-2.908V39.038h7.926v2.084H198.77v8.239Zm8.577.177a3.877,3.877,0,0,0,2.043-.552,3.95,3.95,0,0,0,1.412-1.5,4.242,4.242,0,0,0,.521-2.084h0a4.169,4.169,0,0,0-.521-2.084,3.794,3.794,0,0,0-1.417-1.48,3.846,3.846,0,0,0-2.022-.547,3.95,3.95,0,0,0-1.563.323,3.861,3.861,0,0,0-1.251.9,4.17,4.17,0,0,0-.829,1.313,4.217,4.217,0,0,0-.3,1.595v.031a4.242,4.242,0,0,0,.521,2.084,3.856,3.856,0,0,0,3.439,2.032Zm.031-1.938a1.73,1.73,0,0,1-1.386-.641,2.288,2.288,0,0,1-.521-1.563h0a2.329,2.329,0,0,1,.521-1.532,1.7,1.7,0,0,1,1.381-.62,1.74,1.74,0,0,1,1.344.631,2.308,2.308,0,0,1,.547,1.563v.031A2.3,2.3,0,0,1,206.612,47a1.7,1.7,0,0,1-1.381.62Zm5.445,1.761v-7.91h2.084V43.04a2.287,2.287,0,0,1,2.34-1.735V43.65H215a2,2,0,0,0-1.641.7,3.21,3.21,0,0,0-.584,2.084v2.929Zm8.2.13a2.173,2.173,0,0,1-1.563-.521,2.475,2.475,0,0,1-.573-1.829V43.374h-.875V41.451h.875V39.434h2.084v2.017h1.725v1.923h-1.725V46.75a.86.86,0,0,0,.162.578.63.63,0,0,0,.521.188,1.965,1.965,0,0,0,1.042-.281v1.8a3.022,3.022,0,0,1-1.647.459Zm6.587.047a3.835,3.835,0,0,1-2.022-.547,3.9,3.9,0,0,1-1.423-1.485,4.241,4.241,0,0,1-.521-2.084V45.39a4.315,4.315,0,0,1,.3-1.595,4.065,4.065,0,0,1,.834-1.313,3.862,3.862,0,0,1,1.266-.881,3.924,3.924,0,0,1,1.563-.323,3.867,3.867,0,0,1,2.027.547,3.794,3.794,0,0,1,1.417,1.48,4.169,4.169,0,0,1,.521,2.084h0a4.248,4.248,0,0,1-.521,2.084,3.913,3.913,0,0,1-1.428,1.5,3.846,3.846,0,0,1-2.038.552ZM225.5,47.6a1.709,1.709,0,0,0,1.407-.62,2.329,2.329,0,0,0,.521-1.532v-.031a2.308,2.308,0,0,0-.521-1.563,1.751,1.751,0,0,0-1.386-.636,1.7,1.7,0,0,0-1.381.62,2.3,2.3,0,0,0-.521,1.532h0a2.314,2.314,0,0,0,.521,1.563,1.746,1.746,0,0,0,1.386.641Zm5.492-7.019V38.59h2.168v1.991Zm.083,8.78v-7.91h2.084v7.91Zm6.6.141a4.612,4.612,0,0,1-1.652-.276,4.763,4.763,0,0,1-1.522-.891l.891-1.475a3.819,3.819,0,0,0,2.308.943,1.094,1.094,0,0,0,.662-.162.521.521,0,0,0,.219-.433v-.068a.48.48,0,0,0,0-.151.334.334,0,0,0-.078-.13.766.766,0,0,0-.109-.115.793.793,0,0,0-.162-.1l-.182-.083-.219-.089-.229-.078-.255-.083-.266-.083c-.24-.073-.448-.151-.625-.224a3.376,3.376,0,0,1-.578-.313,2.132,2.132,0,0,1-.521-.433,1.964,1.964,0,0,1-.333-.6,2.292,2.292,0,0,1-.136-.8h0a2.314,2.314,0,0,1,.766-1.839,2.777,2.777,0,0,1,1.912-.667,4.476,4.476,0,0,1,1.423.24,4.81,4.81,0,0,1,1.313.672l-.792,1.563a3.971,3.971,0,0,0-1.98-.735.922.922,0,0,0-.568.151.474.474,0,0,0-.2.391v.031a.464.464,0,0,0,.188.349,1.757,1.757,0,0,0,.422.255c.156.068.375.151.657.255l.224.083c.245.083.453.167.63.245a4.221,4.221,0,0,1,.589.318,2.225,2.225,0,0,1,.521.438,2.173,2.173,0,0,1,.479,1.35h0a2.329,2.329,0,0,1-.776,1.9,3.074,3.074,0,0,1-2.032.646Zm7.77.036a3.6,3.6,0,0,1-2.746-1.146,4.122,4.122,0,0,1-1.084-2.944v-.031a4.689,4.689,0,0,1,.459-2.058,3.757,3.757,0,0,1,1.292-1.5,3.325,3.325,0,0,1,1.881-.558,3.476,3.476,0,0,1,1.563.354,2.955,2.955,0,0,1,1.12.959,4.332,4.332,0,0,1,.641,1.365,5.791,5.791,0,0,1,.219,1.595,5.878,5.878,0,0,1-.026.589h-5.107a1.986,1.986,0,0,0,.625,1.157,1.782,1.782,0,0,0,1.172.4,2.209,2.209,0,0,0,.933-.193,3.06,3.06,0,0,0,.839-.6l1.188,1.136a3.533,3.533,0,0,1-3,1.475Zm-1.787-4.752h3.127a2.173,2.173,0,0,0-.521-1.225,1.339,1.339,0,0,0-1.042-.453,1.376,1.376,0,0,0-1.042.448,2.309,2.309,0,0,0-.547,1.23Z" transform="translate(-64.847 -18.481)" fill="#fff"/>
          <path id="Path_2562" data-name="Path 2562" d="M234.892,45.663l-2.241-2.449a13.364,13.364,0,0,0,.98-1.621c.3-.578.594-1.2.875-1.855l-1.193-.594q-.349.865-.735,1.641a14.4,14.4,0,0,1-.808,1.438L228.842,39a5.768,5.768,0,0,0,2.246-1.391,3.392,3.392,0,0,0,.521-3.45,3.162,3.162,0,0,0-.63-1.006,3.038,3.038,0,0,0-.98-.672,3.126,3.126,0,0,0-1.245-.245,3.6,3.6,0,0,0-1.391.255,3.2,3.2,0,0,0-1.73,1.746,3.341,3.341,0,0,0-.25,1.292,3.694,3.694,0,0,0,.313,1.532,7.161,7.161,0,0,0,.974,1.532,5.862,5.862,0,0,0-2.293,1.621,3.679,3.679,0,0,0-.808,2.392,4.064,4.064,0,0,0,.3,1.595,3.648,3.648,0,0,0,.844,1.235,3.731,3.731,0,0,0,1.282.787,4.5,4.5,0,0,0,1.6.281,4.648,4.648,0,0,0,2.293-.568,6.774,6.774,0,0,0,1.9-1.563l2.017,2.236Zm-4.377-10.219a2.137,2.137,0,0,1-.625,1.563,5.013,5.013,0,0,1-1.85,1.084,9.2,9.2,0,0,1-.6-.74,4.592,4.592,0,0,1-.4-.641,2.738,2.738,0,0,1-.208-.573,2.67,2.67,0,0,1-.063-.594,2.048,2.048,0,0,1,.521-1.443,1.834,1.834,0,0,1,1.407-.573,1.7,1.7,0,0,1,1.3.521,1.928,1.928,0,0,1,.521,1.391Zm.365,7.926a6.008,6.008,0,0,1-1.5,1.313,3.231,3.231,0,0,1-1.709.485,2.808,2.808,0,0,1-1.084-.2,2.449,2.449,0,0,1-1.4-1.381,2.772,2.772,0,0,1,.4-2.725,4.169,4.169,0,0,1,1.855-1.287Z" transform="translate(-107.066 -15.439)" fill="#fff"/>
          <path id="Path_2563" data-name="Path 2563" d="M136.817,69.9H137.9v-.3H135.41v.3h1.079v2.929h.328V69.9Zm4.95,1.4h1.563V71h-1.563V69.9h1.678v-.3h-2v3.231h2.084v-.3H141.8V71.3Zm7.816.823a1.3,1.3,0,0,1-.2.234,1.042,1.042,0,0,1-.229.151.875.875,0,0,1-.245.073,1.417,1.417,0,0,1-.255,0,1.266,1.266,0,0,1-.974-.422,1.344,1.344,0,0,1-.261-.443,1.5,1.5,0,0,1-.094-.521,1.522,1.522,0,0,1,.094-.521,1.344,1.344,0,0,1,.261-.443,1.293,1.293,0,0,1,.417-.307,1.365,1.365,0,0,1,.558-.115,1.079,1.079,0,0,1,.255.036,1.221,1.221,0,0,1,.24.1.887.887,0,0,1,.2.135.725.725,0,0,1,.135.156l.287-.214a1.209,1.209,0,0,0-.521-.4,1.657,1.657,0,0,0-.6-.115,1.746,1.746,0,0,0-.667.125,1.563,1.563,0,0,0-.521.354,1.647,1.647,0,0,0-.349.521,1.824,1.824,0,0,0,0,1.355,1.647,1.647,0,0,0,.349.521,1.564,1.564,0,0,0,.521.354,1.751,1.751,0,0,0,.667.13,1.49,1.49,0,0,0,.38-.047,1.564,1.564,0,0,0,.333-.125,1.189,1.189,0,0,0,.276-.193,1.043,1.043,0,0,0,.2-.229l-.266-.193Zm3.851.7h.328V71.3h1.756v1.527h.328V69.593h-.328V71h-1.761v-1.4h-.323Zm6.774-3.231H159.8v3.231h.328V70.062h0l1.928,2.762h.406V69.593h-.328v2.736h0Zm9.328,1.615a1.688,1.688,0,0,0-.13-.677,1.646,1.646,0,0,0-.349-.521,1.563,1.563,0,0,0-.521-.354,1.839,1.839,0,0,0-1.334,0,1.564,1.564,0,0,0-.521.354,1.646,1.646,0,0,0-.349.521,1.824,1.824,0,0,0,0,1.355,1.646,1.646,0,0,0,.349.521,1.563,1.563,0,0,0,.521.354,1.772,1.772,0,0,0,1.334,0,1.563,1.563,0,0,0,.521-.354,1.646,1.646,0,0,0,.349-.521,1.688,1.688,0,0,0,.13-.677Zm-.354,0a1.5,1.5,0,0,1-.094.521,1.26,1.26,0,0,1-.261.443,1.318,1.318,0,0,1-1.949,0,1.344,1.344,0,0,1-.261-.443,1.5,1.5,0,0,1-.094-.521,1.522,1.522,0,0,1,.094-.521,1.344,1.344,0,0,1,.261-.443,1.292,1.292,0,0,1,.417-.307,1.412,1.412,0,0,1,1.115,0,1.292,1.292,0,0,1,.417.307,1.26,1.26,0,0,1,.261.443,1.521,1.521,0,0,1,.094.521Zm4.382-1.615h-.328v3.231h1.829v-.3h-1.5V69.593Zm8.139,1.615a1.688,1.688,0,0,0-.13-.677,1.684,1.684,0,0,0-.875-.875,1.84,1.84,0,0,0-1.334,0,1.563,1.563,0,0,0-.886.891,1.824,1.824,0,0,0,0,1.355,1.563,1.563,0,0,0,.886.891,1.772,1.772,0,0,0,1.334,0,1.684,1.684,0,0,0,.875-.875,1.688,1.688,0,0,0,.13-.677Zm-.354,0a1.5,1.5,0,0,1-.094.521,1.344,1.344,0,0,1-.261.443,1.318,1.318,0,0,1-1.949,0,1.262,1.262,0,0,1-.261-.443,1.5,1.5,0,0,1-.094-.521,1.523,1.523,0,0,1,.094-.521,1.261,1.261,0,0,1,.261-.443,1.292,1.292,0,0,1,.417-.307,1.412,1.412,0,0,1,1.115,0,1.292,1.292,0,0,1,.417.307,1.345,1.345,0,0,1,.261.443,1.521,1.521,0,0,1,.094.521Zm6.68-1.261a1.371,1.371,0,0,0-.521-.328,1.85,1.85,0,0,0-.667-.1,1.771,1.771,0,0,0-.672.125,1.61,1.61,0,0,0-.521.354,1.562,1.562,0,0,0-.354.521,1.9,1.9,0,0,0,0,1.355,1.563,1.563,0,0,0,.354.521,1.61,1.61,0,0,0,.521.354,1.777,1.777,0,0,0,.672.13,2.47,2.47,0,0,0,.62-.089,2.251,2.251,0,0,0,.6-.24V70.985h-1.1v.3h.771v1.084a1.621,1.621,0,0,1-.412.167,1.834,1.834,0,0,1-.479.063,1.271,1.271,0,0,1-.558-.115,1.24,1.24,0,0,1-.417-.307,1.354,1.354,0,0,1-.266-.443,1.625,1.625,0,0,1-.089-.521,1.648,1.648,0,0,1,.089-.521,1.355,1.355,0,0,1,.266-.443,1.24,1.24,0,0,1,.417-.307,1.35,1.35,0,0,1,.558-.115,1.282,1.282,0,0,1,.521.1,1.147,1.147,0,0,1,.391.271l.245-.24Zm5,1.485,1.209-1.839h-.412l-.964,1.527-.959-1.527h-.427l1.209,1.839v1.391h.328V71.433Zm8.468-1.527a1.083,1.083,0,0,0-.417-.307,1.35,1.35,0,0,0-.5-.083,1.375,1.375,0,0,0-.386.052,1.043,1.043,0,0,0-.334.167.881.881,0,0,0-.24.292.892.892,0,0,0-.089.4.876.876,0,0,0,.073.375.73.73,0,0,0,.188.245.98.98,0,0,0,.266.162q.132.067.271.12l.307.1a1.565,1.565,0,0,1,.266.125.693.693,0,0,1,.182.188.556.556,0,0,1,.01.532.7.7,0,0,1-.162.188.813.813,0,0,1-.224.109.781.781,0,0,1-.245.042.86.86,0,0,1-.443-.109.8.8,0,0,1-.292-.281l-.3.214a1.089,1.089,0,0,0,.453.365,1.469,1.469,0,0,0,.563.115,1.042,1.042,0,0,0,.38-.068.99.99,0,0,0,.344-.182.885.885,0,0,0,.245-.292.839.839,0,0,0,.094-.4.787.787,0,0,0-.12-.459.954.954,0,0,0-.307-.271,1.856,1.856,0,0,0-.4-.167,3.521,3.521,0,0,1-.4-.135,1.078,1.078,0,0,1-.307-.2.464.464,0,0,1-.12-.344.522.522,0,0,1,.057-.261.594.594,0,0,1,.156-.182.677.677,0,0,1,.224-.1.964.964,0,0,1,.25-.036.709.709,0,0,1,.625.318l.287-.224Zm6.91,1.3a1.783,1.783,0,0,0-.13-.677,1.564,1.564,0,0,0-.354-.521,1.611,1.611,0,0,0-.521-.354,1.84,1.84,0,0,0-1.334,0,1.564,1.564,0,0,0-.521.354,1.663,1.663,0,0,0-.354.521,1.9,1.9,0,0,0,0,1.355,1.662,1.662,0,0,0,.354.521,1.563,1.563,0,0,0,.521.354,1.772,1.772,0,0,0,1.334,0,1.61,1.61,0,0,0,.521-.354,1.563,1.563,0,0,0,.354-.521,1.782,1.782,0,0,0,.13-.677Zm-.36,0a1.5,1.5,0,0,1-.089.521,1.444,1.444,0,0,1-.261.443,1.36,1.36,0,0,1-1.532.307,1.241,1.241,0,0,1-.417-.307,1.26,1.26,0,0,1-.261-.443,1.5,1.5,0,0,1-.094-.521,1.522,1.522,0,0,1,.094-.521,1.262,1.262,0,0,1,.261-.443,1.24,1.24,0,0,1,.417-.307,1.4,1.4,0,0,1,1.11,0,1.261,1.261,0,0,1,.422.307,1.444,1.444,0,0,1,.261.443,1.517,1.517,0,0,1,.089.521Zm4.382-1.615H212.1v3.231h1.834v-.3h-1.506Zm7.3,0h-.328v1.991a1.448,1.448,0,0,1-.047.4,1.039,1.039,0,0,1-.12.281.722.722,0,0,1-.172.182.818.818,0,0,1-.188.1.8.8,0,0,1-.182.052h-.3a.88.88,0,0,1-.182-.052.787.787,0,0,1-.182-.1.725.725,0,0,1-.172-.182,1.042,1.042,0,0,1-.12-.281,1.446,1.446,0,0,1-.047-.4V69.593h-.328V71.62a2.088,2.088,0,0,0,.047.427,1.239,1.239,0,0,0,.182.417,1.131,1.131,0,0,0,.36.318,1.459,1.459,0,0,0,1.183,0,1.1,1.1,0,0,0,.365-.318,1.136,1.136,0,0,0,.177-.417,2.122,2.122,0,0,0,.052-.427Zm4.893.3H225.7v-.3h-2.491v.3h1.079v2.929h.328Zm4.956-.3h-.328v3.231h.328Zm7.061,1.615a1.782,1.782,0,0,0-.125-.677,1.562,1.562,0,0,0-.354-.521,1.61,1.61,0,0,0-.521-.354,1.767,1.767,0,0,0-.667-.125,1.793,1.793,0,0,0-.672.125,1.61,1.61,0,0,0-.521.354,1.662,1.662,0,0,0-.354.521,1.9,1.9,0,0,0,0,1.355,1.662,1.662,0,0,0,.354.521,1.609,1.609,0,0,0,.521.354,1.8,1.8,0,0,0,.672.13,1.766,1.766,0,0,0,.667-.13,1.61,1.61,0,0,0,.521-.354,1.562,1.562,0,0,0,.354-.521,1.782,1.782,0,0,0,.125-.677Zm-.354,0a1.628,1.628,0,0,1-.089.521,1.355,1.355,0,0,1-.266.443,1.193,1.193,0,0,1-.417.307,1.4,1.4,0,0,1-1.11,0,1.241,1.241,0,0,1-.417-.307,1.355,1.355,0,0,1-.266-.443,1.626,1.626,0,0,1-.089-.521,1.647,1.647,0,0,1,.089-.521,1.355,1.355,0,0,1,.266-.443,1.24,1.24,0,0,1,.417-.307,1.4,1.4,0,0,1,1.11,0,1.193,1.193,0,0,1,.417.307,1.355,1.355,0,0,1,.266.443A1.647,1.647,0,0,1,236.278,71.209Zm4.466-1.615h-.412v3.231h.328V70.062h0l1.923,2.762H243V69.593h-.328v2.736h0Zm7.994.313a1.041,1.041,0,0,0-.417-.307,1.469,1.469,0,0,0-.875-.031,1.085,1.085,0,0,0-.339.167.808.808,0,0,0-.234.292.828.828,0,0,0-.089.4.881.881,0,0,0,.068.375.73.73,0,0,0,.188.245.98.98,0,0,0,.266.162,2.687,2.687,0,0,0,.307.115l.3.1a1.56,1.56,0,0,1,.266.125.64.64,0,0,1,.188.188.575.575,0,0,1,.005.532.621.621,0,0,1-.162.188.783.783,0,0,1-.219.109.865.865,0,0,1-.688-.068.814.814,0,0,1-.3-.281l-.292.214a1.089,1.089,0,0,0,.453.365,1.469,1.469,0,0,0,.563.115,1.084,1.084,0,0,0,.38-.068,1.042,1.042,0,0,0,.339-.182.9.9,0,0,0,.25-.292.839.839,0,0,0,.094-.4.751.751,0,0,0-.125-.459.9.9,0,0,0-.307-.271,1.811,1.811,0,0,0-.4-.167,3.616,3.616,0,0,1-.4-.135.98.98,0,0,1-.3-.2.464.464,0,0,1-.125-.344.584.584,0,0,1,.057-.261.521.521,0,0,1,.162-.182.61.61,0,0,1,.219-.1,1.042,1.042,0,0,1,.25-.036.7.7,0,0,1,.625.318Z" transform="translate(-64.847 -33.289)" fill="#fff"/>
          <path id="Path_2564" data-name="Path 2564" d="M45.438,28.843a38.82,38.82,0,0,0-5.591,4.726l-2.694-2.262c-.109-6.951,1.871-5.732,3.017-8.463C39.023,23.157,38,24.7,37.2,25.45c-5.346-3.9-5.049-3.575-4.971-6.774-1.819,1.126.521,1.563-1.808,3.648a31.543,31.543,0,0,1-3.262,2.335c-1.912-1.3-3.835-2.783-4.643-4.638l-.584-1.2c0,2.017.479,1.626-2.293,3.752-1.2.875-2.319,1.652-3.371,2.439l-2.2-1.61c.521,3.22,2.34.292,1.563,7.347-.167,1.516-3.127,4.137-4.445,4.961L7.377,34.09C9.112,27.2,15.6,18.28,23.9,17.009,33.448,15.544,43.562,22.324,45.438,28.843Zm13.83,12.652c2.663-.521,3.945-2.605-.724-3.361-6.826-1.136-6.712-3.71-3.481-5.826,3.127.735,9.072-1.188,9.76-2.939C66.636,18.5,56.35,15.013,51.717,17.775,50.3,11.355,46.23,2.934,41.3.776c0,9.025,7.243,17.368,8.687,18.113C48.012,21.209,47.376,24.523,48,26.1,32.629,3.22,7.351,14.888,4.615,28.629a12.194,12.194,0,0,0-.172,3.257,3.3,3.3,0,0,0-3.455.49c-1.391,1.245-1.308,3.606.182,5.263s3.83,1.985,5.211.74a2.866,2.866,0,0,0,.38-.417,9.38,9.38,0,0,1-3.648-.693c-1.042-.521,3.2-1.2,4.122-2.267a1.7,1.7,0,0,0,.5.349c8,3.679,17.623,5.565,27.1,3.074,3.074-.808,5.4-4.3,9.182-7.3,1.386-1.089,3.575-2.83,6.17-1.782A12.108,12.108,0,0,1,52.426,31.3c.9,1.079.75,1.636.422,3-3.679,1.245-7.91,2.423-10.6,4.492.287.417,1.126,1.042,1.563,1.563a1.3,1.3,0,0,1,.334,1.277l15.112-.12Zm-52.5-3.533a3.648,3.648,0,0,0,1.563-.4c.735.98,1.12,1.412,1.094,2.235a11.626,11.626,0,0,1-2.658-1.834Zm9.02,3.606a1.428,1.428,0,0,0-.318-1.532c8.859,1.157,12.814,1.292,21.433-.078a1.486,1.486,0,0,1,.776,1.73H18.237a23.691,23.691,0,0,1-2.418-.12Zm5.341-3.314c-.151-1.855-3.606-4.4-5.06-5.581l-4.091,3.314a32.694,32.694,0,0,0,9.145,2.267Zm18.03-3.913a17.577,17.577,0,0,0-2.413-2.361c-.875.375-.036-.068-.928.563-.208.146-.521.438-.834.657-2.944,2.236-3.726,2.319-3.762,4.9C36.116,37.409,36.751,36.565,39.164,34.34Zm-17.2,3.966c2.522.714,8.489.672,8.65-.266.151-.849-.657-2.981-3.648-4.732-1.563.75-4.742,3.215-4.992,5ZM36.4,25.992c-1.4-1.141-2.955-2.731-4.69-3.507-1.386.834-2.835,1.98-4.127,2.871-.089,1.256-.349,5.732-.068,6.675s2.777,2.793,3.575,3.127L33.7,33.017c.818-.636,2.006-1.678,2.605-2.2l.115-4.8ZM26.319,32.667c.089-1.746.547-6.071-.135-7.431a30.108,30.108,0,0,0-3.835-3.507c-2.267,1.162-3.768,3.21-5.789,4.117L16.413,32.1c1.98,1.271,4.012,3.455,5.242,4.106,1.808-1.011,2.71-2.444,4.664-3.523ZM49.435,30.1a.839.839,0,1,1-.86.818A.839.839,0,0,1,49.435,30.1Zm9.9-9.437a1.3,1.3,0,1,1-1.271,1.3,1.287,1.287,0,0,1,1.271-1.3ZM52.369,16a23.288,23.288,0,0,0-1.042-3.773c.36-2.3-1.563-7.816,1.532-12.23C56.355,6.951,52.822,15.378,52.369,16Z" transform="translate(0.003)" fill="#fff" fill-rule="evenodd"/>
        </g>
      </g>
      <g id="Group_25838" data-name="Group 25838" transform="translate(509.798 -165.949)">
        <path id="Path_149136" data-name="Path 149136" d="M246.133,0V215.6H0Z" transform="translate(66.999 378.845) rotate(-90)" fill="#d9d9d9"/>
        <path id="Path_149135" data-name="Path 149135" d="M194.279,0V215.6H0V166.936Z" transform="translate(0 290.346) rotate(-90)" fill="url(#linear-gradient)"/>
        <path id="Path_149134" data-name="Path 149134" d="M246.133,0V215.6H0Z" transform="translate(62.999 361.845) rotate(-90)" fill="url(#linear-gradient-2)"/>
        <path id="Path_149195" data-name="Path 149195" d="M246.133,0V215.6H0Z" transform="translate(159.801 431.272) rotate(-90)" fill="#fff"/>
        <path id="Path_149123" data-name="Path 149123" d="M190.267,0V166.666H0Z" transform="translate(132.269 331.333) rotate(-90)" fill="url(#linear-gradient-3)"/>
        <path id="Path_149198" data-name="Path 149198" d="M246.133,0V215.6H0Z" transform="translate(74.801 246.133) rotate(-90)" fill="#fff"/>
        <path id="Path_149197" data-name="Path 149197" d="M190.267,0V166.666H0Z" transform="translate(185.269 313.333) rotate(-90)" fill="url(#linear-gradient-3)"/>
      </g>
    </g>
  </g>
</svg>
