<svg width="32" height="32" viewBox="0 0 32 32" fill="none" xmlns="http://www.w3.org/2000/svg">
<path d="M31.5747 9.31371C31.9587 8.94448 32.0958 8.3992 31.932 7.88977C31.7672 7.37766 31.3358 7.01271 30.8072 6.93726L28.1715 6.55144C28.076 6.53913 27.9902 6.47438 27.9427 6.37431L26.7646 3.98876C26.5294 3.51197 26.0536 3.21552 25.5235 3.21552C24.9934 3.21552 24.5171 3.51197 24.2824 3.98876L23.3096 5.95853L20.356 5.52615C20.0728 5.48709 19.8254 5.30568 19.6947 5.04348L17.748 1.0895C17.4184 0.417927 16.7486 0 16.0003 0C15.252 0 14.5822 0.417392 14.2531 1.08896L12.3075 5.04134C12.1758 5.30622 11.9278 5.48709 11.6408 5.52722L8.69044 5.95906L7.71817 3.9893C7.48297 3.51251 7.00724 3.21605 6.47657 3.21605C5.94591 3.21605 5.47071 3.51251 5.23551 3.9893L4.05311 6.38395C4.00991 6.47545 3.92404 6.5402 3.81897 6.55304L1.19497 6.93726C0.664307 7.01271 0.232307 7.37766 0.0680407 7.88977C-0.0956926 8.39866 0.0413741 8.94448 0.422174 9.3105L2.31977 11.1641C2.39711 11.2417 2.43177 11.3498 2.41257 11.4579L1.96564 14.0779C1.87551 14.6012 2.08457 15.1213 2.51177 15.4355C2.75604 15.6152 3.04351 15.7068 3.33364 15.7068C3.55391 15.7068 3.77577 15.6538 3.98217 15.5473L6.31497 14.3133C6.4195 14.2614 6.52991 14.2598 6.62377 14.3085L8.9827 15.5526C9.06164 15.5922 9.14324 15.6243 9.22644 15.649L8.8723 17.7124C8.74644 18.4508 9.04404 19.1834 9.64937 19.6238C9.99017 19.8716 10.3886 19.9973 10.7896 19.9973C11.1 19.9973 11.412 19.9219 11.7006 19.7694L14.3534 18.3684V25.4534L13.0984 24.1942C12.2979 23.391 10.9955 23.391 10.1944 24.1942C9.8051 24.5854 9.5907 25.1039 9.5907 25.6535C9.5907 26.2031 9.8051 26.7216 10.195 27.1128L14.9096 31.8432C15.0099 31.9438 15.1454 32 15.2867 32H23.4627C23.6056 32 23.7427 31.9427 23.843 31.84L24.1918 31.4841C24.9219 30.7516 25.324 29.7793 25.324 28.746V24.5346C25.324 23.0031 24.0846 21.7573 22.5614 21.7573H18.4014V18.7644L20.3016 19.7688C20.9619 20.1188 21.7486 20.0637 22.3523 19.6238C22.9576 19.1834 23.2552 18.4508 23.1294 17.7129L22.7752 15.6484C22.8611 15.6233 22.9459 15.5901 23.0286 15.5484L25.3736 14.3112C25.4718 14.2609 25.5827 14.2619 25.6766 14.309L28.0232 15.55C28.2275 15.6559 28.4478 15.7084 28.667 15.7084C28.9571 15.7084 29.2446 15.6169 29.4899 15.4365C29.9171 15.1224 30.1262 14.6017 30.036 14.08L29.588 11.4542C29.5694 11.3514 29.6035 11.2439 29.6792 11.1668L31.5758 9.31425L31.5747 9.31371ZM9.61737 13.3603L9.40884 14.5691L7.11444 13.3592C6.71284 13.151 6.2467 13.1505 5.82644 13.3613L3.48777 14.5985C3.32351 14.6831 3.19124 14.6087 3.14164 14.5723C3.09364 14.537 2.98537 14.4359 3.01631 14.2593L3.46271 11.6425C3.54271 11.1946 3.39764 10.7328 3.06857 10.4027L1.16297 8.54047C1.03604 8.41846 1.06484 8.27398 1.08297 8.21779C1.10164 8.16 1.16457 8.02247 1.34697 7.99625L3.96404 7.61257C4.42377 7.55371 4.81737 7.26528 5.01311 6.8495L6.19177 4.46341C6.2707 4.30341 6.41737 4.28575 6.47657 4.28575C6.53577 4.28575 6.68297 4.30341 6.7619 4.46395L7.57897 6.11906L7.2899 6.16187C7.0675 6.19451 6.8595 6.26783 6.66857 6.36789C6.22484 6.59906 5.88031 6.99344 5.71871 7.49217C5.68937 7.58314 5.66697 7.67572 5.65097 7.76776C5.64617 7.79505 5.64617 7.82234 5.64244 7.85017C5.63444 7.91224 5.62537 7.97431 5.62324 8.03639C5.62057 8.10916 5.62537 8.1814 5.6307 8.25364C5.63177 8.27023 5.63071 8.28736 5.63231 8.30395C5.67871 8.74916 5.87817 9.17137 6.2131 9.49619L9.3619 12.5843C9.5699 12.7839 9.66484 13.074 9.61684 13.3613L9.61737 13.3603ZM22.5598 22.827C23.4947 22.827 24.2558 23.5928 24.2558 24.534V28.7454C24.2558 29.4924 23.9646 30.1961 23.4328 30.7296L23.2376 30.9287H15.5059L10.9475 26.3551C10.7592 26.1662 10.6558 25.9168 10.6558 25.6524C10.6558 25.3881 10.7592 25.1387 10.9475 24.9498C11.3326 24.564 11.9587 24.564 12.3427 24.9498L14.508 27.1224C14.6606 27.2755 14.8894 27.3215 15.0894 27.2385C15.2888 27.1556 15.4184 26.9603 15.4184 26.7441V16.6678C15.4184 16.4104 15.5171 16.1718 15.6995 15.992C15.8808 15.81 16.1219 15.71 16.3784 15.71C16.9048 15.71 17.3331 16.1397 17.3331 16.6678V22.2919C17.3331 22.5873 17.572 22.827 17.8664 22.827H22.5598ZM21.3304 13.5438L22.0766 17.8927C22.1347 18.2314 22.003 18.5546 21.7251 18.7569C21.4478 18.9587 21.1016 18.9827 20.7982 18.8222L18.3998 17.5545V16.6678C18.3998 15.55 17.4931 14.6397 16.3784 14.6397C15.8371 14.6397 15.3278 14.8511 14.9491 15.2316C14.564 15.6104 14.3518 16.1204 14.3518 16.6678V17.1585L11.2014 18.8222C10.8979 18.9833 10.5512 18.9587 10.2744 18.7569C9.99657 18.5546 9.86484 18.232 9.92297 17.8927L10.6691 13.5433C10.7784 12.9076 10.5672 12.2601 10.1054 11.8122L6.9571 8.72829C6.8339 8.60843 6.75124 8.46448 6.71284 8.30876C6.71124 8.30127 6.7123 8.29378 6.7107 8.28629C6.69524 8.21619 6.68617 8.14395 6.68884 8.07063C6.6915 8.00642 6.70644 7.94221 6.72297 7.87746C6.72724 7.86087 6.7267 7.84374 6.73204 7.82716C6.80617 7.59652 6.96244 7.42047 7.16404 7.31558C7.24937 7.27171 7.34057 7.23746 7.44191 7.22301L11.7896 6.58729C12.4211 6.49953 12.971 6.10087 13.2616 5.51813L15.2083 1.56308C15.3598 1.25485 15.6552 1.0713 15.9992 1.0713C16.3432 1.0713 16.6387 1.25538 16.7902 1.56361L18.7379 5.52027C19.027 6.10087 19.5768 6.50007 20.2046 6.58676L24.5576 7.22355C24.6419 7.23585 24.7214 7.25886 24.795 7.2915C25.0174 7.39211 25.1864 7.581 25.2659 7.82716C25.2712 7.84428 25.2707 7.86087 25.275 7.87799C25.2915 7.94221 25.307 8.00696 25.3091 8.07063C25.3112 8.13378 25.3016 8.19478 25.2904 8.25578C25.2872 8.27344 25.2894 8.29164 25.2851 8.3093C25.2664 8.38368 25.2366 8.45485 25.1982 8.52281C25.1966 8.52602 25.196 8.52923 25.1939 8.53244C25.1576 8.59505 25.1096 8.65284 25.0568 8.70742C25.0499 8.71438 25.0462 8.72294 25.0392 8.7299L21.8936 11.8111C21.4312 12.2606 21.22 12.9081 21.3294 13.5443L21.3304 13.5438ZM28.931 10.4027C28.931 10.4027 28.9278 10.4059 28.9256 10.408C28.6019 10.7328 28.4568 11.1946 28.5363 11.6388L28.9838 14.2609C29.0142 14.4364 28.9059 14.5375 28.8579 14.5728C28.8083 14.6092 28.6766 14.6841 28.5155 14.6007L26.1624 13.356C25.9587 13.2538 25.7416 13.2029 25.5246 13.2029C25.3043 13.2029 25.0851 13.2554 24.8803 13.3608L22.5902 14.5686L22.3816 13.3603C22.3331 13.0729 22.4286 12.7823 22.6403 12.579L25.7827 9.49672C26.1187 9.17084 26.3192 8.74809 26.3656 8.30288C26.3678 8.28094 26.3667 8.259 26.3683 8.23759C26.3731 8.1707 26.3779 8.10381 26.3752 8.03585C26.3731 7.97217 26.364 7.90849 26.3555 7.84482C26.3523 7.81859 26.3518 7.79291 26.3475 7.76669C26.3315 7.67411 26.3091 7.58207 26.2798 7.4911C26.1102 6.96776 25.74 6.55625 25.2643 6.33151C25.0915 6.2491 24.9054 6.19023 24.7086 6.1608L24.4195 6.11799L25.2371 4.46288C25.316 4.30288 25.4627 4.28522 25.5224 4.28522C25.5822 4.28522 25.7283 4.30288 25.8078 4.46341L26.9822 6.84094C27.1822 7.26528 27.5758 7.55425 28.0264 7.6115L30.6552 7.99625C30.835 8.02194 30.8979 8.15946 30.9166 8.21726C30.9347 8.27344 30.963 8.41793 30.8334 8.54314L28.931 10.4027Z" fill="#3949AB"/>
<path d="M5.62741 24C5.78799 24 5.94857 23.9385 6.07088 23.8162L6.81606 23.071C7.06131 22.8257 7.06131 22.4292 6.81606 22.184C6.5708 21.9387 6.17438 21.9387 5.92912 22.184L5.18394 22.9292C4.93869 23.1745 4.93869 23.5709 5.18394 23.8162C5.30626 23.9385 5.46683 24 5.62741 24Z" fill="#3949AB"/>
<path d="M6 20.5C6 20.224 5.75646 20 5.45637 20H4.54363C4.24354 20 4 20.224 4 20.5C4 20.776 4.24354 21 4.54363 21H5.45637C5.75646 21 6 20.776 6 20.5Z" fill="#3949AB"/>
</svg>
