<svg width="35" height="36" viewBox="0 0 35 36" fill="white" xmlns="http://www.w3.org/2000/svg">
<path d="M19.7292 6.68213C22.7776 6.68213 25.4371 6.70776 28.4827 6.70776C28.8316 6.70776 29.1633 6.7391 29.4865 6.79891C29.8068 6.85872 30.1156 6.94702 30.4016 7.0695C30.6904 7.19198 30.9707 7.34294 31.2424 7.52523C31.5083 7.70467 31.7628 7.91545 32.003 8.15186C32.2433 8.39111 32.4549 8.64461 32.6322 8.90951C32.8152 9.17725 32.9696 9.45923 33.0897 9.74691C33.2098 10.0346 33.3013 10.3394 33.3614 10.6584C33.4215 10.9802 33.4529 11.3135 33.4529 11.6581V21.7041C33.4529 22.0516 33.4215 22.382 33.3614 22.7039C33.3013 23.0257 33.2098 23.3305 33.0897 23.6153C32.9668 23.9058 32.8152 24.185 32.6322 24.4527C32.452 24.7176 32.2404 24.9711 32.003 25.2104L32.0002 25.2132C31.7514 25.4553 31.494 25.6661 31.2252 25.8427C30.9592 26.0221 30.6761 26.1731 30.3873 26.2956C30.0985 26.4152 29.7953 26.5063 29.4751 26.5662C29.1576 26.626 28.823 26.6573 28.4799 26.6573H24.6765C24.5563 26.6573 24.4391 26.6858 24.3304 26.7371C24.2303 26.7883 24.1388 26.8595 24.0702 26.9535L24.0645 26.9592C23.7642 27.3551 23.4496 27.7397 23.1179 28.1128C22.7862 28.4802 22.443 28.8391 22.0713 29.1781C21.7109 29.5113 21.3335 29.8303 20.9417 30.1379C20.5499 30.4456 20.1438 30.7332 19.7292 31.0067C19.3317 31.2687 18.9113 31.5165 18.4737 31.7529C18.0419 31.9865 17.5987 32.203 17.1497 32.4023C17.0982 32.4251 17.0439 32.4223 16.9953 32.3938C16.9123 32.3454 16.8809 32.24 16.9295 32.1545C17.0096 32.0121 17.0868 31.8726 17.1669 31.7216C17.2412 31.582 17.3098 31.4425 17.3756 31.2915C17.5043 31.0067 17.6273 30.7161 17.7417 30.4142C17.8618 30.1123 17.9733 29.8104 18.082 29.4971C18.1849 29.2065 18.2793 28.9046 18.3708 28.5999C18.4623 28.2951 18.5481 27.9875 18.631 27.6798C18.6539 27.5887 18.6768 27.4976 18.6768 27.4036C18.6768 27.1985 18.5938 27.0076 18.4566 26.8709L18.448 26.8624C18.3079 26.7228 18.1134 26.6345 17.9047 26.6345H13.4778C13.1289 26.6345 12.8001 26.6032 12.4826 26.5434C12.1681 26.4836 11.8678 26.3924 11.5818 26.2756L11.5761 26.2728C11.293 26.1617 11.0156 26.0107 10.7525 25.8341C10.4808 25.6519 10.2149 25.4325 9.96324 25.1876L9.96038 25.1847C9.72017 24.9455 9.50855 24.6948 9.32839 24.4271C9.14536 24.1593 8.9938 23.8802 8.87083 23.5897C8.75072 23.302 8.65921 22.9972 8.59916 22.6782C8.53911 22.3564 8.50765 22.0231 8.50765 21.6785V19.6362C8.50765 18.6108 7.17502 18.6023 6.95197 19.3343V21.6642C6.95197 22.1029 6.99486 22.5301 7.07207 22.9403C7.15215 23.359 7.27225 23.7634 7.4324 24.1565C7.58682 24.5353 7.787 24.9028 8.02436 25.2531C8.26457 25.6034 8.54196 25.9367 8.85939 26.2528C9.17396 26.569 9.51141 26.8453 9.86315 27.0846C10.212 27.321 10.5781 27.5175 10.9584 27.6713L10.9641 27.6742C11.3559 27.8337 11.7649 27.9504 12.1824 28.033C12.5942 28.1099 13.0231 28.1527 13.4635 28.1527H16.6435C16.6635 28.1527 16.6864 28.1555 16.7036 28.1612C16.7951 28.1925 16.8466 28.2894 16.818 28.3805L16.8151 28.3862C16.7551 28.5799 16.6921 28.7736 16.6235 28.9815L16.6206 28.9929C16.5234 29.2721 16.4147 29.5597 16.3004 29.8446C16.1917 30.1123 16.0802 30.38 15.9629 30.6335C15.9601 30.6478 15.9572 30.6592 15.9515 30.6734C15.8371 30.9326 15.7055 31.1861 15.554 31.4396C15.4024 31.6931 15.2337 31.9381 15.0507 32.183C14.8619 32.428 14.6503 32.6729 14.4158 32.9236L14.4072 32.935C14.1699 33.1856 13.9154 33.4306 13.638 33.6698C13.4807 33.8123 13.392 34.0059 13.3806 34.1996C13.3692 34.3933 13.4349 34.5927 13.5751 34.7522C13.6751 34.8633 13.7981 34.9373 13.9325 34.9772C14.0669 35.0171 14.2099 35.0228 14.3472 34.9829C14.9248 34.8291 15.4939 34.6582 16.0458 34.4702C16.5978 34.2822 17.1325 34.0771 17.6444 33.855C18.162 33.6328 18.6682 33.3907 19.1572 33.1258C19.6434 32.8666 20.1181 32.5818 20.5728 32.2827C21.0275 31.9893 21.465 31.676 21.8911 31.3428C22.3172 31.0095 22.7261 30.662 23.1179 30.2974L23.1265 30.2889C23.4582 29.9784 23.7785 29.6509 24.0902 29.3119C24.4048 28.9673 24.7079 28.6141 24.991 28.2524C25.0225 28.2039 25.0768 28.1726 25.1397 28.1726H28.4856C28.9346 28.1726 29.3635 28.1299 29.7782 28.053C30.1957 27.9732 30.5961 27.8536 30.9793 27.6969L30.985 27.6941C31.371 27.5317 31.7399 27.3324 32.0917 27.0959C32.4434 26.8595 32.7752 26.5889 33.0926 26.2728C33.41 25.9566 33.6874 25.6205 33.9276 25.273C34.165 24.9227 34.3652 24.5553 34.5196 24.1764C34.6769 23.7919 34.797 23.3903 34.8799 22.9716C34.9571 22.5614 35 22.1313 35 21.6842V11.6325C35 11.1853 34.9571 10.7552 34.8799 10.3451C34.7998 9.92635 34.6797 9.52474 34.5196 9.14307C34.3623 8.76424 34.1621 8.39396 33.9276 8.04647C33.6874 7.69328 33.41 7.36003 33.0954 7.04671C32.778 6.73055 32.4434 6.45426 32.0917 6.21501C31.7428 5.9786 31.3768 5.78206 30.9964 5.62826L30.9907 5.62541C30.5961 5.46875 30.19 5.34912 29.7696 5.26937C29.3578 5.19246 28.9288 5.14974 28.4885 5.14974C25.3228 5.14974 22.5431 5.1355 19.3746 5.1355C18.6196 5.35197 18.571 6.68213 19.7292 6.68213ZM15.2194 22.1598C14.8162 22.1655 14.4873 21.8437 14.4816 21.4421C14.4759 21.0404 14.799 20.7129 15.2022 20.7072L22.932 20.5904L24.4134 20.4964C24.8166 20.4708 25.1626 20.7756 25.1883 21.1743C25.2141 21.5759 24.9081 21.9206 24.5077 21.9462L23.0264 22.0402C23.0264 22.0402 15.8714 22.1484 15.2194 22.1598ZM17.5358 17.5968C17.1325 17.5968 16.8037 17.2693 16.8037 16.8677C16.8037 16.4661 17.1325 16.1385 17.5358 16.1385H27.9766C28.3798 16.1385 28.7086 16.4661 28.7086 16.8677C28.7086 17.2693 28.3798 17.5968 27.9766 17.5968H17.5358ZM20.7844 13.2446C20.3812 13.2446 20.0523 12.9171 20.0523 12.5155C20.0523 12.1139 20.3812 11.7863 20.7844 11.7863H27.9737C28.3769 11.7863 28.7058 12.1139 28.7058 12.5155C28.7058 12.9171 28.3769 13.2446 27.9737 13.2446H20.7844Z" fill="#3949AB"/>
<path fill-rule="evenodd" clip-rule="evenodd" d="M7.69834 0.93758C7.78127 0.510334 8.00433 0.236897 8.30746 0.0973299C8.55339 -0.0137541 8.83651 -0.0279957 9.13678 0.0517569C9.39415 0.120116 9.66582 0.256835 9.92892 0.456217C10.6353 0.98885 11.2959 2 11.3788 3.25895C11.4045 3.64632 11.3959 4.05933 11.3616 4.50081C11.3388 4.79134 11.2987 5.09611 11.2501 5.41512H14.2499L14.2557 5.41227C14.7447 5.42936 15.2137 5.54899 15.614 5.75692C15.96 5.93636 16.2489 6.18131 16.4491 6.48893C16.655 6.80509 16.7693 7.17822 16.7522 7.60547C16.7379 7.92163 16.655 8.26627 16.4805 8.63655C16.5806 9.04956 16.6264 9.4939 16.5606 9.88411C16.5063 10.2145 16.3776 10.5079 16.1459 10.7272C16.1602 11.2741 16.0859 11.7327 15.9372 12.1286C15.7856 12.5359 15.5597 12.8748 15.2651 13.1739C15.2394 13.436 15.1965 13.6866 15.1307 13.9202C15.0478 14.2135 14.9277 14.4841 14.7561 14.7205C14.2442 15.4383 13.8353 15.4241 13.189 15.3956C13.1003 15.3927 13.0002 15.387 12.8515 15.387H6.98627C6.45723 15.387 6.04257 15.313 5.66509 15.1222C5.28761 14.9342 4.97018 14.6493 4.62701 14.2221L4.53836 13.9743V7.15544L4.83577 7.07568C5.59359 6.87345 6.18841 6.22689 6.65169 5.45784C7.1264 4.66317 7.46099 3.73462 7.68976 2.98551V1.01164L7.69834 0.93758ZM0.600539 6.44621H3.25435C3.58608 6.44621 3.85489 6.7168 3.85489 7.04435V15.0082C3.85489 15.3386 3.58322 15.6064 3.25435 15.6064H0.600539C0.268813 15.6064 0 15.3358 0 15.0082V7.04435C0 6.71395 0.268813 6.44621 0.600539 6.44621Z" fill="#12E381"/>
</svg>
