<svg width="197" height="185" viewBox="0 0 197 185" fill="none" xmlns="http://www.w3.org/2000/svg">
<path d="M0.0033066 391.431L9.86571 399.588L0.0033066 407.726V391.431ZM29.5475 365.366L39.3901 373.506L29.5475 381.667V365.366ZM0 365.366L9.8624 373.506L0 381.661V365.366ZM55.8098 336.038L65.6523 345.825L55.8098 355.612V336.038ZM29.5574 336.038L39.4 345.825L29.5574 355.612V336.038ZM0.00991981 336.038L9.87232 345.825L0.0132264 355.609L0.00991981 336.038ZM82.0853 313.232L91.9278 321.389L82.0819 329.527L82.0853 313.232ZM55.8098 313.232L65.6523 321.389L55.8098 329.53V313.232ZM29.5574 313.232L39.4 321.389L29.5574 329.53V313.232ZM0.00991981 313.232L9.87232 321.389L0.00991981 329.53V313.232ZM108.348 283.895L118.19 293.678L108.348 303.462V283.895ZM82.0952 283.895L91.9378 293.678L82.0819 303.458L82.0952 283.895ZM55.8197 283.895L65.6623 293.678L55.8197 303.462V283.895ZM29.5674 283.895L39.4099 293.678L29.5674 303.462V283.895ZM0.0198523 283.895L9.88226 293.678L0.0198523 303.462V283.895ZM134.623 257.839L144.466 267.623L134.62 277.38L134.623 257.839ZM108.361 257.839L118.203 267.623L108.354 277.38L108.361 257.839ZM82.1084 257.839L91.951 267.623L82.1018 277.38L82.1084 257.839ZM55.8329 257.839L65.6755 267.623L55.8263 277.38L55.8329 257.839ZM29.5806 257.839L39.4232 267.623L29.574 277.38L29.5806 257.839ZM0.0330787 257.839L9.89548 267.623L0.0330787 277.38V257.839ZM160.898 231.767L170.741 239.908L160.898 248.046V231.767ZM134.636 231.767L144.479 239.908L134.636 248.046V231.767ZM108.374 231.767L118.217 239.908L108.374 248.046V231.767ZM82.1217 231.767L91.9642 239.908L82.1217 248.046V231.767ZM55.8462 231.767L65.6887 239.908L55.8462 248.046V231.767ZM29.5905 231.767L39.4331 239.908L29.5905 248.046V231.767ZM0.0430111 231.767L9.90541 239.908L0.0330787 248.042L0.0430111 231.767ZM187.157 205.696L197 213.85L187.157 221.991V205.696ZM160.895 205.696L170.738 213.85L160.895 221.991V205.696ZM134.633 205.696L144.475 213.85L134.633 221.991V205.696ZM108.371 205.696L118.213 213.85L108.371 221.991V205.696ZM82.1183 205.696L91.9609 213.85L82.1183 221.991V205.696ZM55.8429 205.696L65.6854 213.85L55.8429 221.991V205.696ZM29.5872 205.696L39.4298 213.85L29.5872 221.991V205.696ZM0.0396919 205.696L9.90211 213.85L0.0330787 221.987L0.0396919 205.696ZM160.905 176.345L170.748 186.132L160.905 195.919V176.345ZM134.643 176.345L144.485 186.132L134.643 195.919V176.345ZM108.381 176.345L118.223 186.132L108.381 195.919V176.345ZM82.1283 176.345L91.9708 186.132L82.1283 195.919V176.345ZM55.8528 176.345L65.6953 186.132L55.8528 195.919V176.345ZM29.5971 176.345L39.4397 186.132L29.5971 195.919V176.345ZM0.0496243 176.345L9.91203 186.135L0.0330787 195.915L0.0496243 176.345ZM160.915 168.522L161.62 169.259L160.915 169.837V168.522ZM134.653 153.542L144.495 161.699L134.653 169.84V153.542ZM108.391 153.542L118.233 161.699L108.391 169.84V153.542ZM82.1382 153.542L91.9808 161.699L82.1382 169.84V153.542ZM55.8627 153.542L65.7053 161.699L55.8627 169.84V153.542ZM29.6071 153.542L39.4496 161.699L29.6071 169.84V153.542ZM0.0595441 153.542L9.92196 161.699L0.0595441 169.84V153.542ZM108.397 124.215L118.24 132.355L108.397 140.509V124.215ZM82.1448 124.215L91.9874 132.355L82.1448 140.509V124.215ZM55.8693 124.215L65.7119 132.355L55.8693 140.509V124.215ZM29.617 124.215L39.4595 132.355L29.617 140.509V124.215ZM0.0694766 124.215L9.93188 132.355L0.0727832 140.519L0.0694766 124.215ZM0.0694766 98.1395L9.92857 107.926L0.06617 117.697L0.0694766 98.1395ZM108.407 113.496L110.465 115.654L108.407 117.697V113.496ZM82.0819 98.1362L91.9245 107.923L82.0819 117.69V98.1362ZM55.8065 98.1362L65.649 107.923L55.8065 117.69V98.1362ZM29.5541 98.1362L39.3967 107.923L29.5541 117.69V98.1362ZM82.0819 85.9828L83.3491 87.3049L82.0819 88.3559V85.9828ZM55.8065 72.0644L65.649 80.2019L55.8065 88.3593V72.0644ZM29.5541 72.0644L39.3967 80.2019L29.5541 88.3593V72.0644ZM0.00661321 72.0644L9.86902 80.2019L0 88.3593L0.00661321 72.0644ZM55.8164 58.4599L57.6923 60.4431L55.8164 62.304V58.4599ZM29.5773 42.7072L39.4199 52.4874L29.5773 62.2544V42.7072ZM0.0297721 42.7072L9.87232 52.494L0.0132264 62.2544L0.0297721 42.7072ZM29.5773 30.9405L32.1612 33.6409L29.5773 36.2123V30.9405ZM0.0330787 16.6783L9.89548 26.4486L0.0330787 36.2288V16.6783ZM0.0330787 0L3.70212 3.84404L0.0330787 6.8716V0Z" fill="url(#paint0_linear_377_2338)"/>
<defs>
<linearGradient id="paint0_linear_377_2338" x1="29.353" y1="24.8713" x2="289.734" y2="173.945" gradientUnits="userSpaceOnUse">
<stop stop-color="#00ADEE"/>
<stop offset="0.812" stop-color="#1EFBF8"/>
<stop offset="1" stop-color="#00E4BE"/>
</linearGradient>
</defs>
</svg>
