<svg xmlns="http://www.w3.org/2000/svg" width="878.458" height="199.081" viewBox="0 0 878.458 199.081">
  <g id="Group_22761" data-name="Group 22761" transform="translate(362.042 63.93)">
    <g id="Layer_2" data-name="Layer 2" transform="translate(-362.042 -63.93)">
      <g id="Layer_10" data-name="Layer 10">
        <path id="Path_2561" data-name="Path 2561" d="M135.41,90.028V40.68h20.878a17.246,17.246,0,0,1,13.339,4.977,15.927,15.927,0,0,1,3.932,11.372h0a16.723,16.723,0,0,1-2.613,9.606,15.4,15.4,0,0,1-7.192,5.674l11.173,17.619H163.157l-9.8-15.8h-7.913v15.8Zm9.954-25.358h10.2a8.063,8.063,0,0,0,5.7-1.916,6.594,6.594,0,0,0,2.041-4.977h0a6.569,6.569,0,0,0-2.09-5.251,8.56,8.56,0,0,0-5.823-1.817h-9.954V64.894ZM191.626,90.7a12.443,12.443,0,0,1-8.585-3.061,10.75,10.75,0,0,1-3.434-8.461v-.149a10.85,10.85,0,0,1,3.807-9.008,15.976,15.976,0,0,1,10.178-3.036,23.889,23.889,0,0,1,8.536,1.568V67.93a6.719,6.719,0,0,0-1.891-5.151,7.988,7.988,0,0,0-5.6-1.767,26.254,26.254,0,0,0-9.655,2.065l-2.489-8.187a33.254,33.254,0,0,1,6.3-2.289,31.75,31.75,0,0,1,7.291-.747,15.379,15.379,0,0,1,11.82,4.23,17.121,17.121,0,0,1,3.783,12.044V90.052h-9.606V85.922A13.139,13.139,0,0,1,191.626,90.7Zm3.011-7.466a8.386,8.386,0,0,0,5.6-1.841,5.948,5.948,0,0,0,2.165-4.753V74.748a13.811,13.811,0,0,0-6.321-1.418,8.336,8.336,0,0,0-4.977,1.344,4.5,4.5,0,0,0-1.817,3.857h0a4.131,4.131,0,0,0,1.493,3.36,6,6,0,0,0,3.932,1.219ZM241.2,90.7a13.313,13.313,0,0,1-10.9-5.6v4.977h-9.954V38.59H230.3V57.677a12.815,12.815,0,0,1,10.9-6.122,13.985,13.985,0,0,1,5.947,1.294,16.173,16.173,0,0,1,4.977,3.683,17.791,17.791,0,0,1,3.559,6.2,24.612,24.612,0,0,1,1.344,8.337h0a25.411,25.411,0,0,1-1.294,8.361,17.419,17.419,0,0,1-3.559,6.172,15.875,15.875,0,0,1-4.977,3.708,14.682,14.682,0,0,1-6.022,1.269Zm-2.488-9.083a7.615,7.615,0,0,0,6.047-2.887,11.074,11.074,0,0,0,2.489-7.466h0a11.074,11.074,0,0,0-2.489-7.466,7.689,7.689,0,0,0-12.069,0,11.1,11.1,0,0,0-2.489,7.466h0a11.148,11.148,0,0,0,2.489,7.465,7.64,7.64,0,0,0,6.022,2.887ZM285.343,90.7a13.313,13.313,0,0,1-10.9-5.6v4.977h-9.954V38.59h9.954V57.677a12.766,12.766,0,0,1,10.9-6.122,14.161,14.161,0,0,1,5.948,1.294,16.075,16.075,0,0,1,4.977,3.683,17.82,17.82,0,0,1,3.584,6.2,24.611,24.611,0,0,1,1.344,8.337h0a25.408,25.408,0,0,1-1.319,8.361,17.272,17.272,0,0,1-3.733,6.3,16.275,16.275,0,0,1-4.977,3.658,14.483,14.483,0,0,1-6,1.269Zm-2.488-9.083a7.64,7.64,0,0,0,5.823-2.887,11.075,11.075,0,0,0,2.488-7.466h0a11.074,11.074,0,0,0-2.488-7.466,7.715,7.715,0,0,0-12.094-.025,11.2,11.2,0,0,0-2.489,7.466h0a11.273,11.273,0,0,0,2.489,7.466,7.665,7.665,0,0,0,6.047,2.887ZM308.585,48.1V38.59h10.477V48.1Zm.3,41.931V52.252h9.954V90.028Zm31.057.622a10.377,10.377,0,0,1-7.466-2.489,11.82,11.82,0,0,1-2.737-8.735V61.435h-4.181V52.252h4.181V42.621h9.954v9.63h8.237v9.183h-8.237V77.56a4.107,4.107,0,0,0,.771,2.762,2.986,2.986,0,0,0,2.488.9,9.406,9.406,0,0,0,4.977-1.344V88.46a14.433,14.433,0,0,1-7.864,2.19Zm87.869-.622V50.684H413.924V40.73h37.85v9.954H437.988V90.028Zm40.961.846a18.515,18.515,0,0,0,9.755-2.638,18.864,18.864,0,0,0,6.744-7.167,20.256,20.256,0,0,0,2.489-9.954h0a19.91,19.91,0,0,0-2.489-9.954,18.117,18.117,0,0,0-6.769-7.067,18.365,18.365,0,0,0-9.655-2.613,18.863,18.863,0,0,0-7.465,1.543,18.439,18.439,0,0,0-5.972,4.28,19.91,19.91,0,0,0-3.957,6.271,20.134,20.134,0,0,0-1.443,7.615v.149a20.255,20.255,0,0,0,2.488,9.954A18.415,18.415,0,0,0,468.92,91Zm.15-9.257a8.262,8.262,0,0,1-6.62-3.061,10.925,10.925,0,0,1-2.488-7.466h0a11.124,11.124,0,0,1,2.488-7.316,8.138,8.138,0,0,1,6.595-2.961,8.312,8.312,0,0,1,6.42,3.011,11.024,11.024,0,0,1,2.613,7.466v.149a11,11,0,0,1-2.488,7.316,8.138,8.138,0,0,1-6.595,2.961Zm26,8.411V52.252h9.954v7.59q3.31-8.66,11.173-8.287v11.2h-.547a9.556,9.556,0,0,0-7.839,3.335,15.329,15.329,0,0,0-2.787,9.954V90.028Zm39.144.622a10.377,10.377,0,0,1-7.466-2.489,11.82,11.82,0,0,1-2.737-8.735V61.435h-4.181V52.252h4.181V42.621h9.954v9.63h8.237v9.183h-8.237V77.56a4.106,4.106,0,0,0,.771,2.762,3.011,3.011,0,0,0,2.488.9,9.381,9.381,0,0,0,4.977-1.344V88.46a14.433,14.433,0,0,1-7.864,2.19Zm31.455.224a18.315,18.315,0,0,1-9.655-2.613,18.615,18.615,0,0,1-6.794-7.092,20.258,20.258,0,0,1-2.488-9.954v-.149a20.607,20.607,0,0,1,1.443-7.615,19.412,19.412,0,0,1,3.982-6.271,18.442,18.442,0,0,1,6.047-4.206,18.739,18.739,0,0,1,7.466-1.543,18.465,18.465,0,0,1,9.68,2.613,18.118,18.118,0,0,1,6.769,7.067,19.907,19.907,0,0,1,2.488,9.954h0a20.283,20.283,0,0,1-2.488,9.954,18.689,18.689,0,0,1-6.819,7.167,18.365,18.365,0,0,1-9.73,2.638Zm.124-9.257a8.163,8.163,0,0,0,6.719-2.961,11.124,11.124,0,0,0,2.488-7.316V71.19a11.024,11.024,0,0,0-2.488-7.466,8.361,8.361,0,0,0-6.619-3.036,8.112,8.112,0,0,0-6.595,2.961,11,11,0,0,0-2.489,7.316h0a11.05,11.05,0,0,0,2.489,7.466,8.337,8.337,0,0,0,6.619,3.061ZM591.878,48.1V38.59H602.23V48.1Zm.4,41.931V52.252h9.954V90.028Zm31.53.672a22.022,22.022,0,0,1-7.889-1.319,22.748,22.748,0,0,1-7.266-4.255l4.256-7.042a18.24,18.24,0,0,0,11.024,4.5,5.225,5.225,0,0,0,3.16-.771,2.489,2.489,0,0,0,1.045-2.066v-.323a2.3,2.3,0,0,0,0-.722,1.6,1.6,0,0,0-.373-.622,3.656,3.656,0,0,0-.523-.547,3.784,3.784,0,0,0-.771-.5l-.871-.4-1.045-.423-1.095-.373-1.22-.4-1.269-.4c-1.145-.348-2.14-.722-2.986-1.07a16.118,16.118,0,0,1-2.762-1.493,10.182,10.182,0,0,1-2.488-2.065,9.389,9.389,0,0,1-1.593-2.887,10.953,10.953,0,0,1-.647-3.832h0a11.05,11.05,0,0,1,3.658-8.784,13.263,13.263,0,0,1,9.133-3.185,21.375,21.375,0,0,1,6.793,1.145,22.968,22.968,0,0,1,6.271,3.21l-3.782,7.466a18.964,18.964,0,0,0-9.456-3.509,4.405,4.405,0,0,0-2.713.722,2.264,2.264,0,0,0-.97,1.866v.149a2.215,2.215,0,0,0,.9,1.667,8.4,8.4,0,0,0,2.016,1.219c.747.324,1.792.722,3.136,1.219l1.07.4c1.169.4,2.165.8,3.011,1.17a20.157,20.157,0,0,1,2.812,1.518,10.62,10.62,0,0,1,2.488,2.09,10.378,10.378,0,0,1,2.289,6.445h0a11.124,11.124,0,0,1-3.708,9.083,14.682,14.682,0,0,1-9.705,3.086Zm37.1.174A17.2,17.2,0,0,1,647.795,85.4a19.684,19.684,0,0,1-5.176-14.06V71.19a22.394,22.394,0,0,1,2.19-9.83,17.944,17.944,0,0,1,6.172-7.142,15.877,15.877,0,0,1,8.984-2.663,16.6,16.6,0,0,1,7.465,1.692,14.109,14.109,0,0,1,5.35,4.579,20.68,20.68,0,0,1,3.061,6.52,27.657,27.657,0,0,1,1.045,7.615,28.039,28.039,0,0,1-.124,2.812H652.373A9.483,9.483,0,0,0,655.36,80.3a8.51,8.51,0,0,0,5.6,1.891,10.55,10.55,0,0,0,4.454-.921,14.606,14.606,0,0,0,4.006-2.862l5.674,5.425a16.872,16.872,0,0,1-14.309,7.043Zm-8.536-22.7H667.3a10.378,10.378,0,0,0-2.489-5.848,6.4,6.4,0,0,0-4.977-2.165,6.57,6.57,0,0,0-4.977,2.14,11.023,11.023,0,0,0-2.613,5.873Z" transform="translate(201.567 57.442)" fill="#4d4d4f"/>
        <path id="Path_2562" data-name="Path 2562" d="M277.649,96.345l-10.7-11.7a63.807,63.807,0,0,0,4.679-7.739c1.443-2.762,2.837-5.724,4.181-8.859l-5.7-2.837q-1.667,4.131-3.509,7.839a68.8,68.8,0,0,1-3.857,6.868L248.757,64.542A27.547,27.547,0,0,0,259.482,57.9a16.2,16.2,0,0,0,2.489-16.474,15.107,15.107,0,0,0-3.011-4.8,14.509,14.509,0,0,0-4.679-3.21,14.931,14.931,0,0,0-5.948-1.17,17.169,17.169,0,0,0-6.644,1.219,15.3,15.3,0,0,0-8.262,8.337,15.954,15.954,0,0,0-1.195,6.171,17.645,17.645,0,0,0,1.493,7.316A34.2,34.2,0,0,0,238.38,62.6a28,28,0,0,0-10.95,7.739,17.57,17.57,0,0,0-3.857,11.422,19.414,19.414,0,0,0,1.443,7.615,17.423,17.423,0,0,0,4.032,5.9,17.816,17.816,0,0,0,6.122,3.758,21.475,21.475,0,0,0,7.665,1.344,22.2,22.2,0,0,0,10.949-2.712,32.351,32.351,0,0,0,9.083-7.466l9.631,10.676Zm-20.9-48.8a10.2,10.2,0,0,1-2.986,7.466,23.94,23.94,0,0,1-8.834,5.176,43.939,43.939,0,0,1-2.862-3.534,21.9,21.9,0,0,1-1.891-3.061,13.067,13.067,0,0,1-1-2.737,12.715,12.715,0,0,1-.3-2.837,9.779,9.779,0,0,1,2.488-6.893,8.759,8.759,0,0,1,6.719-2.737,8.138,8.138,0,0,1,6.221,2.489,9.208,9.208,0,0,1,2.489,6.644Zm1.742,37.85a28.687,28.687,0,0,1-7.142,6.271,15.428,15.428,0,0,1-8.162,2.314,13.412,13.412,0,0,1-5.176-.946,11.7,11.7,0,0,1-6.694-6.595A13.239,13.239,0,0,1,233.2,73.426a19.908,19.908,0,0,1,8.859-6.147Z" transform="translate(332.791 47.988)" fill="#929497"/>
        <path id="Path_2563" data-name="Path 2563" d="M142.129,71.352h5.151V69.908H135.41v1.443h5.151V85.337h1.568Zm23.641,6.694h7.466V76.6H165.77V71.352h8.013V69.908h-9.531V85.337h9.954V83.894h-8.262V78.046ZM203.1,81.978a6.22,6.22,0,0,1-.946,1.12,4.973,4.973,0,0,1-1.1.722,4.179,4.179,0,0,1-1.17.348,6.772,6.772,0,0,1-1.219,0,6.047,6.047,0,0,1-4.653-2.016,6.42,6.42,0,0,1-1.244-2.115,7.162,7.162,0,0,1-.448-2.488,7.267,7.267,0,0,1,.448-2.489,6.421,6.421,0,0,1,1.244-2.115,6.172,6.172,0,0,1,1.991-1.468,6.52,6.52,0,0,1,2.663-.547,5.151,5.151,0,0,1,1.219.174,5.823,5.823,0,0,1,1.145.473,4.233,4.233,0,0,1,.946.647,3.459,3.459,0,0,1,.647.747l1.369-1.02a5.772,5.772,0,0,0-2.488-1.891,7.913,7.913,0,0,0-2.887-.548,8.337,8.337,0,0,0-3.185.6,7.463,7.463,0,0,0-2.488,1.692,7.865,7.865,0,0,0-1.667,2.489,8.709,8.709,0,0,0,0,6.47,7.862,7.862,0,0,0,1.667,2.488,7.464,7.464,0,0,0,2.488,1.692,8.361,8.361,0,0,0,3.185.622,7.116,7.116,0,0,0,1.817-.224,7.467,7.467,0,0,0,1.593-.6,5.671,5.671,0,0,0,1.319-.921,4.979,4.979,0,0,0,.971-1.095l-1.269-.921Zm18.39,3.36h1.568V78.046h8.386v7.291h1.568V69.908h-1.568V76.6h-8.411V69.908h-1.543V85.337Zm32.351-15.429H251.9V85.337h1.568V72.148h0l9.207,13.189h1.941V69.908h-1.568V82.973h0Zm44.544,7.714a8.064,8.064,0,0,0-.622-3.235,7.866,7.866,0,0,0-1.667-2.488,7.466,7.466,0,0,0-2.489-1.692,8.785,8.785,0,0,0-6.371,0,7.467,7.467,0,0,0-2.489,1.692,7.864,7.864,0,0,0-1.667,2.488,8.71,8.71,0,0,0,0,6.47,7.864,7.864,0,0,0,1.667,2.489,7.468,7.468,0,0,0,2.489,1.692,8.461,8.461,0,0,0,6.371,0,7.467,7.467,0,0,0,2.489-1.692,7.866,7.866,0,0,0,1.667-2.489,8.064,8.064,0,0,0,.622-3.235Zm-1.692,0a7.167,7.167,0,0,1-.448,2.488A6.02,6.02,0,0,1,295,82.227a6.3,6.3,0,0,1-9.307,0,6.417,6.417,0,0,1-1.244-2.115A7.166,7.166,0,0,1,284,77.623a7.265,7.265,0,0,1,.448-2.489,6.419,6.419,0,0,1,1.244-2.115,6.169,6.169,0,0,1,1.991-1.468,6.743,6.743,0,0,1,5.325,0A6.172,6.172,0,0,1,295,73.019a6.02,6.02,0,0,1,1.244,2.115,7.263,7.263,0,0,1,.448,2.489Zm20.928-7.714h-1.568V85.337h8.735V83.894h-7.167V69.908Zm38.871,7.714a8.065,8.065,0,0,0-.622-3.235,8.041,8.041,0,0,0-4.181-4.181,8.785,8.785,0,0,0-6.371,0,7.466,7.466,0,0,0-4.23,4.255,8.71,8.71,0,0,0,0,6.47,7.466,7.466,0,0,0,4.23,4.255,8.461,8.461,0,0,0,6.371,0,8.04,8.04,0,0,0,4.181-4.181,8.061,8.061,0,0,0,.622-3.235Zm-1.692,0a7.164,7.164,0,0,1-.448,2.488,6.42,6.42,0,0,1-1.244,2.115,6.3,6.3,0,0,1-9.307,0,6.021,6.021,0,0,1-1.244-2.115,7.166,7.166,0,0,1-.448-2.488,7.268,7.268,0,0,1,.448-2.489,6.024,6.024,0,0,1,1.244-2.115,6.173,6.173,0,0,1,1.991-1.468,6.743,6.743,0,0,1,5.325,0,6.171,6.171,0,0,1,1.991,1.468,6.42,6.42,0,0,1,1.244,2.115A7.266,7.266,0,0,1,354.8,77.623ZM386.7,71.6a6.546,6.546,0,0,0-2.488-1.568,8.835,8.835,0,0,0-3.185-.5,8.461,8.461,0,0,0-3.21.6,7.691,7.691,0,0,0-2.488,1.692,7.465,7.465,0,0,0-1.692,2.488,9.059,9.059,0,0,0,0,6.47,7.466,7.466,0,0,0,1.692,2.489,7.69,7.69,0,0,0,2.489,1.692,8.485,8.485,0,0,0,3.21.622,11.794,11.794,0,0,0,2.961-.423,10.747,10.747,0,0,0,2.862-1.145V76.553H381.6V78h3.683v5.176a7.738,7.738,0,0,1-1.966.8,8.759,8.759,0,0,1-2.289.3,6.072,6.072,0,0,1-2.663-.547,5.924,5.924,0,0,1-1.991-1.468,6.47,6.47,0,0,1-1.269-2.115,7.766,7.766,0,0,1-.423-2.488,7.862,7.862,0,0,1,.423-2.489,6.47,6.47,0,0,1,1.269-2.115,5.924,5.924,0,0,1,1.991-1.468,6.446,6.446,0,0,1,2.663-.547,6.121,6.121,0,0,1,2.488.5,5.474,5.474,0,0,1,1.866,1.294l1.17-1.145Zm23.865,7.092,5.773-8.784h-1.966l-4.6,7.291-4.579-7.291h-2.041l5.773,8.784v6.644h1.568V78.693ZM451,71.4a5.176,5.176,0,0,0-1.991-1.468,6.445,6.445,0,0,0-2.364-.4,6.568,6.568,0,0,0-1.841.249,4.979,4.979,0,0,0-1.593.8,4.206,4.206,0,0,0-1.145,1.394,4.255,4.255,0,0,0-.423,1.916,4.183,4.183,0,0,0,.348,1.792,3.484,3.484,0,0,0,.9,1.17,4.678,4.678,0,0,0,1.269.771q.633.318,1.294.572l1.468.473a7.471,7.471,0,0,1,1.269.6,3.309,3.309,0,0,1,.871.9,2.653,2.653,0,0,1,.05,2.538,3.339,3.339,0,0,1-.771.9,3.882,3.882,0,0,1-1.07.523,3.73,3.73,0,0,1-1.17.2,4.106,4.106,0,0,1-2.115-.523,3.806,3.806,0,0,1-1.394-1.344l-1.418,1.02a5.2,5.2,0,0,0,2.165,1.742,7.018,7.018,0,0,0,2.688.547,4.974,4.974,0,0,0,1.816-.324,4.727,4.727,0,0,0,1.643-.871,4.234,4.234,0,0,0,1.17-1.394,4.006,4.006,0,0,0,.448-1.891,3.76,3.76,0,0,0-.572-2.19,4.554,4.554,0,0,0-1.468-1.294,8.864,8.864,0,0,0-1.916-.8,16.811,16.811,0,0,1-1.891-.647,5.148,5.148,0,0,1-1.468-.946,2.215,2.215,0,0,1-.572-1.642,2.49,2.49,0,0,1,.274-1.244,2.838,2.838,0,0,1,.747-.871,3.235,3.235,0,0,1,1.07-.5,4.6,4.6,0,0,1,1.195-.174,3.384,3.384,0,0,1,2.986,1.518l1.369-1.07Zm33,6.221a8.511,8.511,0,0,0-.622-3.235,7.464,7.464,0,0,0-1.692-2.489,7.691,7.691,0,0,0-2.488-1.692,8.785,8.785,0,0,0-6.371,0,7.464,7.464,0,0,0-2.488,1.692,7.942,7.942,0,0,0-1.692,2.489,9.059,9.059,0,0,0,0,6.47,7.941,7.941,0,0,0,1.692,2.489,7.466,7.466,0,0,0,2.488,1.692,8.461,8.461,0,0,0,6.37,0,7.69,7.69,0,0,0,2.489-1.692,7.465,7.465,0,0,0,1.692-2.489A8.509,8.509,0,0,0,484,77.623Zm-1.717,0a7.166,7.166,0,0,1-.423,2.488,6.892,6.892,0,0,1-1.244,2.115,6.5,6.5,0,0,1-7.316,1.468,5.922,5.922,0,0,1-1.991-1.468,6.017,6.017,0,0,1-1.244-2.115,7.167,7.167,0,0,1-.448-2.488,7.266,7.266,0,0,1,.448-2.489,6.023,6.023,0,0,1,1.244-2.115,5.922,5.922,0,0,1,1.991-1.468,6.7,6.7,0,0,1,5.3,0,6.024,6.024,0,0,1,2.016,1.468,6.892,6.892,0,0,1,1.244,2.115,7.243,7.243,0,0,1,.423,2.489Zm20.928-7.714h-1.568V85.337H510.4V83.894h-7.192Zm34.839,0h-1.568v9.506a6.921,6.921,0,0,1-.224,1.891,4.967,4.967,0,0,1-.573,1.344,3.454,3.454,0,0,1-.821.871,3.907,3.907,0,0,1-.9.473,3.836,3.836,0,0,1-.871.249h-1.418a4.2,4.2,0,0,1-.871-.249,3.759,3.759,0,0,1-.871-.473,3.455,3.455,0,0,1-.821-.871,4.982,4.982,0,0,1-.573-1.344,6.918,6.918,0,0,1-.224-1.891V69.908h-1.568v9.68a9.952,9.952,0,0,0,.224,2.041,5.923,5.923,0,0,0,.871,1.991,5.4,5.4,0,0,0,1.717,1.518,6.969,6.969,0,0,0,5.649,0,5.228,5.228,0,0,0,1.742-1.518,5.425,5.425,0,0,0,.846-1.991,10.149,10.149,0,0,0,.249-2.041Zm23.367,1.443h5.176V69.908H554.7v1.443h5.151V85.337h1.568Zm23.666-1.443h-1.568V85.337h1.568ZM618.8,77.623a8.516,8.516,0,0,0-.6-3.235,7.462,7.462,0,0,0-1.692-2.489,7.688,7.688,0,0,0-2.488-1.692,8.435,8.435,0,0,0-3.185-.6,8.56,8.56,0,0,0-3.21.6,7.691,7.691,0,0,0-2.489,1.692,7.938,7.938,0,0,0-1.692,2.488,9.058,9.058,0,0,0,0,6.47,7.938,7.938,0,0,0,1.692,2.489,7.691,7.691,0,0,0,2.489,1.692,8.584,8.584,0,0,0,3.21.622,8.436,8.436,0,0,0,3.185-.622,7.69,7.69,0,0,0,2.488-1.692,7.461,7.461,0,0,0,1.692-2.488,8.516,8.516,0,0,0,.6-3.235Zm-1.692,0a7.772,7.772,0,0,1-.423,2.488,6.475,6.475,0,0,1-1.269,2.115,5.7,5.7,0,0,1-1.991,1.468,6.7,6.7,0,0,1-5.3,0,5.924,5.924,0,0,1-1.99-1.468,6.47,6.47,0,0,1-1.269-2.115,7.76,7.76,0,0,1-.423-2.488,7.862,7.862,0,0,1,.423-2.488,6.464,6.464,0,0,1,1.269-2.115,5.924,5.924,0,0,1,1.99-1.468,6.7,6.7,0,0,1,5.3,0,5.7,5.7,0,0,1,1.991,1.468,6.471,6.471,0,0,1,1.269,2.115A7.867,7.867,0,0,1,617.111,77.623Zm21.326-7.714h-1.966V85.337h1.568V72.148h0l9.182,13.189h1.966V69.908H647.62V82.973h0ZM676.611,71.4a4.976,4.976,0,0,0-1.991-1.468,7.017,7.017,0,0,0-4.181-.149,5.176,5.176,0,0,0-1.617.8,3.857,3.857,0,0,0-1.12,1.394,3.956,3.956,0,0,0-.423,1.916,4.2,4.2,0,0,0,.323,1.792,3.487,3.487,0,0,0,.9,1.17,4.68,4.68,0,0,0,1.269.771,12.806,12.806,0,0,0,1.468.547l1.443.473a7.466,7.466,0,0,1,1.269.6,3.062,3.062,0,0,1,.9.9,2.743,2.743,0,0,1,.025,2.538,2.959,2.959,0,0,1-.771.9,3.732,3.732,0,0,1-1.045.523,4.131,4.131,0,0,1-3.285-.324,3.883,3.883,0,0,1-1.419-1.344l-1.393,1.02a5.2,5.2,0,0,0,2.165,1.742,7.017,7.017,0,0,0,2.688.547,5.175,5.175,0,0,0,1.817-.323,4.975,4.975,0,0,0,1.617-.871,4.3,4.3,0,0,0,1.195-1.394,4.007,4.007,0,0,0,.448-1.891,3.584,3.584,0,0,0-.6-2.19,4.3,4.3,0,0,0-1.468-1.294,8.635,8.635,0,0,0-1.891-.8,17.264,17.264,0,0,1-1.916-.647,4.679,4.679,0,0,1-1.443-.946,2.214,2.214,0,0,1-.6-1.642,2.783,2.783,0,0,1,.274-1.244,2.487,2.487,0,0,1,.771-.871,2.912,2.912,0,0,1,1.045-.5,4.974,4.974,0,0,1,1.195-.174,3.334,3.334,0,0,1,2.986,1.518Z" transform="translate(201.567 103.466)" fill="#626366"/>
        <path id="Path_2564" data-name="Path 2564" d="M217,137.739a185.4,185.4,0,0,0-26.7,22.571l-12.866-10.8c-.523-33.2,8.934-27.374,14.408-40.413-5.475,1.493-10.377,8.859-14.16,12.443-25.532-18.639-24.114-17.071-23.74-32.351-8.685,5.375,2.489,7.466-8.635,17.42a150.627,150.627,0,0,1-15.578,11.149c-9.133-6.221-18.316-13.289-22.173-22.148l-2.787-5.724c0,9.631,2.289,7.764-10.949,17.917-5.748,4.181-11.074,7.889-16.1,11.646l-10.526-7.69c2.488,15.379,11.173,1.394,7.466,35.088-.8,7.242-14.931,19.759-21.227,23.691L35.242,162.8c8.287-32.9,39.269-75.5,78.911-81.573C159.742,74.232,208.044,106.608,217,137.739Zm66.045,60.421c12.716-2.489,18.838-12.443-3.459-16.051-32.6-5.425-32.052-17.718-16.623-27.822,14.931,3.509,43.325-5.674,46.61-14.035,8.66-51.91-40.463-68.559-62.586-55.369-6.744-30.658-26.2-70.873-49.77-81.175,0,43.1,34.59,82.942,41.484,86.5-9.407,11.074-12.443,26.9-9.481,34.416C155.835,15.379,35.118,71.1,22.053,136.719a58.231,58.231,0,0,0-.821,15.553,15.777,15.777,0,0,0-16.5,2.339c-6.644,5.948-6.246,17.221.871,25.134s18.291,9.481,24.885,3.534a13.688,13.688,0,0,0,1.817-1.991,44.793,44.793,0,0,1-17.42-3.31c-4.977-2.489,15.279-5.748,19.684-10.825a8.113,8.113,0,0,0,2.364,1.667C75.158,186.39,121.1,195.4,166.337,183.5c14.682-3.857,25.781-20.555,43.848-34.839,6.619-5.2,17.071-13.513,29.464-8.511,2.489,1.02,9.556,7.889,10.725,9.307,4.28,5.151,3.583,7.814,2.016,14.334-17.569,5.948-37.776,11.572-50.616,21.451,1.369,1.991,5.375,4.977,7.466,7.466a6.221,6.221,0,0,1,1.593,6.1L283,198.235ZM32.355,181.288a17.419,17.419,0,0,0,7.466-1.916c3.509,4.678,5.35,6.744,5.226,10.676a55.521,55.521,0,0,1-12.691-8.76Zm43.076,17.22c.946-1.891.722-4.28-1.518-7.316,42.3,5.525,61.193,6.172,102.353-.373,4.629,2.688,3.807,5.773,3.708,8.262H87.1a113.133,113.133,0,0,1-11.547-.572Zm25.507-15.827c-.722-8.859-17.221-21.028-24.163-26.652L57.24,171.857a156.13,156.13,0,0,0,43.673,10.825Zm86.1-18.689a83.939,83.939,0,0,0-11.522-11.273c-4.181,1.792-.174-.324-4.43,2.688-1,.7-2.489,2.09-3.982,3.136-14.06,10.676-17.793,11.074-17.967,23.392,23.342-3.285,26.378-7.316,37.9-17.942ZM104.92,182.931c12.044,3.409,40.538,3.21,41.309-1.269.722-4.056-3.136-14.234-17.42-22.6-7.466,3.583-22.646,15.354-23.84,23.89Zm68.932-58.8c-6.694-5.45-14.11-13.04-22.4-16.748-6.619,3.982-13.537,9.456-19.709,13.712-.423,6-1.667,27.374-.323,31.878s13.264,13.338,17.071,14.931l12.443-10.228c3.907-3.036,9.581-8.013,12.443-10.526l.547-22.944ZM125.7,156c.423-8.337,2.613-28.991-.647-35.486-1.02-2.065-15.8-15.255-18.315-16.748C95.912,109.32,88.745,119.1,79.09,123.43l-.7,29.862c9.456,6.072,19.162,16.5,25.034,19.609,8.635-4.828,12.94-11.671,22.272-16.822Zm110.39-12.268a4.006,4.006,0,1,1-4.106,3.907A4.006,4.006,0,0,1,236.09,143.736Zm47.282-45.067a6.221,6.221,0,1,1-6.072,6.221,6.147,6.147,0,0,1,6.072-6.221ZM250.1,76.422c-1-3.235-1.866-10.949-4.977-18.017C246.84,47.431,237.658,21.078,252.439,0,269.137,33.2,252.265,73.436,250.1,76.422Z" transform="translate(0.003)" fill="#00adee" fill-rule="evenodd"/>
      </g>
    </g>
  </g>
</svg>
