<svg width="308" height="70" viewBox="0 0 308 70" fill="none" xmlns="http://www.w3.org/2000/svg">
<path d="M118.149 51.7054V34.4036H125.47C126.329 34.3448 127.19 34.4701 127.997 34.771C128.803 35.072 129.536 35.5416 130.146 36.1485C131.11 37.2462 131.605 38.6776 131.525 40.1359C131.569 41.3258 131.249 42.5009 130.609 43.5049C129.99 44.4083 129.11 45.1021 128.087 45.4941L132.005 51.6706H127.878L124.44 46.1301H121.666V51.6706L118.149 51.7054ZM121.64 42.8144H125.216C125.944 42.8564 126.66 42.6158 127.214 42.1426C127.449 41.9183 127.635 41.647 127.758 41.3463C127.881 41.0457 127.94 40.7224 127.93 40.3976C127.952 40.0555 127.898 39.7127 127.771 39.3942C127.645 39.0757 127.448 38.7895 127.197 38.5565C126.617 38.1005 125.89 37.8737 125.154 37.9195H121.666V42.8931L121.64 42.8144ZM137.86 51.9409C136.757 51.9768 135.681 51.5934 134.85 50.8678C134.443 50.492 134.125 50.0314 133.917 49.5187C133.709 49.0061 133.616 48.4538 133.645 47.9013V47.849C133.605 47.2548 133.705 46.6595 133.937 46.1109C134.169 45.5623 134.526 45.0758 134.98 44.6905C136.014 43.9391 137.273 43.5635 138.549 43.626C139.572 43.625 140.586 43.8113 141.542 44.1757V43.9576C141.565 43.6269 141.517 43.295 141.403 42.9838C141.289 42.6726 141.11 42.389 140.879 42.1516C140.327 41.7035 139.625 41.482 138.916 41.532C137.752 41.5568 136.602 41.8026 135.529 42.2561L134.656 39.3855C135.363 39.0443 136.103 38.7753 136.864 38.5827C137.703 38.3971 138.561 38.3093 139.42 38.321C140.177 38.2627 140.937 38.3647 141.651 38.6203C142.366 38.8759 143.018 39.2793 143.566 39.8043C144.529 40.9916 145.004 42.5021 144.892 44.0273V51.715H141.524V50.2666C141.08 50.8053 140.519 51.2359 139.885 51.5262C139.25 51.8164 138.557 51.9585 137.859 51.9419L137.86 51.9409ZM138.915 49.3235C139.626 49.3527 140.323 49.1234 140.878 48.6779C141.123 48.4762 141.319 48.2212 141.45 47.9324C141.582 47.6436 141.646 47.3286 141.637 47.0114V46.3484C140.948 46.0092 140.189 45.8387 139.421 45.851C138.804 45.8198 138.193 45.9847 137.676 46.3222C137.466 46.4774 137.298 46.6822 137.187 46.9182C137.076 47.1543 137.025 47.4141 137.039 47.6746C137.029 47.8981 137.072 48.1207 137.162 48.325C137.253 48.5294 137.39 48.7099 137.562 48.8525C137.957 49.1532 138.445 49.3046 138.941 49.28L138.915 49.3235ZM155.24 51.9409C154.492 51.9437 153.755 51.767 153.09 51.4255C152.425 51.0839 151.852 50.5877 151.418 49.9785V51.7235H147.928V33.6707H151.418V40.3628C151.819 39.7085 152.381 39.1677 153.05 38.792C153.719 38.4162 154.473 38.218 155.24 38.2163C155.96 38.2126 156.672 38.3675 157.325 38.6701C157.985 38.9841 158.577 39.4226 159.07 39.9615C159.629 40.5938 160.053 41.3329 160.318 42.134C160.642 43.0741 160.802 44.0632 160.789 45.0576C160.803 46.0533 160.649 47.0442 160.335 47.9892C160.073 48.7888 159.648 49.5255 159.088 50.1531C158.597 50.697 158.004 51.1388 157.343 51.4531C156.678 51.7489 155.959 51.9006 155.231 51.8981L155.24 51.9409ZM154.368 48.757C154.775 48.7611 155.177 48.6721 155.545 48.4967C155.912 48.3213 156.235 48.0641 156.488 47.7449C157.089 47.0085 157.4 46.0769 157.36 45.1269C157.399 44.177 157.089 43.2457 156.488 42.5094C156.235 42.1899 155.914 41.9316 155.547 41.7541C155.181 41.5766 154.779 41.4843 154.372 41.4843C153.965 41.4843 153.563 41.5766 153.196 41.7541C152.83 41.9316 152.508 42.1899 152.256 42.5094C151.655 43.246 151.345 44.1771 151.383 45.1269C151.346 46.0764 151.656 47.0069 152.256 47.7443C152.508 48.0619 152.829 48.3179 153.195 48.4933C153.561 48.6686 153.962 48.7585 154.367 48.7564L154.368 48.757ZM170.718 51.9409C169.971 51.9437 169.234 51.767 168.568 51.4255C167.903 51.0839 167.33 50.5877 166.897 49.9785V51.7235H163.407V33.6707H166.897V40.3628C167.296 39.7073 167.858 39.1656 168.527 38.7897C169.196 38.4138 169.951 38.2164 170.718 38.2163C171.438 38.2146 172.15 38.3694 172.804 38.6701C173.463 38.9834 174.056 39.422 174.549 39.9615C175.11 40.5932 175.537 41.3323 175.805 42.134C176.129 43.0741 176.289 44.0632 176.276 45.0576C176.287 46.0538 176.131 47.0447 175.814 47.9892C175.54 48.8101 175.094 49.5629 174.505 50.1968C174.01 50.7318 173.418 51.1671 172.76 51.4794C172.099 51.776 171.382 51.9277 170.657 51.9243L170.718 51.9409ZM169.846 48.757C170.24 48.7489 170.627 48.654 170.98 48.4791C171.333 48.3041 171.643 48.0534 171.888 47.7449C172.49 47.0084 172.8 46.0768 172.76 45.1269C172.799 44.177 172.489 43.2457 171.887 42.5094C171.635 42.1892 171.313 41.9303 170.946 41.752C170.58 41.5737 170.177 41.4806 169.769 41.4798C169.362 41.4789 168.959 41.5703 168.591 41.7471C168.224 41.9239 167.901 42.1815 167.647 42.5006C167.049 43.2388 166.739 44.1688 166.775 45.1181C166.742 46.067 167.051 46.9962 167.647 47.7355C167.901 48.0537 168.223 48.3102 168.591 48.4855C168.958 48.6608 169.36 48.7504 169.767 48.7476L169.846 48.757ZM178.868 37.0042V33.6707H182.541V37.0036L178.868 37.0042ZM178.972 51.706V38.4608H182.463V51.7054L178.972 51.706ZM189.861 51.9241C188.908 51.9882 187.968 51.6748 187.244 51.0516C186.888 50.6306 186.62 50.1428 186.456 49.617C186.291 49.0911 186.233 48.5377 186.284 47.989V41.6812H184.818V38.4608H186.284V35.0842H189.774V38.4608H192.662V41.6804H189.774V47.3342C189.745 47.679 189.841 48.0228 190.044 48.3026C190.156 48.4185 190.293 48.5071 190.444 48.5616C190.595 48.6161 190.757 48.635 190.917 48.6168C191.531 48.6253 192.136 48.4621 192.662 48.1456V51.1558C191.836 51.6716 190.879 51.9382 189.905 51.9235L189.861 51.9241ZM220.67 51.706V37.9111H215.801V34.421H229.072V37.9111H224.239V51.7054L220.67 51.706ZM235.031 52.0026C236.235 52.0174 237.419 51.6972 238.452 51.0777C239.448 50.464 240.264 49.5969 240.816 48.5647C241.402 47.4955 241.702 46.2936 241.689 45.0746C241.708 43.855 241.407 42.6516 240.816 41.5845C240.267 40.5565 239.446 39.6992 238.443 39.1066C237.421 38.4939 236.249 38.1767 235.058 38.1905C234.157 38.1907 233.267 38.3746 232.44 38.7311C231.649 39.0859 230.937 39.5963 230.347 40.232C229.751 40.8716 229.28 41.6174 228.959 42.4307C228.619 43.2795 228.447 44.1863 228.453 45.1006V45.1529C228.44 46.3719 228.74 47.5738 229.326 48.643C229.883 49.682 230.715 50.5484 231.73 51.1483C232.745 51.7481 233.905 52.0586 235.084 52.0459L235.031 52.0026ZM235.084 48.7568C234.641 48.7674 234.201 48.6762 233.798 48.4901C233.396 48.3041 233.042 48.0282 232.763 47.6836C232.157 46.9498 231.846 46.0168 231.89 45.0662C231.865 44.1343 232.175 43.2243 232.763 42.501C233.042 42.1615 233.396 41.891 233.797 41.7109C234.198 41.5307 234.635 41.4456 235.075 41.4623C235.505 41.4614 235.929 41.5555 236.319 41.738C236.708 41.9206 237.052 42.1869 237.326 42.518C237.945 43.2472 238.271 44.1798 238.242 45.1357V45.1869C238.271 46.1194 237.961 47.0307 237.37 47.7521C237.09 48.0917 236.736 48.362 236.335 48.5421C235.934 48.7222 235.497 48.8072 235.057 48.7904L235.084 48.7568ZM244.201 51.7058V38.4608H247.692V41.1219C248.465 39.0977 249.771 38.1292 251.609 38.2165V42.1432H251.417C250.9 42.1123 250.383 42.2017 249.906 42.4045C249.429 42.6073 249.006 42.9179 248.669 43.3118C247.949 44.327 247.604 45.5605 247.692 46.8019V51.7054L244.201 51.7058ZM257.926 51.9239C256.973 51.988 256.033 51.6746 255.309 51.0514C254.953 50.6304 254.685 50.1426 254.52 49.6168C254.355 49.0909 254.297 48.5375 254.349 47.9888V41.681H252.883V38.4608H254.349V35.0842H257.839V38.4608H260.727V41.6804H257.839V47.3342C257.809 47.679 257.905 48.0228 258.109 48.3026C258.221 48.4179 258.358 48.5062 258.509 48.5606C258.66 48.6151 258.822 48.6343 258.982 48.6168C259.596 48.6258 260.2 48.4625 260.727 48.1456V51.1558C259.9 51.6717 258.943 51.9382 257.969 51.9235L257.926 51.9239ZM268.954 52.0024C267.763 52.0171 266.591 51.6999 265.569 51.0863C264.566 50.4857 263.743 49.6269 263.186 48.5996C262.601 47.5304 262.3 46.3284 262.314 45.1094V45.0572C262.312 44.1432 262.484 43.2372 262.82 42.3873C263.139 41.5713 263.613 40.8247 264.216 40.1885C264.816 39.5594 265.537 39.0579 266.336 38.7139C267.162 38.3562 268.053 38.1722 268.954 38.1732C270.148 38.1597 271.322 38.4768 272.348 39.0894C273.351 39.6818 274.173 40.5389 274.722 41.5669C275.312 42.634 275.613 43.8374 275.594 45.057C275.607 46.2759 275.307 47.4777 274.722 48.5471C274.165 49.5843 273.339 50.4523 272.331 51.06C271.302 51.6806 270.121 52.0009 268.919 51.985L268.954 52.0024ZM268.998 48.7566C269.445 48.7795 269.89 48.6976 270.299 48.5173C270.708 48.337 271.07 48.0633 271.354 47.7183C271.942 46.995 272.251 46.085 272.226 45.1531V45.1008C272.267 44.1508 271.957 43.2189 271.354 42.4836C271.072 42.1426 270.717 41.8697 270.315 41.6854C269.913 41.5011 269.475 41.41 269.033 41.4191C268.593 41.4016 268.156 41.4862 267.755 41.6664C267.354 41.8465 267 42.1173 266.721 42.4574C266.129 43.1788 265.819 44.0901 265.848 45.0225C265.808 45.9725 266.119 46.9041 266.721 47.64C267.001 47.983 267.356 48.2578 267.758 48.4437C268.16 48.6296 268.599 48.7218 269.042 48.7131L268.998 48.7566ZM278.194 37.0038V33.6707H281.824V37.0036L278.194 37.0038ZM278.335 51.7056V38.4608H281.825V51.7054L278.335 51.7056ZM289.389 51.9411C288.447 51.9571 287.509 51.8004 286.623 51.4788C285.689 51.1443 284.825 50.6383 284.076 49.9867L285.568 47.5174C286.643 48.4613 288.004 49.0174 289.433 49.0966C289.821 49.1266 290.209 49.0318 290.54 48.8261C290.656 48.7441 290.749 48.6353 290.813 48.5092C290.877 48.3831 290.909 48.2433 290.907 48.102V47.9886C290.92 47.9048 290.92 47.8193 290.907 47.7355C290.881 47.6537 290.836 47.5791 290.776 47.5174C290.722 47.4473 290.66 47.3829 290.593 47.3254C290.51 47.2565 290.419 47.1979 290.322 47.151L290.017 47.0108L289.65 46.8624L289.267 46.7315L288.839 46.5913L288.394 46.4511C287.994 46.329 287.644 46.198 287.347 46.0758C287.008 45.9333 286.683 45.758 286.378 45.5524C286.051 45.3591 285.756 45.1146 285.506 44.8283C285.261 44.5265 285.072 44.1839 284.947 43.8162C284.792 43.3855 284.715 42.9304 284.72 42.4726C284.691 41.8961 284.791 41.3204 285.013 40.7875C285.234 40.2547 285.572 39.778 286.002 39.3926C286.891 38.6312 288.035 38.2333 289.205 38.2784C290.016 38.2822 290.82 38.4175 291.587 38.6789C292.374 38.9388 293.115 39.3184 293.786 39.8045L292.46 42.4219C291.486 41.72 290.34 41.2948 289.144 41.1916C288.808 41.17 288.474 41.2589 288.193 41.4447C288.088 41.5181 288.002 41.616 287.942 41.73C287.883 41.844 287.852 41.9706 287.853 42.0991V42.1514C287.859 42.266 287.89 42.3778 287.944 42.4789C287.998 42.5799 288.074 42.6677 288.167 42.7359C288.381 42.9113 288.619 43.0556 288.874 43.1644C289.135 43.2778 289.502 43.4176 289.973 43.592L290.348 43.7321C290.758 43.8723 291.107 44.0113 291.404 44.1422C291.746 44.2933 292.076 44.4713 292.39 44.6745C292.716 44.8726 293.011 45.1198 293.262 45.4074C293.777 46.0484 294.06 46.8449 294.065 47.6672C294.106 48.262 294.01 48.8583 293.785 49.4102C293.559 49.9622 293.21 50.4551 292.765 50.8512C291.796 51.6062 290.589 51.9897 289.362 51.9325L289.389 51.9411ZM302.398 52.0022C301.539 52.0284 300.685 51.8707 299.892 51.5396C299.099 51.2086 298.386 50.7118 297.8 50.0826C296.569 48.7429 295.917 46.9711 295.985 45.1529V45.1006C295.976 43.9084 296.239 42.7298 296.753 41.6542C297.238 40.6413 297.985 39.7767 298.917 39.1501C299.849 38.5291 300.947 38.2038 302.067 38.2165C302.974 38.2076 303.87 38.4108 304.684 38.8098C305.435 39.1778 306.081 39.7301 306.56 40.4152C307.049 41.1086 307.412 41.8823 307.633 42.7013C307.879 43.5698 308.003 44.4685 308 45.3712C308.002 45.7004 307.987 46.0295 307.956 46.3572H299.405C299.524 47.1031 299.894 47.7862 300.453 48.2942C301.007 48.7425 301.703 48.9777 302.415 48.9572C302.953 48.9645 303.486 48.8543 303.977 48.6344C304.499 48.3818 304.974 48.0425 305.382 47.631L307.371 49.5333C306.803 50.3267 306.048 50.9673 305.173 51.3981C304.297 51.829 303.329 52.0366 302.354 52.0026L302.398 52.0022ZM299.405 44.0455H304.64C304.571 43.2877 304.266 42.5706 303.767 41.9952C303.55 41.7485 303.281 41.5526 302.98 41.4214C302.678 41.2902 302.351 41.2269 302.023 41.236C301.695 41.2298 301.37 41.2935 301.069 41.4229C300.768 41.5523 300.498 41.7444 300.278 41.9864C299.774 42.5665 299.455 43.2834 299.361 44.0455H299.405Z" fill="#787878"/>
<path d="M214.03 50.6054L210.278 46.5037C210.888 45.6391 211.436 44.7323 211.918 43.7902C212.424 42.8218 212.913 41.7835 213.384 40.6839L211.386 39.6893C210.996 40.6549 210.586 41.571 210.156 42.4377C209.751 43.2656 209.3 44.0696 208.803 44.8459L203.9 39.455C205.317 38.9798 206.604 38.1823 207.66 37.1253C208.315 36.3318 208.742 35.3754 208.896 34.3581C209.05 33.3408 208.924 32.3008 208.533 31.3493C208.29 30.7264 207.932 30.1551 207.477 29.6654C207.01 29.1859 206.452 28.8034 205.837 28.5398C205.177 28.262 204.467 28.1224 203.751 28.1297C202.954 28.1166 202.163 28.2618 201.422 28.5571C200.771 28.8297 200.179 29.2283 199.682 29.73C199.185 30.2317 198.792 30.8267 198.526 31.4807C198.244 32.1668 198.101 32.9021 198.106 33.6438C198.096 34.5264 198.274 35.401 198.63 36.209C199.062 37.1298 199.611 37.9918 200.261 38.7741C198.78 39.3543 197.463 40.2855 196.422 41.4877C195.513 42.6214 195.034 44.0399 195.069 45.4927C195.057 46.4076 195.229 47.3157 195.575 48.1626C195.899 48.9421 196.38 49.6461 196.989 50.2304C197.607 50.8106 198.338 51.2589 199.135 51.5478C199.995 51.8672 200.906 52.0269 201.823 52.019C203.163 52.0378 204.485 51.7103 205.662 51.068C206.874 50.3973 207.953 49.5102 208.846 48.4505L212.222 52.1936L214.03 50.6054ZM206.7 33.4954C206.712 33.9798 206.626 34.4617 206.446 34.9116C206.266 35.3615 205.996 35.7702 205.653 36.1128C204.764 36.9341 203.707 37.5532 202.556 37.9277C202.2 37.5323 201.865 37.1188 201.552 36.6887C201.302 36.3498 201.081 35.9909 200.889 35.6156C200.738 35.3097 200.62 34.9878 200.54 34.6558C200.468 34.3293 200.433 33.9956 200.435 33.6612C200.402 32.773 200.715 31.9067 201.308 31.2448C201.61 30.9256 201.976 30.6747 202.383 30.5091C202.789 30.3435 203.226 30.2669 203.665 30.2846C204.07 30.2668 204.474 30.3355 204.85 30.4859C205.226 30.6363 205.566 30.8651 205.846 31.1571C206.139 31.4686 206.366 31.835 206.516 32.235C206.665 32.635 206.734 33.0608 206.718 33.4876L206.7 33.4954ZM207.311 46.7663C206.605 47.6332 205.759 48.3763 204.808 48.965C203.949 49.4975 202.957 49.7786 201.946 49.7764C201.325 49.7868 200.709 49.6741 200.132 49.4448C199.602 49.2426 199.12 48.9328 198.716 48.5348C198.312 48.1369 197.995 47.6594 197.784 47.1327C197.488 46.3802 197.393 45.5633 197.509 44.7629C197.625 43.9625 197.949 43.2064 198.447 42.5694C199.265 41.579 200.34 40.8333 201.553 40.4144L207.311 46.7663Z" fill="#B2B2B2"/>
<path d="M120.505 61.2935H122.311V60.7875H118.149V61.2935H119.955V66.197H120.505V61.2935ZM128.794 63.6406H131.411V63.1344H128.794V61.2935H131.604V60.7875H128.262V66.197H131.752V65.691H128.855V63.6406H128.794ZM141.882 65.0191C141.787 65.1627 141.676 65.2945 141.55 65.4118C141.434 65.5127 141.305 65.5977 141.166 65.6647C141.036 65.7253 140.898 65.7665 140.756 65.7869C140.614 65.7998 140.471 65.7998 140.329 65.7869C140.022 65.7943 139.717 65.7349 139.435 65.6129C139.153 65.4908 138.901 65.3091 138.697 65.0802C138.505 64.8636 138.357 64.612 138.261 64.3393C138.157 64.0601 138.104 63.7647 138.104 63.4668C138.105 63.1691 138.158 62.8738 138.261 62.5943C138.357 62.3216 138.505 62.0701 138.697 61.8534C138.892 61.6364 139.13 61.4613 139.395 61.3386C139.689 61.2097 140.007 61.1442 140.329 61.1465C140.473 61.1497 140.617 61.1702 140.756 61.2076C140.895 61.2485 141.029 61.3041 141.157 61.3734C141.277 61.4336 141.388 61.51 141.488 61.6003C141.576 61.6762 141.652 61.7644 141.715 61.862L142.196 61.5044C141.971 61.2073 141.669 60.9779 141.323 60.8414C141.001 60.7147 140.657 60.6496 140.311 60.6493C139.929 60.6454 139.549 60.7166 139.194 60.8588C138.866 60.9953 138.569 61.1972 138.322 61.4521C138.073 61.7028 137.874 61.999 137.737 62.3246C137.446 63.0528 137.446 63.8651 137.737 64.5932C137.874 64.9188 138.073 65.215 138.322 65.4657C138.569 65.7206 138.866 65.9225 139.194 66.059C139.549 66.204 139.928 66.2781 140.311 66.2771C140.526 66.2785 140.74 66.2521 140.948 66.1986C141.142 66.1503 141.329 66.08 141.507 65.9891C141.675 65.9041 141.831 65.7954 141.969 65.6663C142.101 65.5559 142.215 65.4265 142.309 65.2825L141.864 64.9597L141.882 65.0191ZM148.33 66.197H148.879V63.6406H151.82V66.197H152.37V60.7875H151.82V63.1344H148.871V60.7875H148.33V66.197H148.33ZM159.672 60.7875H158.991V66.197H159.541V61.5727L162.769 66.197H163.45V60.7875H162.901V65.3682L159.672 60.7875ZM175.29 63.4922C175.296 63.1032 175.222 62.7171 175.072 62.358C174.935 62.0324 174.737 61.7362 174.488 61.4856C174.24 61.2306 173.943 61.0287 173.615 60.8922C172.897 60.6128 172.1 60.6128 171.382 60.8922C171.054 61.0287 170.757 61.2306 170.509 61.4856C170.26 61.7362 170.062 62.0324 169.925 62.358C169.633 63.0862 169.633 63.8985 169.925 64.6267C170.062 64.9522 170.26 65.2484 170.509 65.4991C170.757 65.7541 171.054 65.956 171.382 66.0925C172.098 66.3835 172.899 66.3835 173.615 66.0925C173.943 65.956 174.24 65.7541 174.488 65.4991C174.737 65.2484 174.935 64.9522 175.072 64.6267C175.222 64.2676 175.296 63.8815 175.29 63.4925V63.4922ZM174.697 63.4922C174.697 63.7901 174.644 64.0855 174.54 64.3647C174.447 64.639 174.298 64.8912 174.104 65.1057C173.897 65.3328 173.645 65.5143 173.364 65.6385C173.083 65.7626 172.779 65.8268 172.472 65.8268C172.164 65.8268 171.861 65.7626 171.579 65.6385C171.298 65.5143 171.046 65.3328 170.84 65.1057C170.648 64.889 170.5 64.6375 170.403 64.3647C170.3 64.0855 170.246 63.7901 170.246 63.4922C170.247 63.1945 170.3 62.8992 170.403 62.6198C170.5 62.3471 170.648 62.0955 170.84 61.8788C171.035 61.6619 171.273 61.4867 171.538 61.364C171.833 61.2373 172.15 61.1719 172.471 61.1719C172.792 61.1719 173.11 61.2373 173.405 61.364C173.67 61.4867 173.907 61.6619 174.103 61.8788C174.297 62.0933 174.446 62.3455 174.539 62.6198C174.642 62.8992 174.695 63.1945 174.696 63.4922H174.697ZM182.035 60.7875H181.486V66.197H184.549V65.691H182.035V60.7875ZM195.664 63.4922C195.67 63.1032 195.595 62.7171 195.446 62.358C195.161 61.701 194.637 61.1769 193.98 60.8922C193.261 60.6128 192.464 60.6128 191.746 60.8922C191.409 61.0248 191.103 61.2259 190.848 61.4827C190.593 61.7395 190.393 62.0465 190.263 62.3843C189.972 63.1124 189.972 63.9247 190.263 64.6529C190.393 64.9907 190.593 65.2977 190.848 65.5545C191.103 65.8113 191.409 66.0124 191.746 66.1449C192.462 66.4359 193.264 66.4359 193.98 66.1449C194.637 65.8602 195.161 65.3361 195.446 64.6791C195.596 64.3201 195.67 63.934 195.664 63.5449V63.4922ZM195.07 63.4922C195.07 63.7901 195.017 64.0855 194.913 64.3647C194.817 64.6374 194.669 64.889 194.477 65.1057C194.27 65.3328 194.018 65.5142 193.737 65.6384C193.456 65.7625 193.152 65.8267 192.845 65.8267C192.538 65.8267 192.234 65.7625 191.953 65.6384C191.672 65.5142 191.42 65.3328 191.213 65.1057C191.018 64.8912 190.87 64.639 190.777 64.3647C190.673 64.0855 190.62 63.7901 190.62 63.4922C190.621 63.1945 190.674 62.8992 190.777 62.6198C190.87 62.3455 191.018 62.0933 191.213 61.8788C191.408 61.6619 191.646 61.4868 191.911 61.364C192.206 61.2373 192.523 61.1719 192.844 61.1719C193.165 61.1719 193.483 61.2373 193.778 61.364C194.043 61.4867 194.281 61.6619 194.476 61.8788C194.668 62.0955 194.816 62.3471 194.912 62.6198C195.015 62.8992 195.069 63.1945 195.069 63.4922H195.07ZM206.256 61.3808C206.011 61.1338 205.712 60.9458 205.383 60.8311C205.025 60.705 204.646 60.6459 204.267 60.6567C203.881 60.6527 203.499 60.7238 203.141 60.866C202.814 61.0044 202.517 61.206 202.268 61.4593C202.013 61.7069 201.812 62.0037 201.675 62.3318C201.396 63.0622 201.396 63.87 201.675 64.6004C201.812 64.9285 202.013 65.2254 202.268 65.4729C202.517 65.7262 202.814 65.9279 203.141 66.0662C203.498 66.2112 203.881 66.2853 204.266 66.2843C204.617 66.2791 204.966 66.2292 205.305 66.1359C205.657 66.0513 205.995 65.9164 206.308 65.7354V63.117H204.467V63.623H205.758V65.4379C205.543 65.5621 205.311 65.656 205.069 65.717C204.808 65.7872 204.538 65.8224 204.267 65.8217C203.945 65.8291 203.626 65.7634 203.333 65.6297C203.067 65.5092 202.829 65.3337 202.635 65.1149C202.441 64.8987 202.29 64.6471 202.19 64.3739C202.093 64.0932 202.043 63.7984 202.042 63.5015C202.044 63.2045 202.094 62.9099 202.19 62.629C202.29 62.3558 202.441 62.1042 202.635 61.8881C202.829 61.6692 203.067 61.4938 203.333 61.3732C203.627 61.2436 203.945 61.1781 204.267 61.1812C204.566 61.1778 204.864 61.2372 205.139 61.3556C205.387 61.4594 205.61 61.614 205.794 61.8094L206.204 61.4089L206.256 61.3808ZM214.623 63.8675L216.647 60.7875H215.958L214.344 63.3439L212.739 60.7875H212.024L214.046 63.8675V66.197H214.596V63.8675H214.623ZM228.801 61.3111C228.613 61.0856 228.374 60.909 228.103 60.7963C227.838 60.6981 227.556 60.6506 227.274 60.6561C227.056 60.6545 226.838 60.6839 226.628 60.7434C226.427 60.8021 226.238 60.8967 226.07 61.0226C225.902 61.1546 225.766 61.3213 225.669 61.5112C225.568 61.7205 225.517 61.9506 225.521 62.183C225.515 62.3989 225.556 62.6134 225.643 62.8112C225.717 62.9687 225.824 63.1086 225.957 63.2213C226.09 63.3347 226.24 63.4262 226.402 63.4922C226.549 63.5666 226.701 63.6334 226.855 63.6925L227.37 63.8583C227.525 63.914 227.674 63.9841 227.815 64.0678C227.936 64.1521 228.04 64.2586 228.121 64.3818C228.198 64.5168 228.24 64.669 228.243 64.8245C228.246 64.9799 228.21 65.1337 228.138 65.2717C228.067 65.3917 227.976 65.4981 227.868 65.5858C227.753 65.6659 227.626 65.7277 227.492 65.7691C227.36 65.8141 227.222 65.8377 227.082 65.839C226.823 65.8457 226.567 65.7824 226.341 65.6557C226.14 65.5434 225.972 65.3811 225.853 65.1845L225.355 65.5422C225.548 65.8107 225.81 66.0217 226.114 66.1526C226.412 66.2779 226.733 66.3432 227.056 66.3446C227.274 66.3469 227.49 66.3084 227.693 66.2312C227.904 66.1686 228.099 66.0648 228.269 65.9259C228.44 65.7947 228.58 65.6279 228.679 65.4373C228.785 65.2325 228.839 65.0048 228.836 64.7742C228.85 64.5038 228.78 64.2358 228.636 64.0065C228.499 63.8197 228.324 63.6649 228.121 63.5527C227.909 63.4337 227.684 63.34 227.45 63.2736C227.224 63.2112 227.003 63.1354 226.786 63.0467C226.597 62.9663 226.423 62.8541 226.272 62.7151C226.201 62.6376 226.147 62.5466 226.113 62.4476C226.078 62.3486 226.064 62.2437 226.071 62.1392C226.065 61.9879 226.098 61.8375 226.167 61.7028C226.233 61.5843 226.322 61.4804 226.429 61.3974C226.542 61.3172 226.668 61.2583 226.802 61.2236C226.939 61.185 227.079 61.1644 227.221 61.1626C227.427 61.1528 227.632 61.1967 227.815 61.29C227.999 61.3834 228.155 61.5229 228.268 61.6948L228.749 61.3196L228.801 61.3111ZM240.37 63.4925C240.372 63.1038 240.298 62.7185 240.152 62.3582C240.016 62.0302 239.814 61.7333 239.559 61.4858C239.31 61.2324 239.013 61.0308 238.686 60.8924C237.968 60.613 237.171 60.613 236.453 60.8924C236.125 61.0289 235.828 61.2308 235.58 61.4858C235.329 61.7361 235.127 62.0322 234.987 62.3582C234.708 63.0887 234.708 63.8964 234.987 64.6269C235.127 64.9529 235.329 65.249 235.58 65.4993C235.828 65.7544 236.126 65.9562 236.454 66.0925C237.17 66.3835 237.972 66.3835 238.688 66.0925C239.015 65.9541 239.311 65.7525 239.56 65.4991C239.815 65.2516 240.017 64.9547 240.154 64.6267C240.299 64.2664 240.374 63.8811 240.372 63.4925H240.37ZM239.768 63.4925C239.771 63.7898 239.721 64.0852 239.62 64.3649C239.52 64.636 239.372 64.8869 239.184 65.1059C238.861 65.4449 238.441 65.6763 237.982 65.7684C237.523 65.8606 237.047 65.809 236.618 65.6207C236.352 65.5001 236.114 65.3247 235.92 65.1059C235.726 64.8914 235.577 64.6392 235.484 64.3649C235.38 64.0857 235.327 63.7903 235.327 63.4925C235.328 63.1947 235.381 62.8994 235.484 62.62C235.577 62.3457 235.726 62.0935 235.92 61.879C236.114 61.6602 236.352 61.4848 236.618 61.3642C236.912 61.2377 237.228 61.1724 237.548 61.1724C237.867 61.1724 238.183 61.2377 238.477 61.3642C238.746 61.4846 238.987 61.66 239.184 61.879C239.372 62.098 239.52 62.3489 239.62 62.62C239.72 62.8999 239.77 63.1952 239.768 63.4925ZM247.107 60.7875H246.558V66.197H249.629V65.691H247.107V60.7875ZM259.323 60.7875H258.773V64.1204C258.777 64.344 258.751 64.5671 258.694 64.7835C258.651 64.9495 258.584 65.1083 258.494 65.2546C258.417 65.3724 258.319 65.4757 258.206 65.56C258.109 65.6287 258.003 65.6844 257.892 65.7258C257.794 65.7669 257.691 65.7962 257.587 65.8131H257.089C256.985 65.7951 256.882 65.7658 256.784 65.7258C256.675 65.6843 256.572 65.6285 256.478 65.56C256.365 65.4757 256.268 65.3724 256.19 65.2546C256.101 65.1083 256.033 64.9495 255.99 64.7835C255.934 64.5671 255.907 64.344 255.912 64.1204V60.7875H255.362V64.1815C255.363 64.4221 255.39 64.6618 255.441 64.897C255.498 65.1465 255.602 65.3832 255.746 65.5951C255.906 65.8135 256.112 65.995 256.348 66.1273C256.66 66.2656 256.997 66.337 257.338 66.337C257.679 66.337 258.017 66.2656 258.329 66.1273C258.569 65.9977 258.778 65.8158 258.939 65.5951C259.084 65.3847 259.185 65.1473 259.236 64.897C259.289 64.6621 259.319 64.4223 259.323 64.1815L259.323 60.7875ZM267.515 61.2935H269.33V60.7875H265.159V61.2935H266.965V66.197H267.515L267.515 61.2935ZM275.813 60.7875H275.262V66.197H275.812L275.813 60.7875ZM287.635 63.4922C287.64 63.1042 287.569 62.7189 287.426 62.358C287.289 62.03 287.087 61.7331 286.832 61.4856C286.584 61.2323 286.287 61.0306 285.96 60.8922C285.605 60.7509 285.226 60.6798 284.843 60.6828C284.458 60.6797 284.076 60.7508 283.718 60.8922C283.391 61.0306 283.094 61.2322 282.845 61.4856C282.594 61.7359 282.392 62.032 282.252 62.358C281.972 63.0885 281.972 63.8962 282.252 64.6267C282.392 64.9527 282.594 65.2488 282.845 65.4991C283.094 65.7525 283.391 65.9541 283.718 66.0925C284.075 66.2366 284.458 66.3106 284.843 66.3105C285.226 66.3108 285.605 66.2367 285.96 66.0925C286.287 65.9541 286.583 65.7524 286.832 65.4991C287.087 65.2516 287.289 64.9547 287.425 64.6267C287.568 64.2658 287.639 63.8805 287.635 63.4925L287.635 63.4922ZM287.042 63.4922C287.04 63.7892 286.99 64.0839 286.894 64.3647C286.794 64.6379 286.643 64.8895 286.449 65.1057C286.256 65.3263 286.018 65.5021 285.751 65.6205C285.457 65.747 285.141 65.8123 284.821 65.8123C284.502 65.8123 284.185 65.747 283.892 65.6205C283.626 65.4999 283.388 65.3245 283.194 65.1057C283 64.8895 282.848 64.6379 282.749 64.3647C282.652 64.0839 282.602 63.7892 282.601 63.4922C282.603 63.1953 282.653 62.9007 282.749 62.6198C282.848 62.3466 283 62.095 283.194 61.8788C283.388 61.66 283.626 61.4846 283.892 61.364C284.185 61.2375 284.502 61.1722 284.821 61.1722C285.141 61.1722 285.457 61.2375 285.751 61.364C286.018 61.4824 286.256 61.6582 286.449 61.8788C286.643 62.095 286.794 62.3466 286.894 62.6198C286.99 62.9007 287.039 63.1954 287.041 63.4922H287.042ZM294.519 60.7875H293.83V66.197H294.38V61.5727L297.599 66.197H298.289V60.7875H297.739V65.3682L294.519 60.7875ZM307.903 61.3109C307.717 61.0833 307.477 60.9062 307.205 60.7961C306.733 60.6301 306.221 60.6118 305.739 60.7438C305.535 60.803 305.343 60.8975 305.172 61.023C305.004 61.1528 304.87 61.3202 304.779 61.5116C304.674 61.7195 304.623 61.9506 304.631 62.1834C304.622 62.3986 304.661 62.613 304.744 62.8116C304.818 62.9691 304.926 63.109 305.058 63.2217C305.191 63.335 305.341 63.4263 305.503 63.4922C305.671 63.5667 305.843 63.6309 306.018 63.6843L306.524 63.8501C306.679 63.9058 306.828 63.9759 306.969 64.0596C307.095 64.1412 307.202 64.2482 307.283 64.3737C307.356 64.5104 307.395 64.6627 307.397 64.8176C307.398 64.9726 307.362 65.1256 307.292 65.2636C307.224 65.3855 307.132 65.4924 307.021 65.5778C306.91 65.6578 306.786 65.7196 306.655 65.7611C306.465 65.8223 306.265 65.8439 306.067 65.8244C305.869 65.8049 305.677 65.7448 305.503 65.6477C305.3 65.5356 305.129 65.3734 305.006 65.1765L304.517 65.5342C304.71 65.8029 304.973 66.014 305.276 66.1449C305.575 66.2703 305.895 66.3356 306.219 66.337C306.436 66.3376 306.652 66.2993 306.856 66.2236C307.062 66.1579 307.254 66.0544 307.423 65.9183C307.596 65.7874 307.738 65.6207 307.841 65.4297C307.947 65.2249 308.001 64.9972 307.998 64.7666C308.014 64.4948 307.94 64.2253 307.789 63.9989C307.654 63.8101 307.478 63.6548 307.274 63.5451C307.065 63.426 306.842 63.3323 306.611 63.266C306.383 63.2035 306.158 63.1278 305.939 63.0391C305.751 62.9609 305.58 62.8484 305.433 62.7075C305.361 62.6307 305.305 62.5401 305.269 62.4411C305.233 62.342 305.218 62.2367 305.223 62.1316C305.221 61.9807 305.254 61.8314 305.319 61.6954C305.384 61.5737 305.477 61.469 305.59 61.39C305.699 61.3079 305.824 61.2486 305.956 61.2156C306.093 61.1787 306.234 61.1585 306.375 61.1555C306.581 61.144 306.786 61.1871 306.97 61.2806C307.154 61.3741 307.31 61.5146 307.422 61.6878L307.903 61.3109Z" fill="#787878"/>
<path fill-rule="evenodd" clip-rule="evenodd" d="M76.0859 48.2935C72.7227 50.6306 69.588 53.2802 66.7234 56.2071L62.2127 52.4204C62.0294 40.7812 65.3449 42.8227 67.2645 38.2509C65.3449 38.7743 63.6262 41.3569 62.3 42.6135C53.3489 36.0784 53.8453 36.6281 53.9762 31.2708C50.9313 33.1553 54.8487 33.8883 50.9487 37.3784C49.2128 38.7959 47.3884 40.1015 45.4867 41.2872C42.2845 39.1059 39.0649 36.6281 37.7127 33.5218L36.7354 31.5151C36.7354 34.8917 37.5382 34.2373 32.8965 37.7971C30.881 39.2629 29.0139 40.5629 27.2513 41.8804L23.5605 39.1842C24.433 44.5763 27.4782 39.6728 26.1779 51.4867C25.8988 54.0256 20.9429 58.4153 18.7355 59.793L12.3576 57.0796C15.263 45.5453 26.1259 30.6068 40.0249 28.4787C56.0102 26.0271 72.9448 37.3784 76.0859 48.2935ZM99.2422 69.478C103.701 68.6055 105.847 65.1154 98.0295 63.851C86.5995 61.9487 86.7915 57.6387 92.201 54.0963C97.4361 55.3267 107.391 52.1071 108.543 49.1754C111.579 30.9748 94.3561 25.1378 86.5995 29.7621C84.235 19.0128 77.4119 4.9131 69.1493 1.30081C69.1493 16.4128 81.2771 30.3817 83.6941 31.6292C80.396 35.5119 79.3315 41.061 80.37 43.696C54.6395 5.39209 12.3139 24.9277 7.73326 47.9359C7.39353 49.7325 7.29667 51.5666 7.4453 53.389C6.50054 52.9724 5.45801 52.8284 4.43568 52.9735C3.41335 53.1186 2.45203 53.5469 1.66053 54.2101C-0.669161 56.2955 -0.529388 60.2478 1.96591 63.0224C4.4612 65.797 8.37886 66.3465 10.6909 64.2613C10.9257 64.0502 11.1391 63.8163 11.3279 63.5633C9.23508 63.5873 7.15854 63.1928 5.22035 62.4028C3.47538 61.5304 10.5776 60.3873 12.1219 58.6073C12.3609 58.8503 12.6417 59.0483 12.9507 59.1919C26.3534 65.3511 42.4591 68.5096 58.3214 64.3398C63.4692 62.9874 67.3606 57.1329 73.6951 52.1247C76.016 50.3012 79.6805 47.387 84.0257 49.141C84.8982 49.4986 87.3761 51.9068 87.7862 52.405C89.2868 54.2111 89.0425 55.1446 88.4929 57.4313C82.333 59.5166 75.2482 61.4885 70.746 64.9524C71.2266 65.6505 72.6306 66.6974 73.3635 67.5698C73.6385 67.8442 73.8352 68.1869 73.9334 68.5627C74.0316 68.9385 74.0276 69.3337 73.922 69.7075L99.2248 69.5072L99.2422 69.478ZM11.3453 63.5625C12.257 63.5368 13.1514 63.3072 13.9628 62.8906C15.1931 64.5309 15.8387 65.2552 15.7951 66.6337C14.1762 65.8219 12.6785 64.7882 11.3453 63.5625ZM26.4485 69.6002C26.7801 68.9371 26.7016 68.0995 25.9162 67.035C40.7488 68.972 47.3712 69.1989 61.8025 66.904C63.4246 67.8464 63.1374 68.9283 63.1026 69.8008H30.5408C29.1888 69.8031 27.8375 69.7363 26.4923 69.6006L26.4485 69.6002ZM35.3918 64.0511C35.1387 60.945 29.3541 56.6783 26.9197 54.7065L20.0712 60.2556C24.9653 62.2534 30.1231 63.5319 35.3838 64.0511H35.3918ZM65.5806 57.4985C64.364 56.0546 63.0112 54.7312 61.541 53.5464C60.0752 54.1746 61.4799 53.4331 59.9879 54.4888C59.6389 54.7331 59.1154 55.2217 58.592 55.5882C53.6622 59.3312 52.3534 59.4708 52.2923 63.7898C60.4765 62.6381 61.541 61.2246 65.5806 57.4989V57.4985ZM36.7879 64.1384C41.0109 65.3337 51.0011 65.264 51.2717 63.6934C51.5248 62.2717 50.1723 58.7026 45.1641 55.771C42.5466 57.0274 37.2242 61.1545 36.8055 64.1472L36.7879 64.1384ZM60.9563 43.5208C58.6092 41.61 56.0092 38.9489 53.1038 37.6487C50.7829 39.0446 48.3579 40.9642 46.1934 42.4563C46.045 44.5589 45.6088 52.054 46.08 53.6332C46.5512 55.2123 50.7306 58.3098 52.0655 58.8682L56.4281 55.2822C57.798 54.2177 59.7872 52.4727 60.7907 51.5914L60.9827 43.5468L60.9563 43.5208ZM44.0733 54.6977C44.2217 51.774 44.9895 44.5329 43.8465 42.2556C43.4888 41.5315 38.306 36.9072 37.4247 36.3835C33.6292 38.3292 31.1169 41.7582 27.7311 43.2763L27.4868 53.7465C30.8023 55.8753 34.2051 59.5313 36.2643 60.6218C39.2918 58.9291 40.8013 56.5297 44.0739 54.7237L44.0733 54.6977ZM82.778 50.3961C83.0557 50.4031 83.3251 50.4923 83.5521 50.6523C83.7792 50.8124 83.9536 51.0362 84.0535 51.2954C84.1534 51.5546 84.1742 51.8376 84.1132 52.1087C84.0522 52.3797 83.9123 52.6266 83.7111 52.8181C83.5098 53.0096 83.2563 53.1371 82.9826 53.1845C82.7089 53.232 82.4273 53.1972 82.1733 53.0846C81.9194 52.972 81.7045 52.7866 81.5559 52.5519C81.4073 52.3172 81.3316 52.0437 81.3384 51.766C81.3429 51.5816 81.3838 51.3998 81.4586 51.2311C81.5334 51.0624 81.6407 50.9101 81.7744 50.7829C81.9081 50.6557 82.0655 50.5561 82.2377 50.4898C82.4099 50.4235 82.5935 50.3917 82.778 50.3963V50.3961ZM99.3557 34.5949C99.7892 34.5845 100.216 34.7036 100.582 34.9369C100.947 35.1701 101.235 35.5071 101.408 35.9046C101.581 36.3022 101.632 36.7423 101.554 37.1688C101.475 37.5954 101.272 37.9889 100.969 38.2992C100.666 38.6095 100.278 38.8225 99.8531 38.911C99.4286 38.9995 98.9874 38.9595 98.5858 38.796C98.1841 38.6326 97.8403 38.3531 97.5983 37.9934C97.3562 37.6336 97.2268 37.2099 97.2267 36.7762C97.2232 36.4932 97.2755 36.2123 97.3807 35.9495C97.4858 35.6866 97.6417 35.4471 97.8394 35.2446C98.0371 35.042 98.2728 34.8804 98.5329 34.7689C98.7931 34.6574 99.0727 34.5983 99.3557 34.5949ZM87.6895 26.7948C87.3404 25.6606 87.035 22.9559 85.9445 20.4778C86.548 16.63 83.3276 7.39017 88.5105 0C94.3649 11.6392 88.4492 25.7477 87.6895 26.7948Z" fill="url(#paint0_linear_1185_2551)"/>
<defs>
<linearGradient id="paint0_linear_1185_2551" x1="-8.4057e-09" y1="34.9003" x2="108.898" y2="34.9004" gradientUnits="userSpaceOnUse">
<stop stop-color="#D21363"/>
<stop offset="0.280091" stop-color="#633CA3"/>
<stop offset="0.555107" stop-color="#394EBB"/>
<stop offset="0.790121" stop-color="#1382BB"/>
<stop offset="1" stop-color="#2EAEAA"/>
</linearGradient>
</defs>
</svg>
