<svg xmlns="http://www.w3.org/2000/svg" width="14.85" height="14.872" viewBox="0 0 14.85 14.872">
  <g id="Group_10787" data-name="Group 10787" transform="translate(-34.344 -92)">
    <g id="Group_10774" data-name="Group 10774" transform="translate(34.344 92)">
      <path id="Path_3458" data-name="Path 3458" d="M12.087,35.758a1.463,1.463,0,0,0-1.061-.487,1.513,1.513,0,0,0-1.073.483l-.992.989c-.082-.044-.163-.085-.242-.126-.113-.056-.22-.11-.311-.166A10.78,10.78,0,0,1,5.825,34.1a6.36,6.36,0,0,1-.847-1.337c.257-.235.5-.48.728-.716.088-.088.176-.179.264-.267a1.44,1.44,0,0,0,0-2.172l-.857-.857c-.1-.1-.2-.2-.292-.3-.188-.195-.386-.4-.59-.584a1.486,1.486,0,0,0-1.052-.461,1.537,1.537,0,0,0-1.067.461l-.006.006L1.039,28.95a2.3,2.3,0,0,0-.681,1.46,5.5,5.5,0,0,0,.4,2.329,13.515,13.515,0,0,0,2.4,4.005A14.771,14.771,0,0,0,8.079,40.6a7.663,7.663,0,0,0,2.762.816c.066,0,.135.006.2.006a2.365,2.365,0,0,0,1.811-.778c0-.006.009-.009.013-.016a7.136,7.136,0,0,1,.549-.568c.135-.129.273-.264.408-.4a1.566,1.566,0,0,0,.474-1.086,1.509,1.509,0,0,0-.483-1.077Zm1.124,3.305s0,0,0,0c-.122.132-.248.251-.383.383a8.253,8.253,0,0,0-.606.628,1.513,1.513,0,0,1-1.18.5c-.047,0-.1,0-.144,0a6.808,6.808,0,0,1-2.448-.734,13.943,13.943,0,0,1-4.633-3.628,12.743,12.743,0,0,1-2.26-3.763A4.482,4.482,0,0,1,1.2,30.479a1.441,1.441,0,0,1,.433-.932l1.07-1.07a.714.714,0,0,1,.477-.223.671.671,0,0,1,.458.22l.009.009c.191.179.374.364.565.562.1.1.2.2.3.3l.857.857a.6.6,0,0,1,0,.973c-.091.091-.179.182-.27.27-.264.27-.515.521-.788.766-.006.006-.013.009-.016.016a.64.64,0,0,0-.163.713l.009.028A6.88,6.88,0,0,0,5.16,34.625l0,0A11.521,11.521,0,0,0,7.95,37.165a4.285,4.285,0,0,0,.386.21c.113.056.22.11.311.166.013.006.025.016.038.022A.68.68,0,0,0,9,37.642a.671.671,0,0,0,.477-.217l1.073-1.073a.71.71,0,0,1,.474-.235.639.639,0,0,1,.452.229l.006.006,1.729,1.729A.621.621,0,0,1,13.211,39.064Z" transform="translate(-0.344 -26.546)" fill="#d21363"/>
      <path id="Path_3459" data-name="Path 3459" d="M245.293,86.766a4.04,4.04,0,0,1,3.289,3.289.421.421,0,0,0,.417.352.559.559,0,0,0,.072-.006.424.424,0,0,0,.348-.49,4.885,4.885,0,0,0-3.98-3.98.426.426,0,0,0-.49.345A.419.419,0,0,0,245.293,86.766Z" transform="translate(-237.266 -83.228)" fill="#d21363"/>
      <path id="Path_3460" data-name="Path 3460" d="M255.821,6.56A8.043,8.043,0,0,0,249.268.007a.423.423,0,1,0-.138.835A7.184,7.184,0,0,1,254.986,6.7a.421.421,0,0,0,.417.352.56.56,0,0,0,.072-.006A.416.416,0,0,0,255.821,6.56Z" transform="translate(-240.978 0)" fill="#d21363"/>
    </g>
  </g>
</svg>
