<svg xmlns="http://www.w3.org/2000/svg" width="64" height="62.737" viewBox="0 0 64 62.737">
  <path id="Vector_2_" data-name="Vector (2)" d="M33.368,5.243a23.749,23.749,0,0,1,6.954,2.883L44.84,6.119l5.326,5.326L48.16,15.962a23.743,23.743,0,0,1,2.883,6.956l4.61,1.774v7.532l-1.56.6a4.834,4.834,0,0,0-3.386-1.383H44.381A16.82,16.82,0,1,0,27.17,45.263V46.5a5.545,5.545,0,0,0,1.546,3.829v5.955H24.061l-1.775-4.611a23.748,23.748,0,0,1-6.954-2.883L10.813,50.8,5.487,45.472l2.006-4.517A23.748,23.748,0,0,1,4.61,34L0,32.224V24.692l4.611-1.775a23.745,23.745,0,0,1,2.883-6.955L5.487,11.445l5.326-5.326,4.519,2.007a23.748,23.748,0,0,1,6.954-2.883L24.061.631h7.532ZM37.592,39.01V43.24a1.636,1.636,0,0,0,1.631,1.631H54.08a1.636,1.636,0,0,0,1.631-1.631V39.01Zm5.862,13.88a3.2,3.2,0,1,0,3.2-3.2A3.2,3.2,0,0,0,43.454,52.89Zm19-3.474A3.713,3.713,0,0,0,64,46.5v-6.19a1.3,1.3,0,0,0-1.3-1.3H57.844V43.24A3.77,3.77,0,0,1,54.08,47H39.223a3.77,3.77,0,0,1-3.765-3.765V39.01H30.6a1.3,1.3,0,0,0-1.3,1.3V46.5a3.713,3.713,0,0,0,1.546,2.915c2.481,2.036,7.428,2.6,10.507,2.855a5.331,5.331,0,0,1,10.589,0C55.02,52.016,59.977,51.449,62.453,49.416Zm-31.6,2.576v8.838a2.547,2.547,0,0,0,2.539,2.539H59.914a2.547,2.547,0,0,0,2.539-2.539V51.992c-2.281,1.278-6.258,2.09-10.7,2.437a5.332,5.332,0,0,1-10.21,0C37.108,54.082,33.131,53.27,30.85,51.992ZM53.425,36.876v-.584a2.725,2.725,0,0,0-2.717-2.717H42.6a2.725,2.725,0,0,0-2.717,2.717v.584h2.406v-.584a.319.319,0,0,1,.312-.312h8.112a.319.319,0,0,1,.312.312v.584ZM18.061,26.4a2.976,2.976,0,0,0,0,4.2l4.615,4.615c1.3,1.3,3.272,1.9,4.743.431L37.593,25.472a2.967,2.967,0,0,0-4.2-4.2L25.263,29.41,22.257,26.4A2.976,2.976,0,0,0,18.061,26.4Z" transform="translate(0 -0.631)" fill="#55b8ff" fill-rule="evenodd"/>
</svg>
