<svg id="Project_End_Feedback" data-name="Project End Feedback" xmlns="http://www.w3.org/2000/svg" width="22.537" height="22.542" viewBox="0 0 22.537 22.542">
  <path id="Path_254348" data-name="Path 254348" d="M17.824.876,6.375,12.325A4.663,4.663,0,0,0,5,15.644v1.261a.939.939,0,0,0,.939.939H7.2a4.663,4.663,0,0,0,3.32-1.375L21.969,5.021a2.935,2.935,0,0,0,0-4.145,3,3,0,0,0-4.145,0Zm2.817,2.817L9.192,15.142a2.836,2.836,0,0,1-1.992.824H6.878v-.322A2.836,2.836,0,0,1,7.7,13.653L19.151,2.2a1.078,1.078,0,0,1,1.489,0,1.055,1.055,0,0,1,0,1.489Z" transform="translate(-0.305 -0.003)" fill="#fff"/>
  <path id="Path_254349" data-name="Path 254349" d="M21.6,8.432a.939.939,0,0,0-.939.939v4.715H16.9A2.817,2.817,0,0,0,14.086,16.9v3.756H4.7a2.817,2.817,0,0,1-2.817-2.817V4.7A2.817,2.817,0,0,1,4.7,1.878h8.491a.939.939,0,1,0,0-1.878H4.7A4.7,4.7,0,0,0,0,4.7V17.842a4.7,4.7,0,0,0,4.7,4.7H15.347a4.665,4.665,0,0,0,3.32-1.375l2.494-2.5a4.665,4.665,0,0,0,1.376-3.32V9.371a.939.939,0,0,0-.937-.939Zm-4.259,11.4a2.794,2.794,0,0,1-1.376.751V16.9a.939.939,0,0,1,.939-.939H20.59a2.832,2.832,0,0,1-.751,1.375Z" fill="#fff"/>
</svg>
