<?xml version="1.0" encoding="UTF-8"?>
<svg xmlns="http://www.w3.org/2000/svg" xmlns:xlink="http://www.w3.org/1999/xlink" width="180px" height="41px" viewBox="0 0 180 41" version="1.1">
<g id="surface1">
<path style=" stroke:none;fill-rule:nonzero;fill:rgb(30.196078%,30.196078%,30.980392%);fill-opacity:1;" d="M 69.117188 30.261719 L 69.117188 20.132812 L 73.398438 20.132812 C 74.414062 20.0625 75.410156 20.433594 76.132812 21.152344 C 76.691406 21.792969 76.980469 22.632812 76.933594 23.484375 C 76.960938 24.179688 76.773438 24.867188 76.398438 25.453125 C 76.035156 25.984375 75.523438 26.390625 74.921875 26.617188 L 77.214844 30.234375 L 74.804688 30.234375 L 72.796875 26.992188 L 71.171875 26.992188 L 71.171875 30.234375 Z M 71.160156 25.058594 L 73.246094 25.058594 C 73.671875 25.082031 74.09375 24.941406 74.417969 24.664062 C 74.695312 24.398438 74.847656 24.027344 74.835938 23.644531 C 74.863281 23.238281 74.703125 22.84375 74.40625 22.566406 C 74.066406 22.300781 73.644531 22.167969 73.210938 22.191406 L 71.175781 22.191406 L 71.175781 25.101562 Z M 80.648438 30.398438 C 80.003906 30.417969 79.371094 30.195312 78.886719 29.769531 C 78.40625 29.324219 78.148438 28.6875 78.183594 28.035156 L 78.183594 28.003906 C 78.132812 27.296875 78.425781 26.613281 78.964844 26.15625 C 79.566406 25.714844 80.304688 25.496094 81.050781 25.53125 C 81.652344 25.53125 82.242188 25.640625 82.804688 25.851562 L 82.804688 25.726562 C 82.832031 25.332031 82.6875 24.949219 82.414062 24.667969 C 82.09375 24.40625 81.683594 24.277344 81.265625 24.304688 C 80.585938 24.320312 79.914062 24.464844 79.285156 24.730469 L 78.777344 23.050781 C 79.1875 22.851562 79.621094 22.691406 80.066406 22.578125 C 80.558594 22.472656 81.058594 22.417969 81.5625 22.425781 C 82.457031 22.355469 83.339844 22.671875 83.988281 23.292969 C 84.550781 23.988281 84.828125 24.875 84.761719 25.765625 L 84.761719 30.269531 L 82.792969 30.269531 L 82.792969 29.417969 C 82.265625 30.058594 81.476562 30.417969 80.648438 30.398438 Z M 81.265625 28.867188 C 81.679688 28.882812 82.089844 28.75 82.414062 28.488281 C 82.703125 28.25 82.867188 27.890625 82.859375 27.511719 L 82.859375 27.125 C 82.453125 26.925781 82.011719 26.828125 81.5625 26.835938 C 81.199219 26.816406 80.84375 26.914062 80.542969 27.109375 C 80.292969 27.292969 80.152344 27.59375 80.167969 27.902344 C 80.15625 28.167969 80.269531 28.421875 80.472656 28.589844 C 80.703125 28.765625 80.988281 28.855469 81.277344 28.839844 Z M 90.816406 30.398438 C 89.925781 30.402344 89.09375 29.972656 88.578125 29.25 L 88.578125 30.269531 L 86.539062 30.269531 L 86.539062 19.707031 L 88.578125 19.707031 L 88.578125 23.621094 C 89.054688 22.84375 89.902344 22.367188 90.816406 22.367188 C 91.234375 22.363281 91.652344 22.453125 92.035156 22.632812 C 92.421875 22.816406 92.765625 23.070312 93.054688 23.386719 C 93.382812 23.757812 93.628906 24.191406 93.785156 24.660156 C 93.972656 25.207031 94.066406 25.789062 94.058594 26.371094 C 94.070312 26.953125 93.980469 27.53125 93.796875 28.085938 C 93.640625 28.554688 93.394531 28.984375 93.066406 29.351562 C 92.777344 29.667969 92.433594 29.929688 92.046875 30.113281 C 91.65625 30.285156 91.234375 30.375 90.808594 30.371094 Z M 90.304688 28.535156 C 90.789062 28.539062 91.246094 28.320312 91.542969 27.941406 C 91.894531 27.511719 92.078125 26.964844 92.054688 26.410156 C 92.078125 25.855469 91.894531 25.308594 91.542969 24.878906 C 91.246094 24.5 90.789062 24.277344 90.304688 24.277344 C 89.824219 24.277344 89.367188 24.5 89.070312 24.878906 C 88.71875 25.308594 88.535156 25.855469 88.558594 26.410156 C 88.535156 26.964844 88.71875 27.511719 89.070312 27.941406 C 89.367188 28.320312 89.824219 28.539062 90.304688 28.535156 Z M 99.867188 30.398438 C 98.980469 30.402344 98.144531 29.972656 97.632812 29.25 L 97.632812 30.269531 L 95.589844 30.269531 L 95.589844 19.707031 L 97.636719 19.707031 L 97.636719 23.621094 C 98.109375 22.84375 98.957031 22.367188 99.871094 22.367188 C 100.289062 22.367188 100.707031 22.457031 101.089844 22.632812 C 101.476562 22.816406 101.820312 23.070312 102.109375 23.386719 C 102.4375 23.757812 102.6875 24.191406 102.84375 24.660156 C 103.035156 25.210938 103.128906 25.789062 103.121094 26.371094 C 103.125 26.953125 103.035156 27.53125 102.851562 28.085938 C 102.691406 28.566406 102.429688 29.007812 102.085938 29.378906 C 101.796875 29.691406 101.449219 29.945312 101.0625 30.128906 C 100.675781 30.300781 100.257812 30.390625 99.832031 30.390625 Z M 99.355469 28.535156 C 99.824219 28.523438 100.261719 28.308594 100.550781 27.941406 C 100.902344 27.511719 101.085938 26.964844 101.0625 26.410156 C 101.085938 25.855469 100.902344 25.308594 100.550781 24.878906 C 100.25 24.5 99.796875 24.277344 99.3125 24.277344 C 98.828125 24.273438 98.371094 24.496094 98.070312 24.875 C 97.71875 25.304688 97.539062 25.851562 97.558594 26.40625 C 97.539062 26.960938 97.722656 27.503906 98.070312 27.9375 C 98.371094 28.316406 98.828125 28.535156 99.3125 28.53125 Z M 104.632812 21.65625 L 104.632812 19.707031 L 106.785156 19.707031 L 106.785156 21.65625 Z M 104.695312 30.257812 L 104.695312 22.507812 L 106.738281 22.507812 L 106.738281 30.261719 Z M 111.066406 30.386719 C 110.507812 30.425781 109.957031 30.242188 109.535156 29.875 C 109.113281 29.378906 108.910156 28.734375 108.972656 28.085938 L 108.972656 24.394531 L 108.113281 24.394531 L 108.113281 22.507812 L 108.972656 22.507812 L 108.972656 20.53125 L 111.011719 20.53125 L 111.011719 22.507812 L 112.699219 22.507812 L 112.699219 24.394531 L 111.011719 24.394531 L 111.011719 27.703125 C 110.996094 27.90625 111.054688 28.105469 111.175781 28.269531 C 111.304688 28.40625 111.496094 28.476562 111.683594 28.453125 C 112.042969 28.457031 112.398438 28.363281 112.703125 28.175781 L 112.703125 29.9375 C 112.222656 30.242188 111.660156 30.398438 111.09375 30.386719 Z M 129.089844 30.257812 L 129.089844 22.1875 L 126.242188 22.1875 L 126.242188 20.144531 L 134.007812 20.144531 L 134.007812 22.1875 L 131.179688 22.1875 L 131.179688 30.261719 Z M 137.488281 30.433594 C 138.195312 30.441406 138.886719 30.253906 139.492188 29.890625 C 140.074219 29.53125 140.550781 29.023438 140.875 28.421875 C 141.214844 27.796875 141.390625 27.089844 141.382812 26.378906 C 141.394531 25.664062 141.21875 24.960938 140.875 24.335938 C 140.550781 23.734375 140.070312 23.234375 139.484375 22.886719 C 138.886719 22.53125 138.199219 22.34375 137.503906 22.351562 C 136.976562 22.351562 136.457031 22.460938 135.972656 22.667969 C 135.507812 22.875 135.09375 23.175781 134.746094 23.546875 C 134.398438 23.921875 134.125 24.359375 133.9375 24.832031 C 133.738281 25.332031 133.636719 25.863281 133.640625 26.398438 L 133.640625 26.425781 C 133.632812 27.140625 133.808594 27.84375 134.152344 28.46875 C 134.816406 29.710938 136.113281 30.476562 137.519531 30.460938 Z M 137.519531 28.53125 C 136.996094 28.546875 136.492188 28.3125 136.160156 27.90625 C 135.808594 27.476562 135.625 26.929688 135.652344 26.371094 C 135.636719 25.828125 135.816406 25.296875 136.160156 24.871094 C 136.492188 24.46875 136.992188 24.242188 137.515625 24.265625 C 138.023438 24.261719 138.507812 24.488281 138.832031 24.882812 C 139.195312 25.308594 139.382812 25.855469 139.367188 26.414062 L 139.367188 26.445312 C 139.382812 26.992188 139.203125 27.523438 138.855469 27.945312 C 138.527344 28.347656 138.027344 28.574219 137.503906 28.554688 Z M 142.855469 30.257812 L 142.855469 22.507812 L 144.894531 22.507812 L 144.894531 24.066406 C 145.152344 23.023438 146.113281 22.308594 147.1875 22.367188 L 147.1875 24.664062 L 147.074219 24.664062 C 146.460938 24.625 145.867188 24.878906 145.46875 25.347656 C 145.046875 25.941406 144.84375 26.664062 144.898438 27.390625 L 144.898438 30.261719 Z M 150.882812 30.386719 C 150.324219 30.425781 149.773438 30.242188 149.351562 29.875 C 148.929688 29.378906 148.726562 28.734375 148.789062 28.085938 L 148.789062 24.394531 L 147.929688 24.394531 L 147.929688 22.507812 L 148.789062 22.507812 L 148.789062 20.53125 L 150.832031 20.53125 L 150.832031 22.507812 L 152.519531 22.507812 L 152.519531 24.394531 L 150.832031 24.394531 L 150.832031 27.703125 C 150.816406 27.90625 150.871094 28.105469 150.992188 28.269531 C 151.125 28.40625 151.3125 28.472656 151.503906 28.453125 C 151.863281 28.457031 152.214844 28.363281 152.523438 28.175781 L 152.523438 29.9375 C 152.039062 30.242188 151.480469 30.398438 150.910156 30.386719 Z M 157.335938 30.433594 C 156.636719 30.441406 155.953125 30.253906 155.355469 29.894531 C 154.769531 29.542969 154.289062 29.042969 153.964844 28.441406 C 153.625 27.816406 153.449219 27.113281 153.457031 26.398438 L 153.457031 26.371094 C 153.453125 25.835938 153.554688 25.304688 153.75 24.804688 C 153.9375 24.328125 154.214844 23.890625 154.566406 23.519531 C 154.917969 23.152344 155.339844 22.859375 155.808594 22.65625 C 156.292969 22.449219 156.8125 22.339844 157.339844 22.339844 C 158.039062 22.332031 158.726562 22.519531 159.324219 22.878906 C 159.914062 23.222656 160.394531 23.722656 160.714844 24.324219 C 161.058594 24.949219 161.234375 25.652344 161.222656 26.367188 C 161.230469 27.082031 161.054688 27.785156 160.714844 28.410156 C 160.386719 29.015625 159.90625 29.523438 159.316406 29.878906 C 158.714844 30.242188 158.023438 30.429688 157.320312 30.421875 Z M 157.359375 28.53125 C 157.890625 28.558594 158.402344 28.335938 158.738281 27.925781 C 159.082031 27.5 159.261719 26.96875 159.25 26.425781 L 159.25 26.394531 C 159.273438 25.835938 159.089844 25.292969 158.738281 24.859375 C 158.40625 24.457031 157.90625 24.226562 157.378906 24.238281 C 156.859375 24.21875 156.359375 24.441406 156.027344 24.847656 C 155.683594 25.269531 155.5 25.800781 155.519531 26.347656 C 155.492188 26.902344 155.675781 27.449219 156.027344 27.878906 C 156.359375 28.285156 156.859375 28.515625 157.386719 28.507812 Z M 162.738281 21.65625 L 162.738281 19.707031 L 164.863281 19.707031 L 164.863281 21.65625 Z M 162.820312 30.257812 L 162.820312 22.507812 L 164.863281 22.507812 L 164.863281 30.261719 Z M 169.289062 30.394531 C 168.734375 30.402344 168.1875 30.3125 167.667969 30.125 C 167.121094 29.929688 166.617188 29.632812 166.179688 29.25 L 167.050781 27.804688 C 167.679688 28.355469 168.476562 28.683594 169.3125 28.726562 C 169.539062 28.746094 169.765625 28.6875 169.960938 28.566406 C 170.097656 28.46875 170.179688 28.3125 170.175781 28.144531 L 170.175781 28.078125 C 170.183594 28.027344 170.183594 27.976562 170.175781 27.929688 C 170.160156 27.878906 170.132812 27.835938 170.09375 27.800781 C 170.0625 27.761719 170.027344 27.722656 169.988281 27.6875 C 169.9375 27.648438 169.886719 27.613281 169.828125 27.585938 L 169.648438 27.507812 L 169.433594 27.417969 L 169.210938 27.339844 L 168.960938 27.257812 L 168.699219 27.179688 C 168.464844 27.105469 168.261719 27.03125 168.085938 26.957031 C 167.890625 26.875 167.699219 26.773438 167.519531 26.652344 C 167.328125 26.539062 167.15625 26.394531 167.011719 26.230469 C 166.867188 26.050781 166.757812 25.851562 166.683594 25.636719 C 166.59375 25.382812 166.546875 25.117188 166.550781 24.851562 C 166.515625 24.167969 166.792969 23.503906 167.300781 23.046875 C 167.820312 22.601562 168.492188 22.367188 169.175781 22.394531 C 169.648438 22.394531 170.121094 22.476562 170.570312 22.628906 C 171.027344 22.78125 171.460938 23.003906 171.855469 23.289062 L 171.078125 24.820312 C 170.507812 24.40625 169.839844 24.15625 169.140625 24.097656 C 168.941406 24.082031 168.746094 24.136719 168.582031 24.242188 C 168.457031 24.332031 168.382812 24.472656 168.382812 24.625 L 168.382812 24.65625 C 168.390625 24.792969 168.457031 24.917969 168.566406 25 C 168.691406 25.101562 168.832031 25.1875 168.980469 25.25 C 169.132812 25.316406 169.347656 25.398438 169.625 25.5 L 169.84375 25.578125 C 170.082031 25.660156 170.289062 25.742188 170.460938 25.820312 C 170.660156 25.910156 170.855469 26.011719 171.039062 26.132812 C 171.230469 26.25 171.402344 26.394531 171.546875 26.5625 C 171.847656 26.9375 172.015625 27.402344 172.015625 27.882812 C 172.066406 28.589844 171.785156 29.277344 171.257812 29.746094 C 170.691406 30.191406 169.984375 30.414062 169.265625 30.382812 Z M 176.898438 30.429688 C 175.882812 30.460938 174.902344 30.050781 174.207031 29.304688 C 173.488281 28.519531 173.105469 27.484375 173.148438 26.417969 L 173.148438 26.390625 C 173.140625 25.691406 173.296875 25 173.597656 24.371094 C 173.878906 23.777344 174.316406 23.273438 174.863281 22.90625 C 175.40625 22.542969 176.050781 22.351562 176.703125 22.359375 C 177.234375 22.355469 177.757812 22.472656 178.234375 22.707031 C 178.675781 22.921875 179.054688 23.246094 179.332031 23.648438 C 179.621094 24.050781 179.832031 24.503906 179.960938 24.984375 C 180.105469 25.492188 180.175781 26.019531 180.175781 26.546875 C 180.175781 26.738281 180.167969 26.933594 180.148438 27.125 L 175.148438 27.125 C 175.21875 27.5625 175.433594 27.960938 175.761719 28.257812 C 176.085938 28.519531 176.492188 28.65625 176.910156 28.644531 C 177.222656 28.648438 177.535156 28.585938 177.824219 28.457031 C 178.128906 28.308594 178.40625 28.109375 178.644531 27.871094 L 179.808594 28.984375 C 179.132812 29.925781 178.03125 30.472656 176.875 30.429688 Z M 175.148438 25.773438 L 178.210938 25.773438 C 178.167969 25.328125 177.992188 24.910156 177.699219 24.574219 C 177.441406 24.28125 177.066406 24.117188 176.679688 24.128906 C 176.292969 24.121094 175.917969 24.28125 175.660156 24.566406 C 175.363281 24.90625 175.175781 25.328125 175.121094 25.773438 Z M 175.148438 25.773438 "/>
<path style=" stroke:none;fill-rule:nonzero;fill:rgb(57.254902%,58.039216%,59.215686%);fill-opacity:1;" d="M 125.207031 29.617188 L 123.011719 27.214844 C 123.367188 26.710938 123.6875 26.179688 123.972656 25.628906 C 124.265625 25.0625 124.554688 24.453125 124.828125 23.8125 L 123.660156 23.226562 C 123.429688 23.792969 123.191406 24.328125 122.9375 24.835938 C 122.699219 25.320312 122.433594 25.792969 122.144531 26.246094 L 119.28125 23.089844 C 120.113281 22.8125 120.863281 22.34375 121.480469 21.722656 C 122.261719 20.777344 122.457031 19.480469 121.992188 18.347656 C 121.851562 17.984375 121.640625 17.648438 121.375 17.363281 C 121.101562 17.082031 120.773438 16.859375 120.414062 16.703125 C 120.03125 16.539062 119.613281 16.457031 119.195312 16.460938 C 118.726562 16.453125 118.261719 16.539062 117.828125 16.710938 C 117.058594 17.035156 116.449219 17.652344 116.132812 18.421875 C 115.972656 18.824219 115.890625 19.253906 115.894531 19.691406 C 115.886719 20.207031 115.992188 20.71875 116.199219 21.191406 C 116.453125 21.730469 116.773438 22.234375 117.152344 22.691406 C 116.289062 23.03125 115.515625 23.574219 114.910156 24.277344 C 114.375 24.941406 114.097656 25.773438 114.117188 26.621094 C 114.109375 27.15625 114.210938 27.691406 114.414062 28.183594 C 114.601562 28.640625 114.882812 29.054688 115.238281 29.394531 C 115.601562 29.734375 116.027344 29.996094 116.496094 30.167969 C 117 30.351562 117.53125 30.445312 118.066406 30.441406 C 118.851562 30.453125 119.625 30.261719 120.3125 29.886719 C 121.023438 29.492188 121.652344 28.972656 122.175781 28.351562 L 124.152344 30.542969 Z M 120.917969 19.601562 C 120.933594 20.175781 120.710938 20.730469 120.308594 21.132812 C 119.785156 21.613281 119.167969 21.976562 118.496094 22.195312 C 118.285156 21.964844 118.089844 21.722656 117.90625 21.472656 C 117.761719 21.273438 117.632812 21.066406 117.519531 20.84375 C 117.429688 20.664062 117.363281 20.476562 117.316406 20.28125 C 117.273438 20.089844 117.253906 19.894531 117.253906 19.699219 C 117.234375 19.179688 117.417969 18.671875 117.765625 18.285156 C 118.121094 17.90625 118.625 17.703125 119.144531 17.722656 C 119.621094 17.703125 120.085938 17.886719 120.417969 18.234375 C 120.765625 18.601562 120.949219 19.09375 120.929688 19.601562 Z M 121.277344 27.367188 C 120.863281 27.875 120.367188 28.3125 119.8125 28.65625 C 119.308594 28.964844 118.730469 29.132812 118.136719 29.128906 C 117.773438 29.136719 117.414062 29.070312 117.078125 28.9375 C 116.449219 28.699219 115.953125 28.207031 115.703125 27.582031 C 115.351562 26.6875 115.496094 25.671875 116.089844 24.914062 C 116.570312 24.332031 117.199219 23.898438 117.90625 23.652344 Z M 121.277344 27.367188 "/>
<path style=" stroke:none;fill-rule:nonzero;fill:rgb(38.431373%,38.823529%,40%);fill-opacity:1;" d="M 70.496094 35.871094 L 71.550781 35.871094 L 71.550781 35.574219 L 69.117188 35.574219 L 69.117188 35.871094 L 70.171875 35.871094 L 70.171875 38.742188 L 70.496094 38.742188 Z M 75.34375 37.246094 L 76.875 37.246094 L 76.875 36.949219 L 75.34375 36.949219 L 75.34375 35.871094 L 76.984375 35.871094 L 76.984375 35.574219 L 75.027344 35.574219 L 75.027344 38.742188 L 77.070312 38.742188 L 77.070312 38.445312 L 75.375 38.445312 L 75.375 37.246094 Z M 83 38.050781 C 82.945312 38.132812 82.878906 38.210938 82.804688 38.28125 C 82.738281 38.339844 82.664062 38.386719 82.582031 38.425781 C 82.503906 38.464844 82.425781 38.488281 82.339844 38.5 C 82.257812 38.507812 82.175781 38.507812 82.089844 38.5 C 81.726562 38.507812 81.378906 38.355469 81.136719 38.085938 C 81.023438 37.957031 80.9375 37.8125 80.882812 37.652344 C 80.820312 37.488281 80.789062 37.316406 80.789062 37.140625 C 80.789062 36.96875 80.820312 36.792969 80.882812 36.628906 C 80.9375 36.472656 81.023438 36.324219 81.136719 36.195312 C 81.25 36.070312 81.390625 35.96875 81.542969 35.894531 C 81.71875 35.820312 81.902344 35.78125 82.089844 35.78125 C 82.175781 35.785156 82.257812 35.796875 82.339844 35.816406 C 82.421875 35.84375 82.5 35.875 82.574219 35.914062 C 82.644531 35.949219 82.710938 35.996094 82.769531 36.046875 C 82.820312 36.09375 82.867188 36.144531 82.902344 36.203125 L 83.183594 35.992188 C 83.050781 35.820312 82.875 35.683594 82.671875 35.605469 C 82.484375 35.53125 82.28125 35.492188 82.078125 35.492188 C 81.855469 35.488281 81.632812 35.53125 81.425781 35.613281 C 81.234375 35.695312 81.0625 35.8125 80.917969 35.960938 C 80.769531 36.109375 80.65625 36.28125 80.574219 36.472656 C 80.402344 36.898438 80.402344 37.371094 80.574219 37.796875 C 80.65625 37.988281 80.769531 38.164062 80.917969 38.308594 C 81.0625 38.457031 81.234375 38.578125 81.425781 38.65625 C 81.632812 38.742188 81.855469 38.785156 82.078125 38.785156 C 82.207031 38.785156 82.332031 38.769531 82.453125 38.738281 C 82.566406 38.710938 82.675781 38.667969 82.78125 38.617188 C 82.878906 38.566406 82.96875 38.503906 83.050781 38.425781 C 83.128906 38.363281 83.195312 38.289062 83.25 38.203125 L 82.988281 38.015625 Z M 86.773438 38.738281 L 87.09375 38.738281 L 87.09375 37.246094 L 88.8125 37.246094 L 88.8125 38.742188 L 89.136719 38.742188 L 89.136719 35.574219 L 88.8125 35.574219 L 88.8125 36.949219 L 87.089844 36.949219 L 87.089844 35.574219 L 86.773438 35.574219 L 86.773438 38.742188 Z M 93.40625 35.574219 L 93.003906 35.574219 L 93.003906 38.742188 L 93.328125 38.742188 L 93.328125 36.035156 L 95.214844 38.742188 L 95.617188 38.742188 L 95.617188 35.574219 L 95.296875 35.574219 L 95.296875 38.257812 Z M 102.542969 37.15625 C 102.546875 36.929688 102.503906 36.703125 102.414062 36.492188 C 102.335938 36.300781 102.21875 36.128906 102.074219 35.980469 C 101.929688 35.832031 101.753906 35.714844 101.5625 35.632812 C 101.144531 35.46875 100.675781 35.46875 100.257812 35.632812 C 100.066406 35.714844 99.890625 35.832031 99.746094 35.980469 C 99.601562 36.128906 99.484375 36.300781 99.402344 36.492188 C 99.234375 36.917969 99.234375 37.394531 99.402344 37.820312 C 99.484375 38.007812 99.601562 38.183594 99.746094 38.328125 C 99.890625 38.480469 100.066406 38.597656 100.257812 38.675781 C 100.675781 38.847656 101.144531 38.847656 101.5625 38.675781 C 101.753906 38.597656 101.929688 38.480469 102.074219 38.328125 C 102.21875 38.183594 102.335938 38.007812 102.414062 37.820312 C 102.503906 37.609375 102.546875 37.382812 102.542969 37.15625 Z M 102.195312 37.15625 C 102.195312 37.328125 102.164062 37.503906 102.105469 37.667969 C 102.050781 37.828125 101.964844 37.976562 101.847656 38.101562 C 101.605469 38.367188 101.257812 38.523438 100.894531 38.523438 C 100.53125 38.523438 100.183594 38.367188 99.941406 38.101562 C 99.828125 37.972656 99.742188 37.824219 99.683594 37.667969 C 99.625 37.503906 99.59375 37.328125 99.59375 37.15625 C 99.59375 36.980469 99.625 36.808594 99.683594 36.644531 C 99.742188 36.484375 99.828125 36.339844 99.941406 36.210938 C 100.054688 36.085938 100.195312 35.980469 100.347656 35.910156 C 100.695312 35.757812 101.09375 35.757812 101.441406 35.910156 C 101.59375 35.980469 101.734375 36.085938 101.847656 36.210938 C 101.960938 36.335938 102.050781 36.484375 102.105469 36.644531 C 102.164062 36.808594 102.195312 36.980469 102.195312 37.15625 Z M 106.488281 35.574219 L 106.167969 35.574219 L 106.167969 38.742188 L 107.960938 38.742188 L 107.960938 38.445312 L 106.488281 38.445312 Z M 114.460938 37.15625 C 114.464844 36.929688 114.421875 36.703125 114.335938 36.492188 C 114.167969 36.105469 113.863281 35.800781 113.476562 35.632812 C 113.058594 35.46875 112.589844 35.46875 112.171875 35.632812 C 111.773438 35.789062 111.457031 36.105469 111.300781 36.507812 C 111.132812 36.933594 111.132812 37.40625 111.300781 37.835938 C 111.457031 38.234375 111.773438 38.550781 112.171875 38.707031 C 112.589844 38.878906 113.058594 38.878906 113.476562 38.707031 C 113.863281 38.539062 114.167969 38.234375 114.335938 37.847656 C 114.421875 37.640625 114.464844 37.414062 114.460938 37.183594 Z M 114.113281 37.15625 C 114.113281 37.328125 114.085938 37.503906 114.023438 37.667969 C 113.96875 37.824219 113.878906 37.972656 113.769531 38.101562 C 113.523438 38.367188 113.175781 38.523438 112.8125 38.523438 C 112.449219 38.523438 112.101562 38.367188 111.859375 38.101562 C 111.746094 37.976562 111.65625 37.828125 111.601562 37.667969 C 111.542969 37.503906 111.511719 37.328125 111.511719 37.15625 C 111.511719 36.980469 111.542969 36.808594 111.601562 36.644531 C 111.65625 36.484375 111.746094 36.335938 111.859375 36.210938 C 111.972656 36.085938 112.113281 35.980469 112.265625 35.910156 C 112.617188 35.757812 113.011719 35.757812 113.359375 35.910156 C 113.515625 35.980469 113.652344 36.085938 113.765625 36.210938 C 113.878906 36.339844 113.964844 36.484375 114.023438 36.644531 C 114.082031 36.808594 114.113281 36.980469 114.113281 37.15625 Z M 120.660156 35.921875 C 120.515625 35.777344 120.339844 35.664062 120.148438 35.597656 C 119.9375 35.523438 119.71875 35.488281 119.496094 35.496094 C 119.269531 35.492188 119.046875 35.535156 118.835938 35.617188 C 118.644531 35.699219 118.472656 35.816406 118.328125 35.964844 C 118.175781 36.109375 118.058594 36.285156 117.980469 36.476562 C 117.816406 36.902344 117.816406 37.375 117.980469 37.804688 C 118.058594 37.996094 118.175781 38.167969 118.328125 38.3125 C 118.472656 38.460938 118.644531 38.582031 118.835938 38.660156 C 119.046875 38.746094 119.269531 38.789062 119.496094 38.789062 C 119.699219 38.785156 119.90625 38.757812 120.101562 38.703125 C 120.308594 38.652344 120.507812 38.574219 120.6875 38.46875 L 120.6875 36.9375 L 119.613281 36.9375 L 119.613281 37.234375 L 120.367188 37.234375 L 120.367188 38.300781 C 120.242188 38.371094 120.105469 38.425781 119.964844 38.460938 C 119.8125 38.5 119.65625 38.523438 119.496094 38.523438 C 119.308594 38.527344 119.121094 38.488281 118.949219 38.410156 C 118.792969 38.339844 118.65625 38.234375 118.542969 38.109375 C 118.429688 37.980469 118.339844 37.832031 118.28125 37.671875 C 118.226562 37.507812 118.195312 37.335938 118.195312 37.164062 C 118.195312 36.988281 118.226562 36.816406 118.28125 36.652344 C 118.339844 36.492188 118.429688 36.34375 118.542969 36.21875 C 118.65625 36.089844 118.792969 35.988281 118.949219 35.917969 C 119.121094 35.839844 119.308594 35.800781 119.496094 35.804688 C 119.671875 35.800781 119.847656 35.835938 120.007812 35.90625 C 120.152344 35.96875 120.28125 36.058594 120.390625 36.171875 L 120.628906 35.9375 Z M 125.554688 37.375 L 126.738281 35.574219 L 126.335938 35.574219 L 125.390625 37.070312 L 124.453125 35.574219 L 124.035156 35.574219 L 125.21875 37.375 L 125.21875 38.742188 L 125.539062 38.742188 L 125.539062 37.375 Z M 133.847656 35.878906 C 133.738281 35.746094 133.597656 35.644531 133.441406 35.578125 C 133.285156 35.519531 133.121094 35.492188 132.957031 35.496094 C 132.828125 35.496094 132.703125 35.511719 132.578125 35.546875 C 132.460938 35.582031 132.351562 35.636719 132.253906 35.710938 C 132.15625 35.785156 132.074219 35.882812 132.019531 35.996094 C 131.957031 36.117188 131.929688 36.253906 131.929688 36.390625 C 131.925781 36.515625 131.953125 36.640625 132.003906 36.757812 C 132.046875 36.847656 132.109375 36.929688 132.1875 36.996094 C 132.265625 37.066406 132.351562 37.117188 132.445312 37.15625 C 132.535156 37.203125 132.621094 37.242188 132.710938 37.277344 L 133.011719 37.371094 C 133.105469 37.40625 133.191406 37.445312 133.273438 37.496094 C 133.34375 37.542969 133.40625 37.605469 133.453125 37.679688 C 133.542969 37.839844 133.546875 38.035156 133.460938 38.199219 C 133.421875 38.269531 133.367188 38.332031 133.300781 38.382812 C 133.234375 38.429688 133.160156 38.46875 133.082031 38.492188 C 133.003906 38.515625 132.921875 38.53125 132.839844 38.53125 C 132.691406 38.535156 132.539062 38.5 132.40625 38.425781 C 132.289062 38.359375 132.191406 38.265625 132.121094 38.148438 L 131.832031 38.359375 C 131.945312 38.515625 132.097656 38.640625 132.273438 38.714844 C 132.449219 38.789062 132.636719 38.828125 132.828125 38.828125 C 132.953125 38.828125 133.082031 38.808594 133.199219 38.761719 C 133.320312 38.726562 133.4375 38.664062 133.535156 38.582031 C 133.636719 38.507812 133.71875 38.410156 133.777344 38.296875 C 133.839844 38.175781 133.871094 38.042969 133.867188 37.910156 C 133.875 37.75 133.835938 37.59375 133.75 37.460938 C 133.671875 37.351562 133.570312 37.261719 133.449219 37.195312 C 133.324219 37.125 133.195312 37.070312 133.058594 37.035156 C 132.925781 36.996094 132.796875 36.953125 132.667969 36.902344 C 132.558594 36.855469 132.457031 36.789062 132.367188 36.707031 C 132.285156 36.617188 132.242188 36.492188 132.25 36.371094 C 132.246094 36.28125 132.265625 36.195312 132.304688 36.113281 C 132.34375 36.046875 132.398438 35.984375 132.460938 35.9375 C 132.527344 35.890625 132.601562 35.855469 132.679688 35.835938 C 132.757812 35.8125 132.839844 35.800781 132.921875 35.796875 C 133.164062 35.785156 133.398438 35.90625 133.53125 36.109375 L 133.8125 35.890625 Z M 140.617188 37.15625 C 140.617188 36.929688 140.574219 36.703125 140.488281 36.492188 C 140.410156 36.300781 140.289062 36.125 140.140625 35.980469 C 139.996094 35.832031 139.824219 35.714844 139.632812 35.632812 C 139.210938 35.46875 138.746094 35.46875 138.324219 35.632812 C 138.132812 35.714844 137.957031 35.832031 137.8125 35.980469 C 137.667969 36.128906 137.550781 36.300781 137.46875 36.492188 C 137.304688 36.917969 137.304688 37.390625 137.46875 37.820312 C 137.550781 38.007812 137.667969 38.183594 137.8125 38.328125 C 137.957031 38.480469 138.132812 38.597656 138.324219 38.675781 C 138.742188 38.847656 139.210938 38.847656 139.632812 38.675781 C 139.824219 38.59375 139.996094 38.476562 140.140625 38.328125 C 140.289062 38.183594 140.410156 38.011719 140.488281 37.820312 C 140.574219 37.609375 140.617188 37.382812 140.617188 37.15625 Z M 140.265625 37.15625 C 140.265625 37.328125 140.234375 37.503906 140.175781 37.667969 C 140.117188 37.824219 140.03125 37.972656 139.921875 38.101562 C 139.535156 38.507812 138.933594 38.628906 138.421875 38.402344 C 138.265625 38.332031 138.125 38.226562 138.011719 38.101562 C 137.898438 37.976562 137.8125 37.828125 137.757812 37.667969 C 137.699219 37.503906 137.667969 37.328125 137.667969 37.15625 C 137.667969 36.980469 137.699219 36.808594 137.757812 36.644531 C 137.8125 36.484375 137.898438 36.335938 138.011719 36.210938 C 138.125 36.082031 138.265625 35.980469 138.421875 35.910156 C 138.769531 35.761719 139.160156 35.761719 139.507812 35.910156 C 139.667969 35.980469 139.808594 36.082031 139.921875 36.210938 C 140.03125 36.339844 140.117188 36.484375 140.175781 36.644531 C 140.234375 36.808594 140.265625 36.980469 140.265625 37.15625 Z M 144.558594 35.574219 L 144.234375 35.574219 L 144.234375 38.742188 L 146.03125 38.742188 L 146.03125 38.445312 L 144.554688 38.445312 L 144.554688 35.574219 Z M 151.703125 35.574219 L 151.382812 35.574219 L 151.382812 37.523438 C 151.382812 37.652344 151.367188 37.785156 151.335938 37.910156 C 151.308594 38.007812 151.269531 38.101562 151.21875 38.1875 C 151.171875 38.257812 151.117188 38.316406 151.050781 38.367188 C 150.992188 38.40625 150.929688 38.4375 150.867188 38.460938 C 150.808594 38.488281 150.75 38.503906 150.6875 38.515625 L 150.394531 38.515625 C 150.335938 38.503906 150.277344 38.488281 150.21875 38.460938 C 150.15625 38.4375 150.09375 38.40625 150.039062 38.367188 C 149.972656 38.316406 149.917969 38.257812 149.871094 38.1875 C 149.820312 38.101562 149.777344 38.007812 149.753906 37.910156 C 149.71875 37.785156 149.703125 37.652344 149.707031 37.523438 L 149.707031 35.574219 L 149.386719 35.574219 L 149.386719 37.5625 C 149.386719 37.703125 149.402344 37.84375 149.433594 37.980469 C 149.464844 38.128906 149.527344 38.265625 149.609375 38.390625 C 149.703125 38.515625 149.824219 38.625 149.960938 38.699219 C 150.332031 38.863281 150.753906 38.863281 151.121094 38.699219 C 151.261719 38.625 151.382812 38.519531 151.480469 38.390625 C 151.5625 38.265625 151.621094 38.128906 151.652344 37.980469 C 151.683594 37.84375 151.699219 37.703125 151.703125 37.5625 Z M 156.496094 35.867188 L 157.558594 35.867188 L 157.558594 35.574219 L 155.117188 35.574219 L 155.117188 35.867188 L 156.175781 35.867188 L 156.175781 38.738281 L 156.496094 38.738281 Z M 161.351562 35.574219 L 161.027344 35.574219 L 161.027344 38.742188 L 161.351562 38.742188 Z M 168.265625 37.15625 C 168.269531 36.929688 168.226562 36.703125 168.144531 36.492188 C 168.0625 36.300781 167.945312 36.125 167.796875 35.980469 C 167.652344 35.832031 167.476562 35.714844 167.285156 35.632812 C 167.078125 35.550781 166.855469 35.507812 166.632812 35.511719 C 166.410156 35.507812 166.183594 35.550781 165.976562 35.632812 C 165.785156 35.714844 165.609375 35.832031 165.464844 35.980469 C 165.316406 36.128906 165.199219 36.300781 165.117188 36.492188 C 164.953125 36.917969 164.953125 37.390625 165.117188 37.820312 C 165.199219 38.007812 165.316406 38.183594 165.464844 38.328125 C 165.609375 38.476562 165.785156 38.59375 165.976562 38.675781 C 166.183594 38.761719 166.40625 38.804688 166.632812 38.804688 C 166.855469 38.804688 167.078125 38.761719 167.285156 38.675781 C 167.476562 38.59375 167.652344 38.476562 167.796875 38.328125 C 167.945312 38.183594 168.0625 38.011719 168.144531 37.820312 C 168.226562 37.609375 168.269531 37.382812 168.265625 37.15625 Z M 167.917969 37.15625 C 167.917969 37.328125 167.890625 37.5 167.832031 37.667969 C 167.773438 37.828125 167.6875 37.972656 167.570312 38.101562 C 167.460938 38.230469 167.320312 38.332031 167.164062 38.402344 C 166.816406 38.550781 166.421875 38.550781 166.078125 38.402344 C 165.921875 38.332031 165.78125 38.226562 165.667969 38.101562 C 165.554688 37.972656 165.464844 37.828125 165.40625 37.667969 C 165.351562 37.5 165.320312 37.328125 165.320312 37.15625 C 165.324219 36.980469 165.351562 36.808594 165.40625 36.644531 C 165.464844 36.484375 165.554688 36.335938 165.667969 36.210938 C 165.78125 36.082031 165.921875 35.980469 166.078125 35.910156 C 166.421875 35.761719 166.816406 35.761719 167.164062 35.910156 C 167.320312 35.980469 167.460938 36.082031 167.570312 36.210938 C 167.6875 36.335938 167.773438 36.484375 167.832031 36.644531 C 167.886719 36.8125 167.917969 36.984375 167.917969 37.160156 Z M 172.292969 35.574219 L 171.890625 35.574219 L 171.890625 38.742188 L 172.210938 38.742188 L 172.210938 36.035156 L 174.097656 38.742188 L 174.496094 38.742188 L 174.496094 35.574219 L 174.175781 35.574219 L 174.175781 38.257812 Z M 180.121094 35.878906 C 180.015625 35.746094 179.875 35.640625 179.714844 35.578125 C 179.4375 35.480469 179.140625 35.46875 178.855469 35.546875 C 178.738281 35.582031 178.625 35.636719 178.527344 35.707031 C 178.425781 35.785156 178.347656 35.882812 178.296875 35.992188 C 178.234375 36.117188 178.203125 36.25 178.207031 36.386719 C 178.203125 36.511719 178.226562 36.636719 178.277344 36.753906 C 178.320312 36.847656 178.382812 36.929688 178.460938 36.996094 C 178.539062 37.0625 178.625 37.117188 178.71875 37.15625 C 178.816406 37.199219 178.917969 37.238281 179.019531 37.269531 L 179.316406 37.367188 C 179.40625 37.398438 179.496094 37.441406 179.578125 37.488281 C 179.652344 37.535156 179.714844 37.597656 179.761719 37.671875 C 179.847656 37.835938 179.851562 38.03125 179.765625 38.195312 C 179.726562 38.265625 179.671875 38.328125 179.605469 38.378906 C 179.539062 38.425781 179.46875 38.460938 179.390625 38.484375 C 179.167969 38.558594 178.921875 38.53125 178.71875 38.417969 C 178.597656 38.351562 178.5 38.257812 178.425781 38.140625 L 178.140625 38.351562 C 178.253906 38.507812 178.40625 38.632812 178.585938 38.707031 C 178.757812 38.78125 178.945312 38.820312 179.136719 38.820312 C 179.261719 38.820312 179.390625 38.800781 179.507812 38.753906 C 179.628906 38.714844 179.742188 38.65625 179.839844 38.578125 C 179.941406 38.5 180.023438 38.402344 180.082031 38.289062 C 180.144531 38.171875 180.175781 38.035156 180.171875 37.902344 C 180.183594 37.742188 180.140625 37.585938 180.050781 37.453125 C 179.972656 37.34375 179.871094 37.25 179.75 37.1875 C 179.628906 37.117188 179.496094 37.0625 179.363281 37.027344 C 179.226562 36.988281 179.097656 36.945312 178.96875 36.894531 C 178.859375 36.847656 178.757812 36.78125 178.671875 36.699219 C 178.589844 36.609375 178.542969 36.488281 178.550781 36.363281 C 178.550781 36.273438 178.570312 36.1875 178.605469 36.105469 C 178.644531 36.035156 178.699219 35.976562 178.769531 35.929688 C 178.832031 35.878906 178.90625 35.847656 178.984375 35.828125 C 179.0625 35.804688 179.140625 35.792969 179.222656 35.792969 C 179.46875 35.777344 179.703125 35.894531 179.835938 36.101562 Z M 180.121094 35.878906 "/>
<path style=" stroke:none;fill-rule:evenodd;fill:rgb(0%,67.843137%,93.333333%);fill-opacity:1;" d="M 44.511719 28.261719 C 42.542969 29.632812 40.710938 31.183594 39.035156 32.894531 L 36.394531 30.679688 C 36.289062 23.867188 38.226562 25.0625 39.351562 22.386719 C 38.226562 22.691406 37.222656 24.203125 36.445312 24.9375 C 31.210938 21.113281 31.5 21.4375 31.578125 18.300781 C 29.792969 19.402344 32.085938 19.832031 29.808594 21.875 C 28.792969 22.707031 27.726562 23.46875 26.613281 24.164062 C 24.742188 22.886719 22.855469 21.4375 22.066406 19.617188 L 21.496094 18.445312 C 21.496094 20.421875 21.964844 20.039062 19.25 22.121094 C 18.070312 22.976562 16.976562 23.738281 15.945312 24.511719 L 13.785156 22.933594 C 14.296875 26.089844 16.078125 23.21875 15.320312 30.132812 C 15.15625 31.617188 12.257812 34.1875 10.964844 34.992188 L 7.230469 33.40625 C 8.929688 26.652344 15.28125 17.914062 23.414062 16.667969 C 32.765625 15.230469 42.671875 21.875 44.511719 28.261719 Z M 58.054688 40.660156 C 60.664062 40.152344 61.917969 38.109375 57.347656 37.367188 C 50.660156 36.253906 50.773438 33.730469 53.9375 31.65625 C 57 32.382812 62.824219 30.492188 63.5 28.777344 C 65.273438 18.125 55.199219 14.710938 50.660156 17.417969 C 49.277344 11.125 45.289062 2.875 40.457031 0.757812 C 40.457031 9.601562 47.550781 17.777344 48.964844 18.507812 C 47.035156 20.78125 46.414062 24.027344 47.019531 25.570312 C 31.964844 3.15625 7.203125 14.589844 4.523438 28.058594 C 4.324219 29.109375 4.269531 30.183594 4.355469 31.25 C 3.226562 30.75 1.914062 30.9375 0.972656 31.730469 C -0.394531 32.949219 -0.308594 35.269531 1.148438 36.886719 C 2.609375 38.507812 4.902344 38.832031 6.253906 37.613281 C 6.390625 37.488281 6.515625 37.351562 6.628906 37.203125 C 5.402344 37.214844 4.1875 36.984375 3.054688 36.519531 C 2.035156 36.011719 6.191406 35.339844 7.09375 34.300781 C 7.230469 34.441406 7.394531 34.558594 7.574219 34.640625 C 15.414062 38.246094 24.835938 40.09375 34.117188 37.65625 C 37.128906 36.863281 39.402344 33.4375 43.109375 30.503906 C 44.46875 29.4375 46.609375 27.734375 49.152344 28.757812 C 49.960938 29.304688 50.699219 29.945312 51.351562 30.667969 C 52.230469 31.726562 52.085938 32.273438 51.761719 33.609375 C 48.160156 34.832031 44.015625 35.984375 41.382812 38.011719 C 41.660156 38.421875 42.484375 39.03125 42.914062 39.542969 C 43.242188 39.871094 43.367188 40.347656 43.238281 40.796875 L 58.042969 40.675781 Z M 6.636719 37.199219 C 7.171875 37.183594 7.695312 37.050781 8.167969 36.808594 C 8.890625 37.765625 9.265625 38.191406 9.242188 38.996094 C 8.292969 38.523438 7.417969 37.917969 6.636719 37.199219 Z M 15.472656 40.738281 C 15.675781 40.21875 15.554688 39.628906 15.160156 39.234375 C 23.839844 40.371094 27.710938 40.503906 36.152344 39.15625 C 36.78125 39.464844 37.101562 40.175781 36.914062 40.851562 L 17.867188 40.851562 C 17.074219 40.851562 16.285156 40.8125 15.496094 40.734375 Z M 20.703125 37.488281 C 20.554688 35.671875 17.167969 33.175781 15.746094 32.023438 L 11.742188 35.269531 C 14.605469 36.441406 17.621094 37.1875 20.699219 37.492188 Z M 38.363281 33.65625 C 37.652344 32.808594 36.863281 32.03125 36.003906 31.335938 C 35.144531 31.703125 35.96875 31.269531 35.09375 31.890625 C 34.890625 32.03125 34.582031 32.320312 34.277344 32.53125 C 31.394531 34.722656 30.628906 34.804688 30.59375 37.332031 C 35.378906 36.660156 36.003906 35.832031 38.367188 33.652344 Z M 21.519531 37.535156 C 23.992188 38.234375 29.835938 38.195312 29.992188 37.277344 C 30.140625 36.445312 29.351562 34.355469 26.421875 32.640625 C 24.890625 33.375 21.777344 35.789062 21.53125 37.542969 Z M 35.660156 25.46875 C 34.285156 24.351562 32.765625 22.796875 31.066406 22.035156 C 29.707031 22.851562 28.289062 23.972656 27.023438 24.847656 C 26.9375 26.078125 26.679688 30.464844 26.957031 31.390625 C 27.230469 32.3125 29.675781 34.121094 30.457031 34.453125 L 33.007812 32.355469 C 33.8125 31.730469 34.972656 30.710938 35.5625 30.195312 L 35.671875 25.484375 Z M 25.78125 32.011719 C 25.871094 30.300781 26.320312 26.0625 25.648438 24.730469 C 24.5 23.476562 23.242188 22.328125 21.894531 21.292969 C 19.671875 22.429688 18.203125 24.4375 16.222656 25.324219 L 16.078125 31.449219 C 18.019531 32.695312 20.007812 34.835938 21.214844 35.476562 C 22.980469 34.484375 23.867188 33.078125 25.78125 32.023438 Z M 48.425781 29.496094 C 48.878906 29.503906 49.238281 29.882812 49.226562 30.335938 C 49.214844 30.789062 48.839844 31.148438 48.386719 31.136719 C 47.933594 31.128906 47.574219 30.753906 47.582031 30.296875 C 47.585938 30.078125 47.679688 29.871094 47.835938 29.722656 C 47.996094 29.570312 48.207031 29.488281 48.425781 29.496094 Z M 58.121094 20.25 C 58.640625 20.238281 59.117188 20.539062 59.324219 21.015625 C 59.53125 21.492188 59.429688 22.046875 59.066406 22.417969 C 58.703125 22.789062 58.152344 22.902344 57.671875 22.707031 C 57.191406 22.511719 56.875 22.042969 56.875 21.527344 C 56.867188 20.828125 57.425781 20.257812 58.121094 20.25 Z M 51.296875 15.683594 C 51.0625 14.425781 50.722656 13.1875 50.277344 11.984375 C 50.628906 9.734375 48.746094 4.324219 51.777344 0 C 55.203125 6.8125 51.742188 15.070312 51.296875 15.679688 Z M 51.296875 15.683594 "/>
</g>
</svg>
