<svg width="26" height="27" viewBox="0 0 26 27" fill="none" xmlns="http://www.w3.org/2000/svg">
<path d="M12.0714 20.3985V3.71636L7.74429 8.20993L6.42943 6.82521L13 0L19.5724 6.82521L18.2576 8.21186L13.9286 3.71636V20.3985H12.0714ZM3.00114 27C2.14562 27 1.43186 26.703 0.859857 26.109C0.287857 25.515 0.0012381 24.7731 0 23.8834V19.2105H1.85714V23.8834C1.85714 24.1804 1.976 24.453 2.21371 24.7011C2.45143 24.9493 2.71329 25.0727 2.99929 25.0714H23.0007C23.2855 25.0714 23.5473 24.948 23.7863 24.7011C24.0252 24.4543 24.1441 24.1817 24.1429 23.8834V19.2105H26V23.8834C26 24.7719 25.714 25.5131 25.142 26.1071C24.57 26.7011 23.8556 26.9987 22.9989 27H3.00114Z" fill="#CE072F"/>
</svg>
