<svg xmlns="http://www.w3.org/2000/svg" width="424.048" height="435.854" viewBox="0 0 424.048 435.854">
  <path id="onboarding" d="M185.677,52.052a47.73,47.73,0,1,0,0,67.5,47.732,47.732,0,0,0,0-67.5Zm173.657,81.48A47.73,47.73,0,1,0,311.648,85.8,47.724,47.724,0,0,0,359.334,133.532ZM194.311,360.456c-2.574-2.574-4.48-5.3-7.871-5.3a6.132,6.132,0,0,0-4.352,1.786l-36.2,36.2a6.194,6.194,0,0,0,0,8.7c2.574,2.573,4.481,5.3,7.871,5.3,2.552,0,3.729-1.163,5.24-2.674l35.31-35.31A6.2,6.2,0,0,0,194.311,360.456Zm-12.323,65.269c-1.533,1.533-2.724,2.651-5.218,2.651-3.378,0-5.2-2.637-7.871-5.3a6.2,6.2,0,0,1,0-8.7l35.31-35.31c1.539-1.539,2.729-2.674,5.241-2.674,3.379,0,5.2,2.637,7.871,5.3a6.2,6.2,0,0,1,0,8.7Zm81.352-1.571c-2.668-2.668-4.493-5.3-7.871-5.3-2.495,0-3.7,1.127-5.241,2.675L214.9,456.852a6.2,6.2,0,0,0,.019,8.685c2.668,2.668,4.493,5.3,7.871,5.3a6.134,6.134,0,0,0,4.352-1.786l36.2-36.2a6.193,6.193,0,0,0,0-8.7ZM205,446.958c-1.532,1.532-2.724,2.651-5.217,2.651-3.378,0-5.2-2.637-7.871-5.3a6.2,6.2,0,0,1-.019-8.686l35.328-35.328c1.511-1.511,2.689-2.675,5.241-2.675,3.391,0,5.3,2.731,7.871,5.3a6.2,6.2,0,0,1,.018,8.685Zm64.722-36.222a20.089,20.089,0,0,0-13.747-5.881c-.888-7.418-4.536-10.625-9.262-15.351a20.092,20.092,0,0,0-13.747-5.882c-.888-7.417-4.536-10.625-9.262-15.351a20.089,20.089,0,0,0-13.747-5.881c-.888-7.418-4.536-10.625-9.262-15.351a20.19,20.19,0,0,0-28.5,0L142.621,376.61l-18.941-14.7a6.954,6.954,0,0,0-2.737-1.271l0-.014-63.558-14a12.8,12.8,0,0,1-10.214-12.176l-3.185-79.988a12.99,12.99,0,0,1,18.443-12.366l81.131,37.149a6.965,6.965,0,0,0,6.341-.278l0,0c29.816-16.883,64.665-17.023,99.178-9.019-13.029,6-25.739,14.374-38.138,24.583-25.573,21.055-14.664,54.882,21.7,49.32,33.679-5.15,44.454-32.87,71.056-5.912,16.369,16.588,33.222,32.2,50.1,47.968-14.6,16.789-26.178,30.762-35.927,42.528-36.336,43.853-45.235,54.592-68.576,38.26l23.94-23.94a20.19,20.19,0,0,0,0-28.5Zm24.913-274.785a55.125,55.125,0,1,1-77.959,0A55.127,55.127,0,0,1,294.632,135.951Zm-70.553,98.228a67.186,67.186,0,0,1-31-83.6,52.916,52.916,0,0,0-22.7-5.048H133.473a53.871,53.871,0,0,0-53.7,53.7v35.462l66.4,30.4c23.722-12.492,50.236-16.1,77.9-13.432V234.179Zm51.146,4.976a67.472,67.472,0,0,1-39.146,0V253.2a254.2,254.2,0,0,1,36.457,8.715q1.576-.352,3.157-.655a33.77,33.77,0,0,1-.468-5.583Zm43-88.575a67.187,67.187,0,0,1-31,83.6v21.495a22.273,22.273,0,0,0,.361,4.04c19.29-1.316,39.056,3.155,59.284,14.929l84.66-48.463V199.23a53.872,53.872,0,0,0-53.7-53.7H340.924a52.928,52.928,0,0,0-22.7,5.049Zm-34.188-2.746L242.567,189.3l-15.3-15.3a6,6,0,1,0-8.484,8.484l19.538,19.539a6,6,0,0,0,8.484,0l45.709-45.708a6,6,0,0,0-8.484-8.484Zm161.6,86.386-95.381,54.6a6.994,6.994,0,0,1-7.394-.279c-21.753-13.5-42.7-17.3-62.873-13.857-20.622,3.525-40.7,14.578-60.188,30.62-13.573,11.175-12.656,28.293,10.764,24.711,31.662-4.842,47.5-37.932,83.087-1.865,16.759,16.983,34.225,33.078,51.815,49.546l92.791-24.007a12.91,12.91,0,0,0,9.757-13.086l-2.89-95.434a12.974,12.974,0,0,0-19.488-10.949Z" transform="translate(-43.978 -38.073)" fill="#55b8ff" fill-rule="evenodd"/>
</svg>
