<svg width="39" height="22" viewBox="0 0 39 22" fill="none" xmlns="http://www.w3.org/2000/svg">
<path d="M31.0559 4.43066C31.0496 4.49007 31.0305 4.54636 31.002 4.60264C30.9702 4.73396 30.9543 4.88405 30.9543 5.04977C30.9543 5.0654 30.9575 5.08103 30.9575 5.09667V15.9591C31.0972 16.2999 31.2686 16.5563 31.4749 16.7158C31.6653 16.8659 31.9001 16.9378 32.1858 16.9253C32.2048 16.9221 32.2271 16.9221 32.2461 16.9221H35.4072C35.4136 16.9221 35.4231 16.9221 35.4326 16.9221C35.9246 16.9471 36.28 16.8158 36.5181 16.5469C36.7878 16.2405 36.9434 15.7496 36.9973 15.0898V15.0805L37.959 5.28115C37.959 5.26551 37.959 5.24988 37.9622 5.23425C38.0288 4.67768 37.905 4.31497 37.6257 4.10235C37.3052 3.85846 36.7751 3.75841 36.0864 3.75841C36.0706 3.75841 36.0547 3.76153 36.0388 3.76153H32.4778V3.75841C31.9351 3.75841 31.5352 3.86472 31.2908 4.08359C31.1892 4.17427 31.113 4.28996 31.0559 4.43066ZM27.571 16.4469C27.4949 16.3749 27.4409 16.2811 27.4187 16.178L22.3406 7.17285C21.7756 6.24419 21.2678 6.22231 20.7759 6.50997C20.4268 6.71321 20.0586 7.04465 19.6904 7.37609C19.4683 7.5762 19.2461 7.77632 19.0588 7.92953L18.186 8.63931L18.1797 8.64243C17.5449 9.14584 16.8276 9.41787 16.1484 9.47103C15.7009 9.50855 15.2693 9.45227 14.8757 9.30531C14.4727 9.15522 14.1172 8.91446 13.8506 8.58615C13.5618 8.23282 13.3713 7.78257 13.3269 7.25102H13.3301C13.3206 7.12282 13.3586 6.99462 13.4475 6.88831L16.2214 3.63646C15.6375 3.62708 15.1201 3.70525 14.6345 3.85534C13.895 4.08359 13.2031 4.47757 12.4478 4.98723C12.3621 5.05289 12.251 5.09354 12.1335 5.09354H8.9375V11.0438L8.9502 14.8491H10.8101C10.9878 14.8491 11.1592 14.9398 11.2512 15.1024L13.5618 19.0702C13.8982 19.6487 14.1965 20.149 14.5679 20.4773C14.917 20.7868 15.374 20.9776 16.0786 20.9963C16.342 21.0026 16.5959 20.9588 16.834 20.8619C16.98 20.8025 17.126 20.7212 17.2688 20.618L15.7708 17.8602C15.6375 17.6163 15.7327 17.313 15.9802 17.1848C16.2278 17.0535 16.5356 17.1473 16.6658 17.3912L18.2939 20.3897C18.9001 20.693 19.4492 20.7868 19.9412 20.6836C20.3918 20.5867 20.8171 20.3209 21.217 19.8894L18.8716 16.2624C18.7224 16.031 18.7891 15.7215 19.0271 15.5714C19.262 15.4244 19.5762 15.4901 19.7285 15.7246L22.1978 19.5455C22.6326 19.7206 23.0483 19.7581 23.4451 19.6518C23.8228 19.5486 24.2036 19.311 24.5813 18.9233L22.3438 14.7709C22.2104 14.527 22.3057 14.2206 22.5564 14.0924C22.804 13.9611 23.115 14.0549 23.2451 14.3019L25.562 18.5981C25.8635 18.7701 26.2126 18.8138 26.5459 18.7607C26.8379 18.7138 27.1204 18.5887 27.3521 18.4105C27.5742 18.2354 27.7488 18.0103 27.8313 17.7539C27.9233 17.4756 27.9138 17.1504 27.7646 16.7971L27.571 16.4469ZM28.2439 15.5776H29.9387V5.09667C29.9387 5.08416 29.9387 5.06853 29.9419 5.05602C29.9419 4.89343 29.9514 4.73709 29.9736 4.59013L28.2471 3.46136C28.2375 3.45511 28.228 3.44886 28.2185 3.4426C27.9932 3.29564 27.7234 3.10804 27.4536 2.92043C26.4729 2.24505 25.4668 1.54778 24.3782 1.26637C23.791 1.11315 23.1118 1.0131 22.4199 1.00059C21.8137 0.988083 21.198 1.04437 20.6172 1.19445C20.2712 1.282 19.9348 1.40394 19.6238 1.56654C19.3477 1.71037 19.0906 1.88547 18.8621 2.09809L17.7068 3.45198C17.6719 3.52077 17.6211 3.57705 17.5608 3.62396L14.3743 7.36358C14.4219 7.60122 14.5171 7.80133 14.6472 7.96392C14.7996 8.1484 15.0027 8.28598 15.2344 8.37353C15.4819 8.46421 15.7676 8.4986 16.0659 8.47359C16.5515 8.43294 17.072 8.23595 17.5386 7.86699L18.4114 7.15721C18.6335 6.97586 18.8208 6.80701 19.0081 6.6413C19.4175 6.27234 19.8237 5.9065 20.2554 5.65323C21.2488 5.06853 22.239 5.04977 23.2166 6.66631L23.2261 6.68194L28.2439 15.5776ZM30.1292 16.5813H28.7739C28.958 17.1097 28.9485 17.61 28.8025 18.054C28.6533 18.5105 28.3613 18.8983 27.9868 19.1922C27.6218 19.4767 27.1775 19.6737 26.7109 19.7487C26.2571 19.8238 25.781 19.7831 25.3367 19.6018C24.8225 20.1302 24.2798 20.4648 23.7148 20.618C23.1467 20.7712 22.5723 20.7399 21.9915 20.5398C21.4392 21.1433 20.8298 21.5216 20.157 21.6623C19.4714 21.8093 18.7446 21.7061 17.9734 21.3497C17.7322 21.5341 17.4814 21.6811 17.218 21.7874C16.8467 21.9406 16.4563 22.0094 16.0469 21.9969C15.0693 21.9688 14.4124 21.6842 13.8887 21.2215C13.3872 20.7806 13.054 20.2178 12.6731 19.5674L10.5117 15.8528H8.83594C8.73755 16.3312 8.56934 16.7377 8.31543 17.0628C7.88696 17.6069 7.26172 17.8946 6.39209 17.8758C6.38257 17.8758 6.37305 17.8758 6.36353 17.8758H3.49121C2.76758 17.9915 2.14868 17.8164 1.66309 17.263C1.23145 16.7721 0.939453 15.9747 0.8125 14.8053C0.809326 14.7928 0.809326 14.7772 0.806153 14.7615L0.0507814 5.53754C-0.0983885 4.54323 0.0666506 3.8397 0.472901 3.35818C0.882324 2.87353 1.50122 2.65466 2.25977 2.62026C2.28198 2.61713 2.30103 2.61713 2.32324 2.61713H6.19214V2.62026C6.92212 2.61088 7.55054 2.73282 8.02661 3.03612C8.41064 3.28001 8.68677 3.62396 8.82642 4.09297H11.978C12.7715 3.56767 13.511 3.15494 14.3298 2.90167C15.136 2.65466 15.9961 2.56711 17.0276 2.68905L18.0908 1.45085C18.1099 1.42583 18.1289 1.40394 18.1543 1.38206C18.4558 1.10065 18.7922 0.869266 19.1541 0.681659C19.5349 0.484672 19.9412 0.334587 20.3665 0.22515C21.0393 0.0531771 21.7471 -0.0124852 22.439 2.19031e-05C23.2229 0.0156558 23.9846 0.12822 24.6416 0.297066C25.8984 0.625377 26.9839 1.37268 28.0376 2.10122C28.2725 2.26381 28.5073 2.4264 28.7866 2.60775C28.7961 2.61401 28.8057 2.62026 28.8152 2.62651L30.345 3.63334C30.4211 3.52703 30.51 3.4301 30.6116 3.34255C31.0496 2.95483 31.6748 2.76409 32.481 2.76409V2.76097H36.042C36.0547 2.76097 36.0706 2.76097 36.0833 2.76409C36.9941 2.76097 37.7368 2.92356 38.251 3.31441C38.8223 3.74903 39.092 4.40878 38.9778 5.35619C38.9778 5.36557 38.9746 5.37182 38.9746 5.3812L38.0129 15.1711C37.9431 16.0466 37.7051 16.7314 37.2861 17.2067C36.8386 17.7132 36.2197 17.9634 35.4072 17.929H32.2461H32.2429C31.697 17.9571 31.2305 17.8101 30.8401 17.5037C30.5544 17.2755 30.3164 16.969 30.1292 16.5813ZM4.44336 12.776C4.82422 12.776 5.13208 13.0793 5.13208 13.4545C5.13208 13.8298 4.82422 14.1331 4.44336 14.1331C4.0625 14.1331 3.75464 13.8298 3.75464 13.4545C3.75464 13.0793 4.0625 12.776 4.44336 12.776ZM34.4202 12.776C34.801 12.776 35.1089 13.0793 35.1089 13.4545C35.1089 13.8298 34.801 14.1331 34.4202 14.1331C34.0393 14.1331 33.7314 13.8298 33.7314 13.4545C33.7314 13.0793 34.0393 12.776 34.4202 12.776ZM7.9187 9.88689L7.89966 4.59326C7.89966 4.58388 7.89966 4.5745 7.89966 4.56199C7.8457 4.23055 7.69971 4.00855 7.48389 3.87097C7.18872 3.68336 6.74756 3.61145 6.20483 3.6177H6.19849V3.62083H2.32642C2.32007 3.62083 2.31372 3.62083 2.30737 3.62083C1.82813 3.64272 1.46313 3.75528 1.25684 3.99917C1.03467 4.25869 0.958496 4.70895 1.06323 5.40622C1.06641 5.42185 1.06641 5.43436 1.06641 5.44999L1.82178 14.6834V14.699C1.92334 15.6558 2.13281 16.2686 2.42798 16.6063C2.66284 16.8752 2.9834 16.9503 3.36743 16.8815C3.396 16.8752 3.42773 16.8721 3.4563 16.8721V16.869H6.36035C6.37939 16.869 6.39844 16.869 6.41431 16.8721C6.92847 16.8815 7.28394 16.7314 7.5061 16.4469C7.76636 16.1154 7.89331 15.5964 7.91235 14.9273H7.90918V9.88689H7.9187Z" fill="white"/>
</svg>
