<svg xmlns="http://www.w3.org/2000/svg" width="14.461" height="14.46" viewBox="0 0 14.461 14.46">
  <g id="Group_10788" data-name="Group 10788" transform="translate(-3 -0.635)">
    <g id="Group_10777" data-name="Group 10777" transform="translate(3 0.635)">
      <path id="Path_3461" data-name="Path 3461" d="M7.222.022a7.241,7.241,0,0,0-.776.042,6.825,6.825,0,0,0-.7.112L5.612.2a7.231,7.231,0,0,0-3.567,2q-.136.139-.265.286A7.239,7.239,0,0,0,12.4,12.319q.136-.139.265-.286A7.239,7.239,0,0,0,7.222.022ZM2.367,2.564c.038-.04.078-.077.117-.116s.09-.089.135-.131.082-.074.123-.111.093-.083.141-.122.085-.069.128-.1.1-.077.146-.114.089-.065.133-.1.1-.072.151-.106l.138-.09c.052-.033.1-.066.156-.1l.142-.083L4.039,1.3l.145-.076.166-.081L4.5,1.081l.172-.072.15-.06C4.878.926,4.937.906,5,.885L5.148.833C5.208.814,5.269.8,5.33.778L5.482.735,5.541.72A5.987,5.987,0,0,0,4,3.224a8.1,8.1,0,0,1-1.653-.636Zm-.347.388a8.384,8.384,0,0,0,1.831.729,12.521,12.521,0,0,0-.487,3.338H.471A6.742,6.742,0,0,1,2.02,2.952Zm0,8.617A6.743,6.743,0,0,1,.471,7.5H3.364a12.52,12.52,0,0,0,.487,3.338A8.389,8.389,0,0,0,2.02,11.569Zm3.461,2.219c-.049-.012-.1-.028-.149-.043s-.122-.036-.183-.055L5,13.638c-.059-.021-.119-.042-.177-.064l-.149-.059L4.5,13.442l-.147-.067-.169-.082c-.048-.024-.1-.048-.145-.075l-.163-.09c-.048-.027-.094-.054-.141-.082s-.105-.065-.157-.1L3.44,12.86c-.051-.035-.1-.071-.153-.107s-.088-.063-.132-.1-.1-.076-.148-.116-.085-.068-.127-.1-.095-.082-.142-.123-.082-.072-.122-.11-.091-.088-.136-.132S2.4,12,2.365,11.957l-.021-.022A8.1,8.1,0,0,1,4,11.3,5.989,5.989,0,0,0,5.54,13.8Zm1.5.21c-1.032-.147-1.938-1.224-2.507-2.816a12.262,12.262,0,0,1,2.507-.3V14Zm0-3.593a12.707,12.707,0,0,0-2.659.317A12.071,12.071,0,0,1,3.847,7.5H6.98Zm0-3.385H3.847A12.069,12.069,0,0,1,4.322,3.8a12.711,12.711,0,0,0,2.659.317Zm0-3.385a12.249,12.249,0,0,1-2.507-.3C5.043,1.748,5.948.67,6.98.524V3.634Zm5.443-.682a6.742,6.742,0,0,1,1.549,4.067H11.079a12.52,12.52,0,0,0-.487-3.338A8.392,8.392,0,0,0,12.423,2.952ZM8.961.733c.051.013.1.028.151.043s.122.036.183.055l.151.052c.059.021.119.042.177.064l.149.059.173.072.147.067.169.082c.048.024.1.048.145.075l.163.09c.048.027.094.054.141.082s.105.065.157.1L11,1.662c.051.035.1.071.152.107s.089.063.132.1.1.076.147.115.085.068.127.1.095.082.142.123.082.072.122.11.091.088.136.132.078.076.117.116l.021.022a8.1,8.1,0,0,1-1.653.637A5.988,5.988,0,0,0,8.9.719Zm-1.5-.21C8.5.67,9.4,1.748,9.97,3.339a12.262,12.262,0,0,1-2.507.3V.524Zm0,3.593A12.707,12.707,0,0,0,10.122,3.8a12.071,12.071,0,0,1,.475,3.22H7.463Zm0,3.385H10.6a12.069,12.069,0,0,1-.475,3.22h0A12.711,12.711,0,0,0,7.463,10.4Zm0,6.5V10.887a12.25,12.25,0,0,1,2.507.3C9.4,12.774,8.5,13.851,7.463,14Zm4.613-2.04c-.038.039-.077.077-.116.116s-.09.089-.136.132-.081.072-.122.11-.093.083-.141.123-.085.069-.128.1-.1.077-.146.114-.089.065-.133.1-.1.072-.151.106-.092.061-.138.09-.1.065-.156.1l-.142.083-.161.089-.145.076c-.055.028-.111.055-.166.081l-.148.068-.172.072-.15.06c-.059.022-.118.043-.177.064l-.151.052c-.06.02-.121.037-.182.055l-.152.044L8.9,13.8a5.987,5.987,0,0,0,1.542-2.5,8.1,8.1,0,0,1,1.653.636Zm.347-.388a8.383,8.383,0,0,0-1.831-.729A12.521,12.521,0,0,0,11.079,7.5h2.893A6.741,6.741,0,0,1,12.423,11.569Z" transform="translate(0 -0.022)" fill="#d21363"/>
    </g>
  </g>
</svg>
