<svg id="Layer_2" data-name="Layer 2" xmlns="http://www.w3.org/2000/svg" width="204.326" height="46.306" viewBox="0 0 204.326 46.306">
  <g id="Layer_10" data-name="Layer 10" transform="translate(0)">
    <path id="Path_2561" data-name="Path 2561" d="M135.41,50.554V39.076h4.856a4.011,4.011,0,0,1,3.1,1.158,3.7,3.7,0,0,1,.915,2.645h0a3.89,3.89,0,0,1-.608,2.234A3.583,3.583,0,0,1,142,46.433l2.6,4.1h-2.738l-2.281-3.675h-1.841v3.675Zm2.315-5.9H140.1a1.875,1.875,0,0,0,1.325-.446,1.534,1.534,0,0,0,.475-1.158h0a1.528,1.528,0,0,0-.486-1.221,1.991,1.991,0,0,0-1.354-.423h-2.315v3.3Zm10.76,6.054a2.894,2.894,0,0,1-2-.712,2.5,2.5,0,0,1-.8-1.968V48a2.524,2.524,0,0,1,.886-2.1,3.716,3.716,0,0,1,2.367-.706,5.557,5.557,0,0,1,1.985.365v-.145a1.563,1.563,0,0,0-.44-1.2,1.858,1.858,0,0,0-1.3-.411,6.107,6.107,0,0,0-2.246.48l-.579-1.9a7.734,7.734,0,0,1,1.464-.533,7.385,7.385,0,0,1,1.7-.174,3.577,3.577,0,0,1,2.749.984,3.982,3.982,0,0,1,.88,2.8v5.1h-2.234V49.6A3.056,3.056,0,0,1,148.486,50.71Zm.7-1.736a1.951,1.951,0,0,0,1.3-.428,1.383,1.383,0,0,0,.5-1.106V47a3.212,3.212,0,0,0-1.47-.33,1.939,1.939,0,0,0-1.158.313,1.048,1.048,0,0,0-.423.9h0a.961.961,0,0,0,.347.781,1.4,1.4,0,0,0,.915.284Zm10.83,1.736a3.1,3.1,0,0,1-2.535-1.3v1.158h-2.315V38.59h2.315v4.44a2.981,2.981,0,0,1,2.535-1.424,3.253,3.253,0,0,1,1.383.3,3.762,3.762,0,0,1,1.158.857,4.138,4.138,0,0,1,.828,1.441,5.724,5.724,0,0,1,.313,1.939h0a5.91,5.91,0,0,1-.3,1.945,4.052,4.052,0,0,1-.828,1.435,3.692,3.692,0,0,1-1.158.862,3.415,3.415,0,0,1-1.4.3Zm-.579-2.113a1.771,1.771,0,0,0,1.407-.671,2.576,2.576,0,0,0,.579-1.736h0a2.576,2.576,0,0,0-.579-1.736,1.789,1.789,0,0,0-2.807,0,2.581,2.581,0,0,0-.579,1.736h0a2.593,2.593,0,0,0,.579,1.736,1.777,1.777,0,0,0,1.4.671Zm10.847,2.113a3.1,3.1,0,0,1-2.535-1.3v1.158h-2.315V38.59h2.315v4.44a2.969,2.969,0,0,1,2.535-1.424,3.294,3.294,0,0,1,1.383.3,3.739,3.739,0,0,1,1.158.857,4.144,4.144,0,0,1,.834,1.441,5.724,5.724,0,0,1,.313,1.939h0a5.91,5.91,0,0,1-.307,1.945,4.018,4.018,0,0,1-.868,1.464,3.785,3.785,0,0,1-1.158.851,3.369,3.369,0,0,1-1.395.3Zm-.579-2.113a1.777,1.777,0,0,0,1.354-.671,2.576,2.576,0,0,0,.579-1.736h0a2.576,2.576,0,0,0-.579-1.736,1.794,1.794,0,0,0-2.813-.006,2.6,2.6,0,0,0-.579,1.736h0a2.622,2.622,0,0,0,.579,1.736,1.783,1.783,0,0,0,1.407.671Zm5.985-7.8V38.59h2.437V40.8Zm.069,9.753V41.768h2.315v8.786Zm7.224.145a2.414,2.414,0,0,1-1.736-.579,2.749,2.749,0,0,1-.637-2.032V43.9h-.972V41.768h.972v-2.24h2.315v2.24h1.916V43.9h-1.916v3.751a.955.955,0,0,0,.179.642.7.7,0,0,0,.579.208,2.188,2.188,0,0,0,1.158-.313v2a3.357,3.357,0,0,1-1.829.509Zm20.438-.145V41.4h-3.23V39.088H209V41.4h-3.207v9.151Zm9.527.2a4.306,4.306,0,0,0,2.269-.614,4.388,4.388,0,0,0,1.569-1.667,4.712,4.712,0,0,0,.579-2.315h0a4.631,4.631,0,0,0-.579-2.315,4.214,4.214,0,0,0-1.574-1.644,4.272,4.272,0,0,0-2.246-.608,4.388,4.388,0,0,0-1.736.359,4.289,4.289,0,0,0-1.389,1,4.631,4.631,0,0,0-.92,1.459,4.683,4.683,0,0,0-.336,1.771v.035a4.711,4.711,0,0,0,.579,2.315,4.283,4.283,0,0,0,3.82,2.257Zm.035-2.153a1.922,1.922,0,0,1-1.54-.712,2.541,2.541,0,0,1-.579-1.736h0a2.587,2.587,0,0,1,.579-1.7,1.893,1.893,0,0,1,1.534-.689,1.933,1.933,0,0,1,1.493.7,2.564,2.564,0,0,1,.608,1.736v.035a2.558,2.558,0,0,1-.579,1.7,1.893,1.893,0,0,1-1.534.689Zm6.049,1.956V41.768h2.315v1.765a2.541,2.541,0,0,1,2.6-1.927v2.6h-.127a2.223,2.223,0,0,0-1.823.776,3.566,3.566,0,0,0-.648,2.315v3.253Zm9.1.145a2.414,2.414,0,0,1-1.736-.579,2.749,2.749,0,0,1-.637-2.032V43.9h-.972V41.768h.972v-2.24h2.315v2.24h1.916V43.9h-1.916v3.751a.955.955,0,0,0,.179.642.7.7,0,0,0,.579.208,2.182,2.182,0,0,0,1.158-.313v2a3.357,3.357,0,0,1-1.829.509Zm7.316.052a4.26,4.26,0,0,1-2.246-.608,4.33,4.33,0,0,1-1.58-1.65,4.711,4.711,0,0,1-.579-2.315v-.035a4.793,4.793,0,0,1,.336-1.771,4.515,4.515,0,0,1,.926-1.459,4.289,4.289,0,0,1,1.407-.978,4.359,4.359,0,0,1,1.736-.359,4.3,4.3,0,0,1,2.252.608,4.214,4.214,0,0,1,1.574,1.644,4.631,4.631,0,0,1,.579,2.315h0a4.718,4.718,0,0,1-.579,2.315,4.347,4.347,0,0,1-1.586,1.667,4.272,4.272,0,0,1-2.263.614Zm.029-2.153a1.9,1.9,0,0,0,1.563-.689,2.587,2.587,0,0,0,.579-1.7v-.035a2.564,2.564,0,0,0-.579-1.736,1.945,1.945,0,0,0-1.54-.706,1.887,1.887,0,0,0-1.534.689,2.559,2.559,0,0,0-.579,1.7h0a2.57,2.57,0,0,0,.579,1.736,1.939,1.939,0,0,0,1.54.712Zm6.1-7.8V38.59h2.408V40.8Zm.093,9.753V41.768h2.315v8.786Zm7.334.156a5.123,5.123,0,0,1-1.835-.307,5.291,5.291,0,0,1-1.69-.99l.99-1.638a4.243,4.243,0,0,0,2.564,1.048,1.215,1.215,0,0,0,.735-.179.579.579,0,0,0,.243-.48v-.075a.535.535,0,0,0,0-.168.371.371,0,0,0-.087-.145.85.85,0,0,0-.122-.127.881.881,0,0,0-.179-.116l-.2-.093-.243-.1-.255-.087-.284-.093-.3-.093c-.266-.081-.5-.168-.695-.249a3.751,3.751,0,0,1-.642-.347,2.368,2.368,0,0,1-.579-.48,2.183,2.183,0,0,1-.37-.671,2.548,2.548,0,0,1-.151-.891h0a2.57,2.57,0,0,1,.851-2.043,3.085,3.085,0,0,1,2.124-.741,4.972,4.972,0,0,1,1.58.266,5.342,5.342,0,0,1,1.459.747l-.88,1.736a4.411,4.411,0,0,0-2.2-.816,1.025,1.025,0,0,0-.631.168.527.527,0,0,0-.226.434v.035a.515.515,0,0,0,.208.388,1.952,1.952,0,0,0,.469.284c.174.075.417.168.729.284l.249.093c.272.093.5.185.7.272a4.689,4.689,0,0,1,.654.353,2.471,2.471,0,0,1,.579.486,2.414,2.414,0,0,1,.533,1.5h0a2.587,2.587,0,0,1-.862,2.113,3.415,3.415,0,0,1-2.257.718Zm8.63.041a4,4,0,0,1-3.05-1.273,4.578,4.578,0,0,1-1.2-3.27v-.035a5.21,5.21,0,0,1,.509-2.286,4.174,4.174,0,0,1,1.435-1.661,3.693,3.693,0,0,1,2.09-.619,3.861,3.861,0,0,1,1.736.394,3.282,3.282,0,0,1,1.244,1.065,4.811,4.811,0,0,1,.712,1.517,6.429,6.429,0,0,1,.243,1.771,6.532,6.532,0,0,1-.029.654h-5.672a2.206,2.206,0,0,0,.695,1.285,1.979,1.979,0,0,0,1.3.44,2.454,2.454,0,0,0,1.036-.214,3.4,3.4,0,0,0,.932-.666l1.32,1.262a3.924,3.924,0,0,1-3.328,1.638Zm-1.985-5.279h3.473a2.414,2.414,0,0,0-.579-1.36,1.488,1.488,0,0,0-1.158-.5,1.528,1.528,0,0,0-1.158.5,2.564,2.564,0,0,0-.608,1.366Z" transform="translate(-57.03 -16.253)" fill="#4d4d4f"/>
    <path id="Path_2562" data-name="Path 2562" d="M236.147,47.15l-2.489-2.72a14.845,14.845,0,0,0,1.088-1.8c.336-.642.66-1.331.972-2.061l-1.326-.66q-.388.961-.816,1.823a16,16,0,0,1-.9,1.6l-3.253-3.577a6.408,6.408,0,0,0,2.495-1.545,3.768,3.768,0,0,0,.579-3.832,3.513,3.513,0,0,0-.7-1.117,3.375,3.375,0,0,0-1.088-.747,3.473,3.473,0,0,0-1.383-.272,3.994,3.994,0,0,0-1.545.284,3.559,3.559,0,0,0-1.922,1.939,3.711,3.711,0,0,0-.278,1.435,4.1,4.1,0,0,0,.347,1.7,7.954,7.954,0,0,0,1.082,1.7,6.512,6.512,0,0,0-2.547,1.8,4.087,4.087,0,0,0-.9,2.657,4.515,4.515,0,0,0,.336,1.771,4.053,4.053,0,0,0,.938,1.372,4.145,4.145,0,0,0,1.424.874,5,5,0,0,0,1.783.313,5.163,5.163,0,0,0,2.547-.631,7.525,7.525,0,0,0,2.113-1.736l2.24,2.483ZM231.285,35.8a2.373,2.373,0,0,1-.695,1.736,5.568,5.568,0,0,1-2.055,1.2,10.214,10.214,0,0,1-.666-.822,5.093,5.093,0,0,1-.44-.712,3.038,3.038,0,0,1-.232-.637,2.959,2.959,0,0,1-.069-.66,2.275,2.275,0,0,1,.579-1.6,2.037,2.037,0,0,1,1.563-.637,1.893,1.893,0,0,1,1.447.579,2.142,2.142,0,0,1,.579,1.545Zm.405,8.8a6.674,6.674,0,0,1-1.661,1.459,3.589,3.589,0,0,1-1.9.538,3.12,3.12,0,0,1-1.2-.22,2.721,2.721,0,0,1-1.557-1.534,3.079,3.079,0,0,1,.44-3.027,4.63,4.63,0,0,1,2.061-1.43Z" transform="translate(-94.161 -13.578)" fill="#929497"/>
    <path id="Path_2563" data-name="Path 2563" d="M136.973,69.938h1.2V69.6H135.41v.336h1.2v3.253h.365V69.938Zm5.5,1.557h1.736V71.16h-1.736V69.938h1.864V69.6h-2.217v3.589h2.315v-.336h-1.922V71.5Zm8.682.915a1.446,1.446,0,0,1-.22.26,1.157,1.157,0,0,1-.255.168.972.972,0,0,1-.272.081,1.574,1.574,0,0,1-.284,0,1.406,1.406,0,0,1-1.082-.469,1.493,1.493,0,0,1-.289-.492,1.666,1.666,0,0,1-.1-.579,1.69,1.69,0,0,1,.1-.579,1.494,1.494,0,0,1,.289-.492,1.436,1.436,0,0,1,.463-.341,1.516,1.516,0,0,1,.619-.127,1.2,1.2,0,0,1,.284.041,1.354,1.354,0,0,1,.266.11.984.984,0,0,1,.22.151.8.8,0,0,1,.151.174l.318-.237a1.343,1.343,0,0,0-.579-.44,1.84,1.84,0,0,0-.671-.127,1.939,1.939,0,0,0-.741.139,1.736,1.736,0,0,0-.579.394,1.829,1.829,0,0,0-.388.579,2.026,2.026,0,0,0,0,1.5,1.829,1.829,0,0,0,.388.579,1.736,1.736,0,0,0,.579.394,1.945,1.945,0,0,0,.741.145,1.656,1.656,0,0,0,.423-.052,1.736,1.736,0,0,0,.37-.139,1.32,1.32,0,0,0,.307-.214,1.158,1.158,0,0,0,.226-.255l-.3-.214Zm4.277.781h.365V71.5h1.951v1.7h.365V69.6h-.365V71.16H155.79V69.6h-.359Zm7.525-3.589H162.5v3.589h.365V70.123h0l2.142,3.068h.451V69.6H165.1v3.039h0ZM173.317,71.4a1.875,1.875,0,0,0-.145-.752,1.829,1.829,0,0,0-.388-.579,1.736,1.736,0,0,0-.579-.394,2.043,2.043,0,0,0-1.482,0,1.737,1.737,0,0,0-.579.394,1.829,1.829,0,0,0-.388.579,2.026,2.026,0,0,0,0,1.5,1.829,1.829,0,0,0,.388.579,1.737,1.737,0,0,0,.579.394,1.968,1.968,0,0,0,1.482,0,1.737,1.737,0,0,0,.579-.394,1.829,1.829,0,0,0,.388-.579,1.875,1.875,0,0,0,.145-.752Zm-.394,0a1.667,1.667,0,0,1-.1.579,1.4,1.4,0,0,1-.289.492,1.464,1.464,0,0,1-2.165,0,1.493,1.493,0,0,1-.289-.492,1.667,1.667,0,0,1-.1-.579,1.69,1.69,0,0,1,.1-.579,1.493,1.493,0,0,1,.289-.492,1.435,1.435,0,0,1,.463-.342,1.569,1.569,0,0,1,1.239,0,1.436,1.436,0,0,1,.463.341,1.4,1.4,0,0,1,.289.492,1.69,1.69,0,0,1,.1.579Zm4.868-1.794h-.365v3.589h2.032v-.336h-1.667V69.6Zm9.041,1.794a1.876,1.876,0,0,0-.145-.752,1.87,1.87,0,0,0-.972-.972,2.043,2.043,0,0,0-1.482,0,1.737,1.737,0,0,0-.984.99,2.026,2.026,0,0,0,0,1.5,1.737,1.737,0,0,0,.984.99,1.968,1.968,0,0,0,1.482,0,1.87,1.87,0,0,0,.972-.972,1.875,1.875,0,0,0,.145-.752Zm-.394,0a1.666,1.666,0,0,1-.1.579,1.493,1.493,0,0,1-.289.492,1.464,1.464,0,0,1-2.165,0,1.4,1.4,0,0,1-.289-.492,1.667,1.667,0,0,1-.1-.579,1.691,1.691,0,0,1,.1-.579,1.4,1.4,0,0,1,.289-.492,1.436,1.436,0,0,1,.463-.342,1.569,1.569,0,0,1,1.239,0,1.435,1.435,0,0,1,.463.341,1.493,1.493,0,0,1,.289.492,1.69,1.69,0,0,1,.1.579Zm7.42-1.4a1.522,1.522,0,0,0-.579-.365,2.055,2.055,0,0,0-.741-.116,1.968,1.968,0,0,0-.747.139,1.789,1.789,0,0,0-.579.394,1.736,1.736,0,0,0-.394.579,2.107,2.107,0,0,0,0,1.5,1.736,1.736,0,0,0,.394.579,1.788,1.788,0,0,0,.579.394,1.974,1.974,0,0,0,.747.145,2.744,2.744,0,0,0,.689-.1,2.5,2.5,0,0,0,.666-.266V71.148h-1.221v.336h.857v1.2a1.8,1.8,0,0,1-.457.185,2.037,2.037,0,0,1-.533.069,1.412,1.412,0,0,1-.619-.127,1.377,1.377,0,0,1-.463-.341,1.5,1.5,0,0,1-.3-.492,1.806,1.806,0,0,1-.1-.579,1.83,1.83,0,0,1,.1-.579,1.5,1.5,0,0,1,.3-.492,1.377,1.377,0,0,1,.463-.341,1.5,1.5,0,0,1,.619-.127,1.424,1.424,0,0,1,.579.116,1.274,1.274,0,0,1,.434.3l.272-.266Zm5.551,1.65,1.343-2.043H200.3l-1.071,1.7-1.065-1.7h-.475l1.343,2.043v1.545h.365V71.646Zm9.406-1.7a1.2,1.2,0,0,0-.463-.341,1.5,1.5,0,0,0-.55-.093,1.528,1.528,0,0,0-.428.058,1.158,1.158,0,0,0-.37.185.978.978,0,0,0-.266.324.99.99,0,0,0-.1.446.973.973,0,0,0,.081.417.81.81,0,0,0,.208.272,1.088,1.088,0,0,0,.3.179q.147.074.3.133l.342.11a1.737,1.737,0,0,1,.3.139.769.769,0,0,1,.2.208.617.617,0,0,1,.012.59.776.776,0,0,1-.179.208.9.9,0,0,1-.249.122.868.868,0,0,1-.272.046.955.955,0,0,1-.492-.122.885.885,0,0,1-.324-.313l-.33.237a1.21,1.21,0,0,0,.5.405,1.632,1.632,0,0,0,.625.127,1.157,1.157,0,0,0,.423-.075,1.1,1.1,0,0,0,.382-.2.984.984,0,0,0,.272-.324.932.932,0,0,0,.1-.44.874.874,0,0,0-.133-.509,1.059,1.059,0,0,0-.341-.3,2.061,2.061,0,0,0-.446-.185,3.912,3.912,0,0,1-.44-.15,1.2,1.2,0,0,1-.342-.22A.515.515,0,0,1,207,70.5a.579.579,0,0,1,.064-.289.66.66,0,0,1,.174-.2.752.752,0,0,1,.249-.116,1.071,1.071,0,0,1,.278-.041.787.787,0,0,1,.695.353l.318-.249Zm7.675,1.447a1.98,1.98,0,0,0-.145-.752,1.737,1.737,0,0,0-.394-.579,1.789,1.789,0,0,0-.579-.394,2.043,2.043,0,0,0-1.482,0,1.736,1.736,0,0,0-.579.394,1.846,1.846,0,0,0-.394.579,2.107,2.107,0,0,0,0,1.5,1.846,1.846,0,0,0,.394.579,1.737,1.737,0,0,0,.579.394,1.968,1.968,0,0,0,1.482,0,1.789,1.789,0,0,0,.579-.394,1.736,1.736,0,0,0,.394-.579,1.979,1.979,0,0,0,.145-.752Zm-.4,0a1.667,1.667,0,0,1-.1.579,1.6,1.6,0,0,1-.289.492,1.511,1.511,0,0,1-1.7.342,1.378,1.378,0,0,1-.463-.342,1.4,1.4,0,0,1-.289-.492,1.667,1.667,0,0,1-.1-.579,1.69,1.69,0,0,1,.1-.579,1.4,1.4,0,0,1,.289-.492,1.378,1.378,0,0,1,.463-.341,1.557,1.557,0,0,1,1.233,0,1.4,1.4,0,0,1,.469.341,1.6,1.6,0,0,1,.289.492,1.685,1.685,0,0,1,.1.579Zm4.868-1.794h-.365v3.589h2.037v-.336h-1.673V69.6Zm8.1,0H228.7v2.211a1.61,1.61,0,0,1-.052.44,1.156,1.156,0,0,1-.133.313.8.8,0,0,1-.191.2.909.909,0,0,1-.208.11.892.892,0,0,1-.2.058h-.33a.979.979,0,0,1-.2-.058.875.875,0,0,1-.2-.11.8.8,0,0,1-.191-.2,1.158,1.158,0,0,1-.133-.313,1.608,1.608,0,0,1-.052-.44V69.6h-.365v2.252a2.315,2.315,0,0,0,.052.475,1.377,1.377,0,0,0,.2.463,1.256,1.256,0,0,0,.4.353,1.621,1.621,0,0,0,1.314,0,1.215,1.215,0,0,0,.405-.353,1.261,1.261,0,0,0,.2-.463,2.357,2.357,0,0,0,.058-.475Zm5.435.336h1.2V69.6h-2.767v.336h1.2v3.253h.365ZM240,69.6h-.365v3.589H240Zm7.843,1.794a1.98,1.98,0,0,0-.139-.752,1.736,1.736,0,0,0-.394-.579,1.788,1.788,0,0,0-.579-.394,1.962,1.962,0,0,0-.741-.139,1.991,1.991,0,0,0-.747.139,1.789,1.789,0,0,0-.579.394,1.847,1.847,0,0,0-.394.579,2.107,2.107,0,0,0,0,1.5,1.847,1.847,0,0,0,.394.579,1.788,1.788,0,0,0,.579.394,2,2,0,0,0,.747.145,1.962,1.962,0,0,0,.741-.145,1.789,1.789,0,0,0,.579-.394,1.736,1.736,0,0,0,.394-.579,1.98,1.98,0,0,0,.139-.752Zm-.394,0a1.808,1.808,0,0,1-.1.579,1.506,1.506,0,0,1-.3.492,1.325,1.325,0,0,1-.463.341,1.557,1.557,0,0,1-1.233,0,1.378,1.378,0,0,1-.463-.341,1.5,1.5,0,0,1-.3-.492,1.805,1.805,0,0,1-.1-.579,1.829,1.829,0,0,1,.1-.579,1.5,1.5,0,0,1,.3-.492,1.378,1.378,0,0,1,.463-.341,1.557,1.557,0,0,1,1.233,0,1.325,1.325,0,0,1,.463.342,1.505,1.505,0,0,1,.3.492A1.83,1.83,0,0,1,247.452,71.4Zm4.96-1.794h-.457v3.589h.365V70.123h0l2.136,3.068h.457V69.6h-.365v3.039h0Zm8.879.347a1.157,1.157,0,0,0-.463-.341,1.632,1.632,0,0,0-.972-.035,1.2,1.2,0,0,0-.376.185.9.9,0,0,0-.26.324.921.921,0,0,0-.1.446.978.978,0,0,0,.075.417.811.811,0,0,0,.208.272,1.088,1.088,0,0,0,.3.179,2.981,2.981,0,0,0,.342.127l.336.11a1.735,1.735,0,0,1,.3.139.712.712,0,0,1,.208.208.638.638,0,0,1,.006.59.689.689,0,0,1-.179.208.869.869,0,0,1-.243.122.961.961,0,0,1-.764-.075.9.9,0,0,1-.33-.313l-.324.237a1.21,1.21,0,0,0,.5.405,1.632,1.632,0,0,0,.625.127,1.2,1.2,0,0,0,.423-.075,1.157,1.157,0,0,0,.376-.2,1,1,0,0,0,.278-.324.932.932,0,0,0,.1-.44.834.834,0,0,0-.139-.509,1,1,0,0,0-.342-.3,2.008,2.008,0,0,0-.44-.185,4.018,4.018,0,0,1-.446-.15,1.088,1.088,0,0,1-.336-.22.515.515,0,0,1-.139-.382.648.648,0,0,1,.064-.289.579.579,0,0,1,.179-.2.677.677,0,0,1,.243-.116,1.156,1.156,0,0,1,.278-.041.776.776,0,0,1,.695.353Z" transform="translate(-57.03 -29.276)" fill="#626366"/>
    <path id="Path_2564" data-name="Path 2564" d="M50.472,32.038a43.121,43.121,0,0,0-6.211,5.25l-2.992-2.512c-.122-7.721,2.078-6.367,3.351-9.4-1.273.347-2.414,2.061-3.293,2.894-5.939-4.335-5.609-3.971-5.522-7.525-2.02,1.25.579,1.736-2.009,4.052a35.036,35.036,0,0,1-3.623,2.593c-2.124-1.447-4.26-3.091-5.157-5.151l-.648-1.331c0,2.24.533,1.806-2.547,4.167-1.337.972-2.576,1.835-3.745,2.709l-2.448-1.789c.579,3.577,2.6.324,1.736,8.161-.185,1.684-3.473,4.6-4.937,5.51l-4.231-1.8c1.927-7.652,9.134-17.561,18.354-18.974C37.153,17.266,48.388,24.8,50.472,32.038ZM65.833,46.091c2.958-.579,4.382-2.894-.8-3.733-7.583-1.262-7.455-4.121-3.867-6.471C64.635,36.7,71.24,34.567,72,32.622c2.014-12.074-9.412-15.946-14.557-12.879C55.878,12.612,51.351,3.259,45.87.862c0,10.025,8.046,19.292,9.649,20.12-2.188,2.576-2.894,6.257-2.205,8.005C36.244,3.577,8.166,16.537,5.127,31.8a13.544,13.544,0,0,0-.191,3.618,3.67,3.67,0,0,0-3.838.544c-1.545,1.383-1.453,4.005.2,5.846s4.254,2.205,5.788.822a3.184,3.184,0,0,0,.423-.463A10.419,10.419,0,0,1,3.46,41.4C2.3,40.818,7.014,40.06,8.038,38.879a1.887,1.887,0,0,0,.55.388c8.891,4.086,19.576,6.182,30.1,3.415,3.415-.9,6-4.781,10.2-8.1,1.54-1.21,3.971-3.143,6.853-1.98a13.449,13.449,0,0,1,2.495,2.165c1,1.2.834,1.817.469,3.334-4.086,1.383-8.786,2.692-11.773,4.989.318.463,1.25,1.158,1.736,1.736a1.447,1.447,0,0,1,.37,1.418l16.786-.133ZM7.523,42.167a4.052,4.052,0,0,0,1.736-.446c.816,1.088,1.244,1.569,1.216,2.483a12.914,12.914,0,0,1-2.952-2.037Zm10.019,4.005a1.586,1.586,0,0,0-.353-1.7c9.84,1.285,14.233,1.435,23.807-.087a1.651,1.651,0,0,1,.862,1.922h-21.6a26.315,26.315,0,0,1-2.686-.133Zm5.933-3.681c-.168-2.061-4.005-4.891-5.62-6.2l-4.544,3.681A36.316,36.316,0,0,0,23.47,42.491ZM43.5,38.144a19.523,19.523,0,0,0-2.68-2.622c-.972.417-.041-.075-1.03.625-.232.162-.579.486-.926.729-3.27,2.483-4.139,2.576-4.179,5.441,5.429-.764,6.135-1.7,8.815-4.173Zm-19.1,4.4c2.8.793,9.429.747,9.608-.3.168-.943-.729-3.311-4.052-5.256-1.736.833-5.267,3.571-5.545,5.557ZM40.435,28.871c-1.557-1.268-3.282-3.033-5.209-3.9-1.54.926-3.149,2.2-4.584,3.189-.1,1.395-.388,6.367-.075,7.415s3.085,3.1,3.971,3.473l2.894-2.379c.909-.706,2.228-1.864,2.894-2.448l.127-5.337Zm-11.2,7.415c.1-1.939.608-6.743-.15-8.254a33.442,33.442,0,0,0-4.26-3.9c-2.518,1.291-4.185,3.566-6.431,4.573l-.162,6.946c2.2,1.412,4.457,3.838,5.823,4.561,2.009-1.123,3.01-2.715,5.18-3.913Zm25.676-2.854a.932.932,0,1,1-.955.909A.932.932,0,0,1,54.911,33.433Zm11-10.482A1.447,1.447,0,1,1,64.5,24.4a1.43,1.43,0,0,1,1.412-1.447ZM58.17,17.776a25.869,25.869,0,0,0-1.158-4.191c.4-2.553-1.736-8.682,1.7-13.585C62.6,7.721,58.673,17.081,58.17,17.776Z" transform="translate(0.003)" fill="#00adee" fill-rule="evenodd"/>
  </g>
</svg>
